<svg xmlns="http://www.w3.org/2000/svg" xmlns:xlink="http://www.w3.org/1999/xlink" fill="none" version="1.1" width="31.5" height="40" viewBox="0 0 31.5 40"><defs><clipPath id="master_svg0_103_939"><rect x="0" y="2" width="31.5" height="36" rx="0"/></clipPath></defs><g><rect x="0" y="0" width="31.5" height="40" rx="0" fill="#000000" fill-opacity="0" style="mix-blend-mode:passthrough"/><g clip-path="url(#master_svg0_103_939)"><g transform="matrix(1,0,0,-1,0,77.546875)"><g><path d="M6.75,74.7734375Q3.86719,74.7031375,1.96875,72.8046375Q0.0703125,70.9062375,0,68.0234375L0,45.5234375Q0.0703125,42.6406275,1.96875,40.7421875Q3.86719,38.84375,6.75,38.7734375L27,38.7734375L29.25,38.7734375Q30.2344,38.7734375,30.8672,39.4062495Q31.5,40.0390575,31.5,41.0234375Q31.5,42.0078175,30.8672,42.6406275Q30.2344,43.2734375,29.25,43.2734375L29.25,47.7734375Q30.2344,47.7734375,30.8672,48.4062475Q31.5,49.0390375,31.5,50.0234375L31.5,72.5234375Q31.5,73.5078375,30.8672,74.1406375Q30.2344,74.7734375,29.25,74.7734375L27,74.7734375L6.75,74.7734375ZM6.75,47.7734375L24.75,47.7734375L6.75,47.7734375L24.75,47.7734375L24.75,43.2734375L6.75,43.2734375Q5.76562,43.2734375,5.13281,43.9062475Q4.5,44.5390575,4.5,45.5234375Q4.5,46.5078175,5.13281,47.1406275Q5.76562,47.7734375,6.75,47.7734375ZM9,64.6484375Q9.07031,65.7031375,10.125,65.7734375L23.625,65.7734375Q24.6797,65.7031375,24.75,64.6484375Q24.6797,63.5937375,23.625,63.5234375L10.125,63.5234375Q9.07031,63.5937375,9,64.6484375ZM10.125,61.2734375L23.625,61.2734375L10.125,61.2734375L23.625,61.2734375Q24.6797,61.2031375,24.75,60.1484375Q24.6797,59.0937375,23.625,59.0234375L10.125,59.0234375Q9.07031,59.0937375,9,60.1484375Q9.07031,61.2031375,10.125,61.2734375Z" fill="#000000" fill-opacity="1" style="mix-blend-mode:passthrough"/></g></g></g></g></svg>