<svg xmlns="http://www.w3.org/2000/svg" xmlns:xlink="http://www.w3.org/1999/xlink" fill="none" version="1.1" width="45" height="36" viewBox="0 0 45 36"><g transform="matrix(1,0,0,-1,0,72)"><g><path d="M10.125,72Q13.2891,71.9297,14.9766,69.1875Q16.5234,66.375,14.9766,63.5625Q13.2891,60.8203,10.125,60.75Q6.96094,60.8203,5.27344,63.5625Q3.72656,66.375,5.27344,69.1875Q6.96094,71.9297,10.125,72ZM36,72Q39.1641,71.9297,40.8516,69.1875Q42.3984,66.375,40.8516,63.5625Q39.1641,60.8203,36,60.75Q32.8359,60.8203,31.1484,63.5625Q29.6016,66.375,31.1484,69.1875Q32.8359,71.9297,36,72ZM0,50.9766Q0.0703125,54.210899999999995,2.17969,56.3203Q4.28906,58.4297,7.52344,58.5L10.4766,58.5Q12.1641,58.5,13.6406,57.7969Q13.5,57.023399999999995,13.5,56.25Q13.6406,52.101600000000005,16.5234,49.5L1.47656,49.5Q0.140625,49.6406,0,50.9766ZM28.4766,49.5Q31.3594,52.101600000000005,31.5,56.25Q31.5,57.023399999999995,31.3594,57.7969Q32.8359,58.5,34.5234,58.5L37.4766,58.5Q40.7109,58.4297,42.8203,56.3203Q44.9297,54.210899999999995,45,50.9766Q44.8594,49.6406,43.5234,49.5L28.4766,49.5ZM15.75,56.25Q15.75,58.0781,16.6641,59.625Q17.5781,61.1719,19.125,62.085899999999995Q20.7422,63,22.5,63Q24.2578,63,25.875,62.085899999999995Q27.4219,61.1719,28.3359,59.625Q29.25,58.0781,29.25,56.25Q29.25,54.4219,28.3359,52.875Q27.4219,51.3281,25.875,50.4141Q24.2578,49.5,22.5,49.5Q20.7422,49.5,19.125,50.4141Q17.5781,51.3281,16.6641,52.875Q15.75,54.4219,15.75,56.25ZM9,37.89844Q9.07031,41.83594,11.7422,44.50781Q14.4141,47.1797,18.3516,47.25L26.6484,47.25Q30.5859,47.1797,33.2578,44.50781Q35.9297,41.83594,36,37.89844Q35.8594,36.140625,34.1016,36L10.8984,36Q9.14062,36.140625,9,37.89844Z" fill="#000000" fill-opacity="1" style="mix-blend-mode:passthrough"/></g></g></svg>