<svg xmlns="http://www.w3.org/2000/svg" xmlns:xlink="http://www.w3.org/1999/xlink" fill="none" version="1.1" width="30.9375" height="36" viewBox="0 0 30.9375 36"><defs><clipPath id="master_svg0_112_0490"><rect x="0" y="0" width="30.9375" height="36" rx="0"/></clipPath></defs><g clip-path="url(#master_svg0_112_0490)"><g transform="matrix(1,0,0,-1,0,45.421875)"><g><path d="M0,26.6484375Q0.0703125,28.8984375,1.96875,30.0234375Q3.9375,31.1484375,5.90625,30.0234375Q7.80469,28.8984375,7.875,26.6484375Q7.80469,24.3984375,5.90625,23.2734375Q3.9375,22.1484375,1.96875,23.2734375Q0.0703125,24.3984375,0,26.6484375ZM11.25,26.6484375Q11.3203,28.8984375,13.2188,30.0234375Q15.1875,31.1484375,17.1562,30.0234375Q19.0547,28.8984375,19.125,26.6484375Q19.0547,24.3984375,17.1562,23.2734375Q15.1875,22.1484375,13.2188,23.2734375Q11.3203,24.3984375,11.25,26.6484375ZM26.4375,30.5859375Q28.6875,30.5156275,29.8125,28.6171875Q30.9375,26.6484375,29.8125,24.6796875Q28.6875,22.78125,26.4375,22.7109375Q24.1875,22.78125,23.0625,24.6796875Q21.9375,26.6484375,23.0625,28.6171875Q24.1875,30.5156275,26.4375,30.5859375Z" fill="#000000" fill-opacity="1" style="mix-blend-mode:passthrough"/></g></g></g></svg>