<svg xmlns="http://www.w3.org/2000/svg" xmlns:xlink="http://www.w3.org/1999/xlink" fill="none" version="1.1" width="27.0625" height="36" viewBox="0 0 27.0625 36"><defs><clipPath id="master_svg0_112_0485"><rect x="0" y="0" width="27.0625" height="36" rx="0"/></clipPath></defs><g clip-path="url(#master_svg0_112_0485)"><g transform="matrix(1,0,0,-1,0,73.54685974121094)"><g><path d="M22.4935,68.27342987060547Q22.4232,70.80462987060547,20.2442,72.14062987060547Q17.9948,73.40622987060547,15.7455,72.14062987060547Q13.5664,70.80462987060547,13.4961,68.27342987060547Q13.5664,65.74222987060547,15.7455,64.40622987060547Q17.9948,63.140629870605466,20.2442,64.40622987060547Q22.4232,65.74222987060547,22.4935,68.27342987060547ZM14.1287,54.21092987060547L15.7455,51.96092987060547L14.1287,54.21092987060547L15.7455,51.96092987060547Q16.4484,51.04682987060547,17.6433,50.83592987060547Q18.8383,50.69532987060547,19.7521,51.46872987060547L25.9378,56.53122987060547Q26.8516,57.30462987060547,26.9922,58.42962987060547Q27.0625,59.55462987060547,26.3596,60.46872987060547Q25.5864,61.38282987060547,24.4617,61.52342987060547Q23.337,61.59372987060547,22.4232,60.890629870605466L18.4868,57.72652987060547L16.6593,60.25782987060547Q14.9019,62.578129870605466,11.9497,62.64842987060547Q10.2627,62.64842987060547,8.92711,61.80462987060547Q7.59156,60.96092987060547,6.74805,59.55462987060547L3.37403,53.015629870605466Q2.31964,50.90622987060547,2.81169,48.72652987060547Q3.30373,46.61717987060547,5.13133,45.14061987060547L8.92711,42.39842987060547L2.81169,42.39842987060547Q1.61672,42.39842987060547,0.843506,41.55467987060547Q0,40.78123987060547,0,39.58592987060547Q0,38.39061987060547,0.843506,37.61717987060547Q1.61672,36.77342987060547,2.81169,36.77342987060547L17.4325,36.77342987060547Q19.4006,36.84374237060547,20.1036,38.67186987060547Q20.5956,40.57030987060547,19.1195,41.83592987060547L10.9656,47.88282987060547L14.1287,54.21092987060547Z" fill="#000000" fill-opacity="1" style="mix-blend-mode:passthrough"/></g></g></g></svg>