<svg xmlns="http://www.w3.org/2000/svg" xmlns:xlink="http://www.w3.org/1999/xlink" fill="none" version="1.1" width="31.5" height="40" viewBox="0 0 31.5 40"><defs><clipPath id="master_svg0_103_949"><rect x="1.125" y="2" width="29.25" height="36" rx="0"/></clipPath></defs><g><rect x="0" y="0" width="31.5" height="40" rx="0" fill="#000000" fill-opacity="0" style="mix-blend-mode:passthrough"/><g clip-path="url(#master_svg0_103_949)"><g transform="matrix(1,0,0,-1,0,77.546875)"><g><path d="M23.625,71.3984375Q23.5547,73.29683750000001,21.9375,74.3515375Q20.25,75.1953375,18.5625,74.3515375Q16.9453,73.29683750000001,16.875,71.3984375Q16.9453,69.5000375,18.5625,68.4453375Q20.25,67.6015375,21.9375,68.4453375Q23.5547,69.5000375,23.625,71.3984375ZM9.98438,62.3984375Q11.03906,63.5234375,12.5859,63.5234375Q12.7969,63.5234375,13.0078,63.5234375L10.82812,56.9140375Q10.33594,55.3672375,10.82812,53.9609375Q11.3203,52.5546375,12.6562,51.6406375L18.7734,47.9140575L16.9453,41.6562475Q16.7344,40.7421875,17.1562,39.8984375Q17.5781,39.1249995,18.4922,38.84375Q19.4062,38.6328125,20.25,39.0546875Q21.0234,39.4765625,21.3047,40.3906275L23.3438,47.4921875Q23.625,48.5468775,23.2031,49.6015375Q22.8516,50.6562375,21.8672,51.2187375L17.8594,53.7500375L20.0391,59.5156375L20.3906,58.671837499999995Q21.2344,56.7734375,22.8516,55.6484375Q24.5391,54.5234375,26.6484,54.5234375L28.125,54.5234375Q29.1094,54.5234375,29.7422,55.1562375Q30.375,55.7890375,30.375,56.7734375Q30.375,57.7578375,29.7422,58.3906375Q29.1094,59.0234375,28.125,59.0234375L26.6484,59.0234375Q25.1719,59.0937375,24.5391,60.4296375L24.1172,61.484337499999995Q22.4297,65.2812375,18.4219,66.6172375L15.0469,67.6718375Q13.8516,68.0234375,12.5859,68.0234375Q9.21094,67.9531375,6.82031,65.6328375L5.13281,64.0156375Q4.5,63.312537500000005,4.5,62.3984375Q4.5,61.484337499999995,5.13281,60.7812375Q5.83594,60.1484375,6.75,60.1484375Q7.66406,60.1484375,8.36719,60.7812375L9.98438,62.3984375ZM7.52344,50.0234375L3.375,50.0234375L7.52344,50.0234375L3.375,50.0234375Q2.39062,50.0234375,1.757812,49.3906375Q1.125,48.7578175,1.125,47.7734375Q1.125,46.7890575,1.757812,46.1562475Q2.39062,45.5234375,3.375,45.5234375L8.29688,45.5234375Q10.40625,45.5937475,11.3906,47.4921875L12.1641,49.3203375L11.5312,49.7422375Q9.63281,50.9375375,8.85938,52.9062375L7.52344,50.0234375Z" fill="#000000" fill-opacity="1" style="mix-blend-mode:passthrough"/></g></g></g></g></svg>