<svg xmlns="http://www.w3.org/2000/svg" xmlns:xlink="http://www.w3.org/1999/xlink" fill="none" version="1.1" width="43.59375" height="36" viewBox="0 0 43.59375 36"><defs><clipPath id="master_svg0_112_0460"><rect x="0" y="0" width="43.59375" height="36" rx="0"/></clipPath></defs><g clip-path="url(#master_svg0_112_0460)"><g transform="matrix(1,0,0,-1,0,72.140625)"><g><path d="M37.5469,53.9297125L37.5469,53.718712499999995L37.5469,53.9297125L37.5469,53.718712499999995L42.4688,58.5703125Q43.5938,59.8359125,43.5938,61.3828125Q43.5938,62.9297125,42.4688,64.1953125L36.9844,69.6797125Q35.7188,70.8047125,34.1719,70.8047125Q32.625,70.8047125,31.3594,69.6797125L28.5469,66.7969125Q28.2656,66.8672125,27.9844,66.8672125L20.1094,66.8672125Q18.1406,66.7969125,16.7344,65.5312125Q15.3281,64.3359125,15.0469,62.3672125L15.0469,53.9297125Q15.0469,52.734412500000005,15.8906,51.9609125Q16.6641,51.1172125,17.8594,51.1172125Q19.0547,51.1172125,19.8281,51.9609125Q20.6719,52.734412500000005,20.6719,53.9297125L20.6719,58.9922125L20.6719,60.1172125L21.7969,60.1172125L31.3594,60.1172125L31.9219,60.1172125Q34.3125,60.046912500000005,35.9297,58.5000125Q37.4766,56.8828125,37.5469,54.4922125L37.5469,53.9297125ZM22.9219,57.8672125L22.9219,53.9297125L22.9219,57.8672125L22.9219,53.9297125Q22.8516,51.7500125,21.4453,50.3437125Q20.0391,48.9375125,17.8594,48.8672125Q15.6797,48.9375125,14.2734,50.3437125Q12.8672,51.7500125,12.7969,53.9297125L12.7969,62.296912500000005Q10.8984,61.9453125,9.42188,60.6797125Q8.01562,59.4141125,7.45312,57.4453125L6.32812,53.4375125L1.125,48.3047125Q0,47.0391125,0,45.4921925Q0,43.9453125,1.125,42.6796925L6.60938,37.1953125Q7.875,36.0703125,9.42188,36.0703125Q10.9688,36.0703125,12.2344,37.1953125L14.8359,39.8671925Q14.9062,39.8671925,14.9766,39.8671925L15.0469,39.8671925L26.2969,39.8671925Q27.7031,39.8671925,28.6875,40.8515625Q29.6016,41.8359325,29.6719,43.2421925Q29.6719,43.8046925,29.4609,44.3671925L29.6719,44.3671925Q31.0781,44.3671925,32.0625,45.3515625Q32.9766,46.3359125,33.0469,47.7422125Q33.0469,49.1484125,32.1328,50.0625125Q33.4688,50.3437125,34.3828,51.3984125Q35.2969,52.4531125,35.2969,53.9297125Q35.2266,55.6172125,34.1719,56.7422125Q33.0469,57.796912500000005,31.3594,57.8672125L22.9219,57.8672125Z" fill="#000000" fill-opacity="1" style="mix-blend-mode:passthrough"/></g></g></g></svg>