<svg xmlns="http://www.w3.org/2000/svg" xmlns:xlink="http://www.w3.org/1999/xlink" fill="none" version="1.1" width="480" height="480" viewBox="0 0 480 480"><defs><clipPath id="master_svg0_103_8481"><rect x="0" y="0" width="480" height="480" rx="0"/></clipPath></defs><g clip-path="url(#master_svg0_103_8481)"><g><path d="M241.80034730529786,58.20004539794922C201.60034730529784,17.99999539794922,141.40034730529786,9.80004539794922,93.00004730529785,33.40004539794922L165.60034730529784,106.00004539794922C173.40034730529786,113.80004539794922,173.40034730529786,126.40034539794922,165.60034730529784,134.2003453979492L133.80034730529786,166.00034539794922C126.00034730529785,174.00034539794922,113.40004730529785,174.00034539794922,105.60004730529785,166.00034539794922L33.000047305297855,93.40004539794921C9.600047305297851,142.00034539794922,17.79999730529785,201.80034539794923,58.000047305297855,242.00034539794922C94.15274730529785,278.03834539794923,148.03634730529785,289.6133453979492,195.80034730529786,271.60034539794924L355.00034730529785,430.80034539794923C375.44234730529786,451.4053453979492,408.75834730529783,451.4053453979492,429.20034730529784,430.80034539794923C449.80534730529786,410.3583453979492,449.80534730529786,377.0423453979492,429.20034730529784,356.60034539794924L270.80034730529786,198.00034539794922C289.20034730529784,151.2003453979492,279.6003473052979,95.99994539794922,241.80034730529786,58.20004539794922Z" fill="#000000" fill-opacity="1" style="mix-blend-mode:passthrough"/></g></g></svg>