<svg xmlns="http://www.w3.org/2000/svg" xmlns:xlink="http://www.w3.org/1999/xlink" fill="none" version="1.1" width="96" height="96" viewBox="0 0 96 96"><g transform="matrix(1,0,0,-1,0,192)"><g><path d="M48,96Q61.125,96.1875,72,102.375Q82.875,108.75,89.625,120Q96,131.4375,96,144Q96,156.5625,89.625,168Q82.875,179.25,72,185.625Q61.125,191.8125,48,192Q34.875,191.8125,24,185.625Q13.125,179.25,6.375,168Q0,156.5625,0,144Q0,131.4375,6.375,120Q13.125,108.75,24,102.375Q34.875,96.1875,48,96ZM48,168Q52.125,167.625,52.5,163.5L52.5,142.5Q52.125,138.375,48,138Q43.875,138.375,43.5,142.5L43.5,163.5Q43.875,167.625,48,168ZM42,126Q42,128.625,43.6875,130.3125Q45.375,132,48,132Q50.625,132,52.3125,130.3125Q54,128.625,54,126Q54,123.375,52.3125,121.6875Q50.625,120,48,120Q45.375,120,43.6875,121.6875Q42,123.375,42,126Z" fill="#000000" fill-opacity="1" style="mix-blend-mode:passthrough"/></g></g></svg>