<svg xmlns="http://www.w3.org/2000/svg" xmlns:xlink="http://www.w3.org/1999/xlink" fill="none" version="1.1" width="336" height="132" viewBox="0 0 336 132"><defs><filter id="master_svg0_140_803" filterUnits="objectBoundingBox" color-interpolation-filters="sRGB" x="0" y="0" width="1" height="1"><feFlood flood-opacity="0" result="BackgroundImageFix"/><feBlend mode="normal" in="SourceGraphic" in2="BackgroundImageFix" result="shape"/><feColorMatrix in="SourceAlpha" type="matrix" result="hardAlpha" values="0 0 0 0 0 0 0 0 0 0 0 0 0 0 0 0 0 0 127 0"/><feOffset dy="4" dx="0"/><feGaussianBlur stdDeviation="5"/><feComposite in2="hardAlpha" operator="arithmetic" k2="-1" k3="1"/><feColorMatrix type="matrix" values="0 0 0 0 0 0 0 0 0 0 0 0 0 0 0 0 0 0 0.30000001192092896 0"/><feBlend mode="normal" in2="shape" result="effect1_innerShadow"/></filter></defs><g filter="url(#master_svg0_140_803)"><path d="M36.6,60Q39.3,56.2,42.1,52.4Q44.9,48.6,47.5,44.7Q50.6,40.3,53.5,35.8Q56.4,31.3,59.4,26.8Q59.9,26,60.65,25.1Q61.4,24.2,62.2,23.9Q63.6,23.4,65.15,23.2Q66.7,23,68.1,23.3Q68.7,23.4,69.25,24.85Q69.8,26.3,69.8,27.4Q69.7,41.2,69.45,55Q69.2,68.8,69,82.6Q69,86,69.2,89.45Q69.4,92.9,69.7,96.3Q69.8,99.3,68.4,101.6Q67,103.9,64.1,104.8Q61.2,105.7,59.1,104.4Q57,103.1,56.5,100.1Q56.3,98.6,56.3,97.05Q56.3,95.5,56.3,94Q56.5,86.2,56.75,78.4Q57,70.6,57.1,62.7Q57.1,61.1,56.9,59.5Q56.7,57.9,56.5,56.3Q56.3,56.3,55.7,56.1Q54.1,57.8,52.55,59.55Q51,61.3,49.6,63.3Q47.5,65.9,45.55,68.65Q43.6,71.4,41.6,74.1Q38.5,78.2,35.7,78.25Q32.9,78.3,29.8,74.1Q27.4,70.8,25.3,67.15Q23.2,63.5,21,60Q20.6,59.4,20.15,58.8Q19.7,58.2,18.8,57.8L18.8,73.4Q18.8,76,18.9,78.7Q19,81.4,19,84.1Q19.1,86,19.15,87.85Q19.2,89.7,19.1,91.6Q19,93.8,18.95,95.9Q18.9,98,18.5,100.1Q18.1,102.4,16.15,103.7Q14.2,105,11.9,104.8Q9.2,104.6,7.55,103.1Q5.9,101.6,5.9,98.9Q5.9,93.8,6.05,88.5Q6.2,83.2,6.3,78Q6.3,76.5,6.45,74.95Q6.6,73.4,6.5,71.8Q6.2,63.2,5.9,54.6Q5.6,46,5.3,37.4Q5.2,35.1,5.45,32.85Q5.7,30.6,5.8,28.4Q5.9,23.8,10.6,23Q15.5,22.1,17.7,26.6Q20.1,31.7,22.45,36.8Q24.8,41.9,27.4,46.9Q29.1,50.3,31.2,53.55Q33.3,56.8,35.2,60L36.6,60ZM58.6,86.8Q58.8,89.6,58.9,92.55Q59,95.5,59.5,98.2Q59.8,99.3,60.9,100.65Q62,102,63,102Q64.1,102,65.25,100.85Q66.4,99.7,67.1,98.6Q67.5,97.9,67.4,96.9Q67.3,95.9,67.1,95Q65.6,90.2,65.9,85.35Q66.2,80.5,66.3,75.6Q66.8,64,67,52.35Q67.2,40.7,67.3,29.1Q67.3,28.1,66.9,26.85Q66.5,25.6,65.5,25.4Q64.5,25.1,63.45,25.95Q62.4,26.8,61.9,27.6Q55.8,36,49.85,44.45Q43.9,52.9,38,61.4Q35.4,65.3,33.1,61.4Q31.1,57.9,29.15,54.45Q27.2,51,25.4,47.5Q22.9,42.8,20.55,37.95Q18.2,33.1,15.6,28.4Q14.9,27,13.65,25.9Q12.4,24.8,10.4,25.5Q8.4,26.2,8.2,27.65Q8,29.1,8.1,30.7Q8.3,37.5,8.5,44.35Q8.7,51.2,8.6,58Q8.6,67.8,8.25,77.6Q7.9,87.4,7.6,97.2Q7.5,99.4,8.65,101.05Q9.8,102.7,11.4,102.9Q13.4,103,15.05,101.65Q16.7,100.3,16.8,98.1Q17,97,16.9,96.05Q16.8,95.1,16.7,94.1Q16.5,90,16.15,85.9Q15.8,81.8,15.7,77.7Q15.4,72.1,15.25,66.55Q15.1,61,15,55.5Q15,54.6,15.35,53.3Q15.7,52,16.7,51.7Q17.6,51.4,18.45,52.2Q19.3,53,19.7,53.8Q22.8,58.4,25.7,63.05Q28.6,67.7,31.7,72.4Q35.4,78,39.5,72.9Q43.2,68.2,46.75,63.6Q50.3,59,54,54.4Q55.1,53,56.1,52.1Q57.2,51.1,58,51.5Q58.8,51.9,59.1,53.2Q59.3,53.9,59.35,54.7Q59.4,55.5,59.4,56.3Q59.4,59.3,59.35,63.3Q59.3,67.3,59.2,71.4Q59.1,75.5,59,79Q58.9,82.5,58.8,84.65Q58.7,86.8,58.6,86.8ZM114.5,74.9Q115,81.2,113.35,86.6Q111.7,92,109.1,96.9Q106.5,101.7,102.35,104Q98.2,106.3,93.2,105.6Q87,104.8,82.9,101.3Q78.8,97.8,77.9,92.4Q77.1,87.8,77.05,83.15Q77,78.5,78,73.9Q78.6,71.4,79.1,69.25Q79.6,67.1,80.3,64.9Q81.9,59.1,86.35,56.15Q90.8,53.2,96.9,53.9Q98.5,54,100.1,54.4Q101.7,54.8,103.2,55.2Q106.9,56.2,109.3,58.5Q111.7,60.8,112.4,64.5Q113.1,67.4,113.75,70.1Q114.4,72.8,114.5,74.9ZM81,77.1Q80.7,79.8,80.6,82.6Q80.5,85.4,80.5,88.3Q80.4,94.4,84.8,99.3Q86.8,101.6,89.85,102.65Q92.9,103.7,96.15,103.5Q99.4,103.3,102.15,101.9Q104.9,100.5,106.3,97.8Q109.6,91.6,111.1,84.9Q112.6,78.2,111.3,71.1Q110.5,66.5,108.7,63Q106.9,59.5,103.55,57.6Q100.2,55.7,94.4,56.1Q90.7,56.3,88.15,58.15Q85.6,60,84,63.2Q83.5,64.3,83.1,65.5Q82.7,66.7,82.3,68Q82,68.9,81.7,70.8Q81.4,72.7,81.25,74.55Q81.1,76.4,81,77.1ZM108,75Q108.2,80.8,107.05,86.3Q105.9,91.8,102.7,96.7Q101.1,99.2,98.75,100.15Q96.4,101.1,92.8,100.4Q89.5,99.8,87.3,97.95Q85.1,96.1,84.6,93.4Q83.2,86,84.05,78.9Q84.9,71.8,87.6,64.8Q89.4,60.1,94.4,59.9Q95.8,59.9,97.05,59.9Q98.3,59.9,99.6,60.1Q102.8,60.6,104.55,62.55Q106.3,64.5,107,67Q107.7,69.5,107.85,71.7Q108,73.9,108,75ZM105.9,74.9Q105.8,73.1,105.4,70.75Q105,68.4,104,66.25Q103,64.1,101,62.9Q98.8,61.5,96.15,62Q93.5,62.5,91.4,64.3Q89.3,66.1,88.6,68.7Q87,74.6,86.5,80.05Q86,85.5,86.7,91.7Q87,94.2,87.85,95.4Q88.7,96.6,90.9,97.7Q93.1,98.7,95.3,98.45Q97.5,98.2,99.1,96.7Q100.5,95.3,101.3,93.85Q102.1,92.4,102.7,90.5Q103.8,86.9,105.05,83.05Q106.3,79.2,105.9,74.9ZM135.1,62.4Q135,63.3,135.8,63.75Q136.6,64.2,137.3,63.7Q138.2,63.1,138.65,62.9Q139.1,62.7,139.75,62.15Q140.4,61.6,141.8,60.1Q144.9,56.6,147.45,53.45Q150,50.3,153.1,46.9Q154.5,45.2,157.2,44.7Q159.9,44.2,161.5,45.1Q162.5,45.6,163.45,46.6Q164.4,47.6,164.45,49.05Q164.5,50.5,162.7,52.6Q161,54.5,158.55,56.8Q156.1,59.1,154.8,60.5Q153.5,62.1,152.5,64.25Q151.5,66.4,152,69Q153.3,74.8,154.5,80.55Q155.7,86.3,156.8,92.2Q157.3,94.4,157.65,96.75Q158,99.1,158.2,101.4Q158.4,103,157.5,104.3Q156.6,105.6,155,106.1Q153.8,106.5,152.4,106.25Q151,106,149.9,104.1Q148.7,102.1,148.15,99.9Q147.6,97.7,147.1,95.5Q146.1,90.5,145.3,85.45Q144.5,80.4,143.6,75.3Q143.4,74.2,143.2,72.85Q143,71.5,141,71.6Q139.5,71.7,137.9,73.2Q136.3,74.7,136.2,76.2Q136.1,77.8,136.15,79.6Q136.2,81.4,136.1,83.1Q135.7,87.7,135.25,92.25Q134.8,96.8,134.3,101.3Q133.9,104.2,132.75,105.25Q131.6,106.3,129.5,106.1Q124.9,105.6,124.9,100.5Q125,93.7,125.15,86.9Q125.3,80.1,125.4,73.3Q125.5,68.1,125.5,63Q125.5,57.9,125.6,52.7Q125.6,51.6,125.65,49Q125.7,46.4,125.85,43.05Q126,39.7,126.1,36.4Q126.2,33.1,126.3,30.45Q126.4,27.8,126.4,26.7Q126.6,24.8,127.45,23.4Q128.3,22,130.1,21.3Q132.7,20.3,134.55,21.3Q136.4,22.3,136.3,25.1Q136.3,27.1,136.25,30.6Q136.2,34.1,136.05,38.35Q135.9,42.6,135.75,46.85Q135.6,51.1,135.5,54.6Q135.4,58.1,135.3,60.1Q135.3,60.5,135.2,61.15Q135.1,61.8,135.1,62.4ZM160.4,52.1Q161.6,50.3,161.5,49.3Q161.4,48.3,160.65,47.8Q159.9,47.3,159.1,47.2Q158.1,47,157,47.45Q155.9,47.9,154.2,49.45Q152.5,51,149.5,54.3Q147.4,56.8,146,58.65Q144.6,60.5,143,62.3Q141.4,64.1,138.6,66.3Q138,66.8,136.2,66.85Q134.4,66.9,133.5,66.5Q132.8,66,132.7,65.4Q132.6,64.8,132.6,64.1Q132.8,61.2,133,58.3Q133.2,55.4,133.4,52.6Q133.5,51.5,133.6,48.9Q133.7,46.3,133.85,43Q134,39.7,134.1,36.4Q134.2,33.1,134.3,30.5Q134.4,27.9,134.4,26.9Q134.4,26.1,134.1,24.95Q133.8,23.8,132.6,23.8Q131.1,23.8,130.45,24.3Q129.8,24.8,129.1,25.5Q128.7,26.1,128.6,26.95Q128.5,27.8,128.4,28.5Q128.4,29.4,128.35,31.8Q128.3,34.2,128.2,37.3Q128.1,40.4,128.05,43.5Q128,46.6,127.95,49Q127.9,51.4,127.9,52.3Q127.8,58.9,127.7,65.5Q127.6,72.1,127.4,78.7Q127.3,84.2,127.15,89.7Q127,95.2,126.9,100.6Q126.9,101.9,127.4,102.95Q127.9,104,129.7,103.9Q131.2,103.8,131.8,102.9Q132.4,102,132.5,100.6Q132.7,95.4,132.95,90.05Q133.2,84.7,133,79.4Q132.8,75.8,134.15,73.65Q135.5,71.5,138.4,70Q141.1,68.5,143.3,69.4Q145.5,70.3,145.9,73.4Q146.4,76.6,146.9,79.85Q147.4,83.1,147.8,86.3Q148.5,90.2,149.15,93.95Q149.8,97.7,150.7,101.4Q150.9,102.9,151.75,103.95Q152.6,105,154.4,104.5Q156.2,104,156.55,102.7Q156.9,101.4,156.6,99.9Q156.4,98.5,155.95,97Q155.5,95.5,155.2,94.2Q153.9,87.3,152.45,80.45Q151,73.6,149.7,66.7Q149.5,65.6,150,64Q150.5,62.4,152.3,60.3Q154.3,57.9,156.45,56.25Q158.6,54.6,160.4,52.1ZM185.4,62.4Q185.3,63.3,186.1,63.75Q186.9,64.2,187.6,63.7Q188.5,63.1,188.95,62.9Q189.4,62.7,190.05,62.15Q190.7,61.6,192.1,60.1Q195.2,56.6,197.75,53.45Q200.3,50.3,203.4,46.9Q204.8,45.2,207.5,44.7Q210.2,44.2,211.8,45.1Q212.8,45.6,213.75,46.6Q214.7,47.6,214.75,49.05Q214.8,50.5,213,52.6Q211.3,54.5,208.85,56.8Q206.4,59.1,205.1,60.5Q203.8,62.1,202.8,64.25Q201.8,66.4,202.3,69Q203.6,74.8,204.8,80.55Q206,86.3,207.1,92.2Q207.6,94.4,207.95,96.75Q208.3,99.1,208.5,101.4Q208.7,103,207.8,104.3Q206.9,105.6,205.3,106.1Q204.1,106.5,202.7,106.25Q201.3,106,200.2,104.1Q199,102.1,198.45,99.9Q197.9,97.7,197.4,95.5Q196.4,90.5,195.6,85.45Q194.8,80.4,193.9,75.3Q193.7,74.2,193.5,72.85Q193.3,71.5,191.3,71.6Q189.8,71.7,188.2,73.2Q186.6,74.7,186.5,76.2Q186.4,77.8,186.45,79.6Q186.5,81.4,186.4,83.1Q186,87.7,185.55,92.25Q185.1,96.8,184.6,101.3Q184.2,104.2,183.05,105.25Q181.9,106.3,179.8,106.1Q175.2,105.6,175.2,100.5Q175.3,93.7,175.45,86.9Q175.6,80.1,175.7,73.3Q175.8,68.1,175.8,63Q175.8,57.9,175.9,52.7Q175.9,51.6,175.95,49Q176,46.4,176.15,43.05Q176.3,39.7,176.4,36.4Q176.5,33.1,176.6,30.45Q176.7,27.8,176.7,26.7Q176.9,24.8,177.75,23.4Q178.6,22,180.4,21.3Q183,20.3,184.85,21.3Q186.7,22.3,186.6,25.1Q186.6,27.1,186.55,30.6Q186.5,34.1,186.35,38.35Q186.2,42.6,186.05,46.85Q185.9,51.1,185.8,54.6Q185.7,58.1,185.6,60.1Q185.6,60.5,185.5,61.15Q185.4,61.8,185.4,62.4ZM210.7,52.1Q211.9,50.3,211.8,49.3Q211.7,48.3,210.95,47.8Q210.2,47.3,209.4,47.2Q208.4,47,207.3,47.45Q206.2,47.9,204.5,49.45Q202.8,51,199.8,54.3Q197.7,56.8,196.3,58.65Q194.9,60.5,193.3,62.3Q191.7,64.1,188.9,66.3Q188.3,66.8,186.5,66.85Q184.7,66.9,183.8,66.5Q183.1,66,183,65.4Q182.9,64.8,182.9,64.1Q183.1,61.2,183.3,58.3Q183.5,55.4,183.7,52.6Q183.8,51.5,183.9,48.9Q184,46.3,184.15,43Q184.3,39.7,184.4,36.4Q184.5,33.1,184.6,30.5Q184.7,27.9,184.7,26.9Q184.7,26.1,184.4,24.95Q184.1,23.8,182.9,23.8Q181.4,23.8,180.75,24.3Q180.1,24.8,179.4,25.5Q179,26.1,178.9,26.95Q178.8,27.8,178.7,28.5Q178.7,29.4,178.65,31.8Q178.6,34.2,178.5,37.3Q178.4,40.4,178.35,43.5Q178.3,46.6,178.25,49Q178.2,51.4,178.2,52.3Q178.1,58.9,178,65.5Q177.9,72.1,177.7,78.7Q177.6,84.2,177.45,89.7Q177.3,95.2,177.2,100.6Q177.2,101.9,177.7,102.95Q178.2,104,180,103.9Q181.5,103.8,182.1,102.9Q182.7,102,182.8,100.6Q183,95.4,183.25,90.05Q183.5,84.7,183.3,79.4Q183.1,75.8,184.45,73.65Q185.8,71.5,188.7,70Q191.4,68.5,193.6,69.4Q195.8,70.3,196.2,73.4Q196.7,76.6,197.2,79.85Q197.7,83.1,198.1,86.3Q198.8,90.2,199.45,93.95Q200.1,97.7,201,101.4Q201.2,102.9,202.05,103.95Q202.9,105,204.7,104.5Q206.5,104,206.85,102.7Q207.2,101.4,206.9,99.9Q206.7,98.5,206.25,97Q205.8,95.5,205.5,94.2Q204.2,87.3,202.75,80.45Q201.3,73.6,200,66.7Q199.8,65.6,200.3,64Q200.8,62.4,202.6,60.3Q204.6,57.9,206.75,56.25Q208.9,54.6,210.7,52.1ZM257.4,74.9Q257.9,81.2,256.25,86.6Q254.6,92,252,96.9Q249.4,101.7,245.25,104Q241.1,106.3,236.1,105.6Q229.9,104.8,225.8,101.3Q221.7,97.8,220.8,92.4Q220,87.8,219.95,83.15Q219.9,78.5,220.9,73.9Q221.5,71.4,222,69.25Q222.5,67.1,223.2,64.9Q224.8,59.1,229.25,56.15Q233.7,53.2,239.8,53.9Q241.4,54,243,54.4Q244.6,54.8,246.1,55.2Q249.8,56.2,252.2,58.5Q254.6,60.8,255.3,64.5Q256,67.4,256.65,70.1Q257.3,72.8,257.4,74.9ZM223.9,77.1Q223.6,79.8,223.5,82.6Q223.4,85.4,223.4,88.3Q223.3,94.4,227.7,99.3Q229.7,101.6,232.75,102.65Q235.8,103.7,239.05,103.5Q242.3,103.3,245.05,101.9Q247.8,100.5,249.2,97.8Q252.5,91.6,254,84.9Q255.5,78.2,254.2,71.1Q253.4,66.5,251.6,63Q249.8,59.5,246.45,57.6Q243.1,55.7,237.3,56.1Q233.6,56.3,231.05,58.15Q228.5,60,226.9,63.2Q226.4,64.3,226,65.5Q225.6,66.7,225.2,68Q224.9,68.9,224.6,70.8Q224.3,72.7,224.15,74.55Q224,76.4,223.9,77.1ZM250.9,75Q251.1,80.8,249.95,86.3Q248.8,91.8,245.6,96.7Q244,99.2,241.65,100.15Q239.3,101.1,235.7,100.4Q232.4,99.8,230.2,97.95Q228,96.1,227.5,93.4Q226.1,86,226.95,78.9Q227.8,71.8,230.5,64.8Q232.3,60.1,237.3,59.9Q238.7,59.9,239.95,59.9Q241.2,59.9,242.5,60.1Q245.7,60.6,247.45,62.55Q249.2,64.5,249.9,67Q250.6,69.5,250.75,71.7Q250.9,73.9,250.9,75ZM248.8,74.9Q248.7,73.1,248.3,70.75Q247.9,68.4,246.9,66.25Q245.9,64.1,243.9,62.9Q241.7,61.5,239.05,62Q236.4,62.5,234.3,64.3Q232.2,66.1,231.5,68.7Q229.9,74.6,229.4,80.05Q228.9,85.5,229.6,91.7Q229.9,94.2,230.75,95.4Q231.6,96.6,233.8,97.7Q236,98.7,238.2,98.45Q240.4,98.2,242,96.7Q243.4,95.3,244.2,93.85Q245,92.4,245.6,90.5Q246.7,86.9,247.95,83.05Q249.2,79.2,248.8,74.9ZM294,38.9Q296.9,38.9,298.7,40.45Q300.5,42,300.5,44.4Q300.5,47.7,298.35,50.4Q296.2,53.1,293.3,53.1Q290.5,53.1,288.4,50.85Q286.3,48.6,286.4,45.6Q286.4,42.7,288.65,40.75Q290.9,38.8,294,38.9ZM293.2,50.7Q295.4,50.6,296.6,49Q297.8,47.4,297.9,45Q297.9,42.8,296.75,42Q295.6,41.2,293.6,41.2Q291.4,41.2,290.15,42.7Q288.9,44.2,289,46.5Q289.3,50.5,293.2,50.7ZM290,85.3Q290,81.3,289.95,77.3Q289.9,73.3,290,69.3Q290,67.8,290.4,66.35Q290.8,64.9,293,64.6Q295.3,64.2,297.4,65.3Q299.5,66.4,300,68.3Q300.3,69.3,300.4,70.35Q300.5,71.4,300.5,72.5Q300.4,81.3,300.2,89.95Q300,98.6,299.7,107.3Q299.5,113.2,297.4,116.7Q295.3,120.2,289.3,120.8Q287.4,120.9,284.25,120.95Q281.1,121,279.1,120.6Q272.1,119.7,268.5,115.65Q264.9,111.6,263.5,102.4Q263.3,100.7,263.4,98.9Q263.5,97.1,264.2,95.7Q264.7,94.6,266.1,93.75Q267.5,92.9,268.7,92.9Q269.6,92.9,270.6,94.15Q271.6,95.4,272.1,96.5Q272.7,97.9,272.95,99.55Q273.2,101.2,273.5,102.8Q274.2,106.2,275.95,108.55Q277.7,110.9,280.8,111.6Q283.2,112.2,285.8,111.25Q288.4,110.3,289.1,107.9Q289.6,106,289.65,103.65Q289.7,101.3,289.8,99.4Q289.9,97.6,289.95,95.25Q290,92.9,290,90.6Q290,88.3,290,86.8Q290,85.3,290,85.3ZM292.1,104.5Q292,112.7,285.5,114Q281.2,114.9,277.7,113.35Q274.2,111.8,272.8,108.1Q272,106.1,271.75,103.85Q271.5,101.6,270.8,99.4Q270.5,98.3,269.9,96.85Q269.3,95.4,268.1,95.6Q267.1,95.6,266.6,97Q266.1,98.4,265.9,99.4Q265.3,105,267.25,109.35Q269.2,113.7,273.25,116.15Q277.3,118.6,282.9,118.7Q288.6,118.8,291.8,117.55Q295,116.3,296.3,113.2Q297.6,110.1,297.6,104.6Q297.7,96.3,297.8,88.1Q297.9,79.9,297.9,71.7Q297.9,70.9,297.8,70.1Q297.7,69.3,297.4,68.7Q296.5,67.4,295.4,67.2Q294,66.9,293.25,67.55Q292.5,68.2,292.3,68.7Q292,70.3,292.15,72.05Q292.3,73.8,292.3,75.5Q292.3,76.5,292.3,79.15Q292.3,81.8,292.3,85.3Q292.3,88.8,292.25,92.5Q292.2,96.2,292.15,99.4Q292.1,102.6,292.1,104.5ZM311.4,30.2Q311.5,26.7,313.45,24.35Q315.4,22,318.2,22.1Q319.9,22.1,321.55,23.2Q323.2,24.3,324.3,25.95Q325.4,27.6,325.4,29.4Q325.5,31.4,324.3,33.3Q323.1,35.2,321.3,36.4Q319.5,37.6,317.5,37.7Q314.8,37.7,313.1,35.65Q311.4,33.6,311.4,30.2ZM313.9,30.2Q313.8,35.2,317.3,35.3Q319.5,35.4,321.15,33.7Q322.8,32,322.9,29.7Q322.9,27.7,321.45,26.1Q320,24.5,318.2,24.5Q316.3,24.4,315.2,25.95Q314.1,27.5,313.9,30.2ZM312.3,59.8Q312.8,56.3,314.4,55Q316,53.7,318.3,54Q321.1,54.4,322.5,56.4Q323.9,58.4,323.9,61.7Q323.8,67.7,323.95,73.75Q324.1,79.8,324,85.8Q323.9,89.3,323.7,92.7Q323.5,96.1,323.3,99.6Q323.2,102.1,321.4,103.95Q319.6,105.8,317.3,106Q314.5,106.2,313.4,104.6Q312.3,103,311.8,100.8Q311.4,99,311.25,97.1Q311.1,95.2,311.1,93.3Q311,90.2,311,87.15Q311,84.1,311,81Q311,81,311.05,78.75Q311.1,76.5,311.25,73.05Q311.4,69.6,311.7,66Q312,62.4,312.3,59.8ZM320.8,66.8Q320.8,65.1,320.85,63.4Q320.9,61.7,320.7,60.1Q320.6,59.5,319.95,58.8Q319.3,58.1,318.7,58Q318.5,57.9,317.7,57.7Q316.9,57.5,316,57.7Q315.1,57.9,314.5,59.1Q313.9,60.3,313.9,63.2Q314,68.4,314.05,73.45Q314.1,78.5,313.9,83.8Q313.8,87.2,313.8,91.3Q313.8,95.4,314,98.7Q314.1,99.7,314.2,101Q314.3,102.3,314.9,103.2Q315.5,104.1,317.2,104Q318.7,103.9,319.3,103Q319.9,102.1,320.05,100.8Q320.2,99.5,320.2,98.5Q320.2,95.4,320.25,91.25Q320.3,87.1,320.4,82.85Q320.5,78.6,320.55,74.95Q320.6,71.3,320.65,69.05Q320.7,66.8,320.8,66.8Z" fill="#000000" fill-opacity="1"/><path d="M186.59,62.8784Q186.367,62.7528,186.394,62.5104L186.4,62.4554L186.4,62.4Q186.4,61.8765,186.488,61.3021Q186.597,60.5967,186.6,60.1268Q186.7,58.1188,186.799,54.6322L187.049,46.8853L187.349,38.3853Q187.5,34.1247,187.55,30.6143Q187.6,27.1228,187.6,25.1176Q187.715,21.712,185.326,20.4203Q183.071,19.2014,180.038,20.368Q177.921,21.191,176.895,22.881Q175.929,24.4726,175.705,26.5953L175.7,26.6475L175.7,26.7Q175.7,27.7806,175.601,30.4164L175.4,36.3697Q175.301,39.6597,175.151,43.0053Q175,46.3694,174.95,48.9808Q174.9,51.5909,174.9,52.6808Q174.8,57.8893,174.8,63Q174.8,68.0892,174.7,73.2816L174.45,86.8816L174.2,100.5Q174.2,106.497,179.705,107.095Q182.247,107.338,183.724,105.988Q185.141,104.695,185.591,101.437L185.592,101.424L185.594,101.41Q186.094,96.907,186.545,92.3484Q186.996,87.7895,187.396,83.1866L187.397,83.1727L187.398,83.1587Q187.501,81.4156,187.45,79.5722Q187.401,77.8171,187.498,76.2665Q187.572,75.1599,188.884,73.9295Q190.223,72.674,191.35,72.5988Q192.444,72.5441,192.511,72.9965Q192.713,74.3628,192.915,75.4738Q193.814,80.568,194.612,85.6065Q195.415,90.6766,196.419,95.6961L196.422,95.7089L196.425,95.7216Q196.927,97.9308,197.48,100.1425Q198.066,102.487,199.335,104.601Q200.667,106.903,202.524,107.234Q204.175,107.529,205.598,107.054Q207.526,106.452,208.622,104.869Q209.734,103.263,209.495,101.296Q209.292,98.9736,208.939,96.6027Q208.585,94.2254,208.079,91.9973Q206.979,86.0983,205.779,80.3457Q204.58,74.6001,203.279,68.7968Q202.846,66.5228,203.707,64.6717Q204.646,62.6515,205.855,61.1561Q207.131,59.7854,209.534,57.5291Q212.016,55.199,213.759,53.2508Q215.813,50.855,215.749,49.0155Q215.686,47.1864,214.475,45.9113Q213.414,44.7945,212.269,44.2163Q210.357,43.1539,207.318,43.7167Q204.275,44.2802,202.645,46.2443Q199.534,49.6568,196.973,52.8208Q194.441,55.9481,191.36,59.4273Q190.007,60.8763,189.404,61.3866Q188.863,61.8442,188.544,61.9862Q188.016,62.2207,187.045,62.8679L187.032,62.8769L187.019,62.8863Q186.836,63.0167,186.59,62.8784ZM192.1,60.1Q190.7,61.6,190.05,62.15Q189.4,62.7,188.95,62.9Q188.5,63.1,187.6,63.7Q186.9,64.2,186.1,63.75Q185.3,63.3,185.4,62.4Q185.4,61.8,185.5,61.15Q185.6,60.5,185.6,60.1Q185.7,58.1,185.8,54.6Q185.9,51.1,186.05,46.85L186.35,38.35Q186.5,34.1,186.55,30.6Q186.6,27.1,186.6,25.1Q186.7,22.3,184.85,21.3Q183,20.3,180.4,21.3Q178.6,22,177.75,23.4Q176.9,24.8,176.7,26.7Q176.7,27.8,176.6,30.45Q176.5,33.1,176.4,36.4Q176.3,39.7,176.15,43.05Q176,46.4,175.95,49Q175.9,51.6,175.9,52.7Q175.8,57.9,175.8,63Q175.8,68.1,175.7,73.3Q175.6,80.1,175.45,86.9Q175.3,93.7,175.2,100.5Q175.2,105.6,179.8,106.1Q181.9,106.3,183.05,105.25Q184.2,104.2,184.6,101.3Q185.1,96.8,185.55,92.25Q186,87.7,186.4,83.1Q186.5,81.4,186.45,79.6Q186.4,77.8,186.5,76.2Q186.6,74.7,188.2,73.2Q189.8,71.7,191.3,71.6Q193.3,71.5,193.5,72.85Q193.7,74.2,193.9,75.3Q194.8,80.4,195.6,85.45Q196.4,90.5,197.4,95.5Q197.9,97.7,198.45,99.9Q199,102.1,200.2,104.1Q201.3,106,202.7,106.25Q204.1,106.5,205.3,106.1Q206.9,105.6,207.8,104.3Q208.7,103,208.5,101.4Q208.3,99.1,207.95,96.75Q207.6,94.4,207.1,92.2Q206,86.3,204.8,80.55Q203.6,74.8,202.3,69Q201.8,66.4,202.8,64.25Q203.8,62.1,205.1,60.5Q206.4,59.1,208.85,56.8Q211.3,54.5,213,52.6Q214.8,50.5,214.75,49.05Q214.7,47.6,213.75,46.6Q212.8,45.6,211.8,45.1Q210.2,44.2,207.5,44.7Q204.8,45.2,203.4,46.9Q200.3,50.3,197.75,53.45Q195.2,56.6,192.1,60.1ZM205.5,94.2Q204.2,87.3,202.75,80.45Q201.3,73.6,200,66.7Q199.8,65.6,200.3,64Q200.8,62.4,202.6,60.3Q204.6,57.9,206.75,56.25Q208.9,54.6,210.7,52.1Q211.9,50.3,211.8,49.3Q211.7,48.3,210.95,47.8Q210.2,47.3,209.4,47.2Q208.4,47,207.3,47.45Q206.2,47.9,204.5,49.45Q202.8,51,199.8,54.3Q197.7,56.8,196.3,58.65Q194.9,60.5,193.3,62.3Q191.7,64.1,188.9,66.3Q188.3,66.8,186.5,66.85Q184.7,66.9,183.8,66.5Q183.1,66,183,65.4Q182.9,64.8,182.9,64.1L183.3,58.3Q183.5,55.4,183.7,52.6Q183.8,51.5,183.9,48.9Q184,46.3,184.15,43Q184.3,39.7,184.4,36.4Q184.5,33.1,184.6,30.5Q184.7,27.9,184.7,26.9Q184.7,26.1,184.4,24.95Q184.1,23.8,182.9,23.8Q181.4,23.8,180.75,24.3Q180.1,24.8,179.4,25.5Q179,26.1,178.9,26.95Q178.8,27.8,178.7,28.5Q178.7,29.4,178.65,31.8Q178.6,34.2,178.5,37.3Q178.4,40.4,178.35,43.5Q178.3,46.6,178.25,49Q178.2,51.4,178.2,52.3L178,65.5Q177.9,72.1,177.7,78.7Q177.6,84.2,177.45,89.7Q177.3,95.2,177.2,100.6Q177.2,101.9,177.7,102.95Q178.2,104,180,103.9Q181.5,103.8,182.1,102.9Q182.7,102,182.8,100.6Q183,95.4,183.25,90.05Q183.5,84.7,183.3,79.4Q183.1,75.8,184.45,73.65Q185.8,71.5,188.7,70Q191.4,68.5,193.6,69.4Q195.8,70.3,196.2,73.4Q196.7,76.6,197.2,79.85Q197.7,83.1,198.1,86.3Q198.8,90.2,199.45,93.95Q200.1,97.7,201,101.4Q201.2,102.9,202.05,103.95Q202.9,105,204.7,104.5Q206.5,104,206.85,102.7Q207.2,101.4,206.9,99.9Q206.7,98.5,206.25,97Q205.8,95.5,205.5,94.2ZM199.089,86.1508L200.435,93.7762Q201.08,97.4966,201.972,101.164L201.984,101.215L201.991,101.268Q202.154,102.489,202.827,103.321Q203.264,103.861,204.432,103.536Q205.683,103.189,205.884,102.44Q206.173,101.366,205.919,100.0961L205.914,100.0689L205.91,100.0414Q205.721,98.7156,205.292,97.2873Q204.833,95.7564,204.526,94.4249L204.521,94.4051L204.517,94.3851Q203.22,87.4975,201.772,80.6571Q200.319,73.7939,199.017,66.8851Q198.772,65.5366,199.346,63.7017Q199.907,61.9054,201.841,59.6492Q203.903,57.1744,206.141,55.4567Q208.168,53.9012,209.878,51.5306Q210.869,50.04,210.805,49.3995Q210.752,48.8699,210.395,48.632Q209.842,48.263,209.276,48.1923L209.24,48.1878L209.204,48.1806Q208.5,48.0397,207.679,48.3755Q206.743,48.7584,205.174,50.189Q203.512,51.704,200.553,54.9583Q198.477,57.4298,197.097,59.2534Q195.673,61.1351,194.047,62.9644Q192.391,64.828,189.527,67.0789Q188.658,67.7905,186.528,67.8496Q184.501,67.9059,183.394,67.4138L183.301,67.3727L183.219,67.3137Q182.182,66.573,182.014,65.5644Q181.9,64.8828,181.9,64.1L181.9,64.0656L182.302,58.2312L182.702,52.53Q182.802,51.4361,182.901,48.8616L183.151,42.9577Q183.301,39.6591,183.4,36.3697L183.601,30.4661Q183.7,27.8806,183.7,26.9Q183.7,26.2283,183.432,25.2024Q183.327,24.8,182.9,24.8Q181.74,24.8,181.36,25.0926Q180.797,25.5256,180.185,26.1301Q179.958,26.5113,179.893,27.0669Q179.797,27.8864,179.7,28.5712Q179.698,29.5022,179.65,31.8208Q179.6,34.2302,179.499,37.3322Q179.4,40.4249,179.35,43.5161L179.25,49.0182Q179.2,51.41,179.2,52.3L179,65.5152Q178.9,72.1272,178.7,78.7303Q178.6,84.2165,178.45,89.7273L178.2,100.6L178.2,100.6109Q178.202,101.678,178.603,102.52Q178.814,102.964,179.945,102.902Q180.941,102.835,181.268,102.345Q181.719,101.669,181.802,100.5423L182.251,90.0074Q182.499,84.6957,182.301,79.4377Q182.084,75.5378,183.603,73.1182Q185.095,70.742,188.228,69.1185Q191.34,67.3949,193.979,68.4745Q196.708,69.591,197.188,73.2467L197.19,73.2589L198.188,79.6968Q198.688,82.9477,199.089,86.1508ZM136.29,62.8784Q136.067,62.7528,136.094,62.5104L136.1,62.4554L136.1,62.4Q136.1,61.8765,136.188,61.3021Q136.297,60.5965,136.3,60.1266Q136.4,58.119,136.499,54.6322L136.749,46.8853L137.049,38.3853Q137.2,34.1231,137.25,30.6143Q137.3,27.1225,137.3,25.1173Q137.415,21.7119,135.026,20.4203Q132.771,19.2014,129.738,20.368Q127.621,21.191,126.595,22.881Q125.629,24.4725,125.405,26.5953L125.4,26.6475L125.4,26.7Q125.4,27.7813,125.301,30.4164L125.1,36.3697Q125.001,39.6627,124.851,43.0053Q124.7,46.3685,124.65,48.9808Q124.6,51.5903,124.6,52.6808Q124.5,57.8909,124.5,63Q124.5,68.0902,124.4,73.2816L124.15,86.8816L123.9,100.5Q123.9,106.497,129.405,107.095Q131.947,107.338,133.424,105.988Q134.841,104.695,135.291,101.437L135.292,101.424L135.294,101.41Q135.795,96.9032,136.245,92.3484Q136.696,87.7925,137.096,83.1866L137.097,83.1727L137.098,83.1587Q137.201,81.4155,137.15,79.5722Q137.101,77.8175,137.198,76.2665Q137.272,75.1599,138.584,73.9295Q139.923,72.674,141.05,72.5988Q142.144,72.5441,142.211,72.9966Q142.413,74.3623,142.615,75.4738Q143.514,80.5646,144.312,85.6065Q145.115,90.6761,146.119,95.6961L146.122,95.7089L146.125,95.7216Q146.627,97.9321,147.18,100.1425Q147.766,102.487,149.035,104.601Q150.367,106.903,152.224,107.234Q153.875,107.529,155.298,107.054Q157.226,106.452,158.322,104.869Q159.434,103.263,159.195,101.295Q158.992,98.9733,158.639,96.6027Q158.285,94.2254,157.78,91.9977Q156.679,86.0974,155.479,80.3457Q154.279,74.5968,152.979,68.7966Q152.546,66.5227,153.407,64.6717Q154.346,62.6514,155.556,61.156Q156.831,59.7855,159.234,57.5291Q161.716,55.1993,163.459,53.2508Q165.513,50.855,165.449,49.0155Q165.386,47.1863,164.175,45.9113Q163.114,44.7944,161.969,44.2163Q160.057,43.1539,157.018,43.7167Q153.975,44.2802,152.345,46.2442Q149.235,49.6561,146.673,52.8208Q144.14,55.9494,141.06,59.4271Q139.707,60.8762,139.104,61.3866Q138.563,61.8443,138.244,61.9862Q137.716,62.2207,136.745,62.8679L136.732,62.8769L136.719,62.8863Q136.536,63.0167,136.29,62.8784ZM141.8,60.1Q140.4,61.6,139.75,62.15Q139.1,62.7,138.65,62.9Q138.2,63.1,137.3,63.7Q136.6,64.2,135.8,63.75Q135,63.3,135.1,62.4Q135.1,61.8,135.2,61.15Q135.3,60.5,135.3,60.1Q135.4,58.1,135.5,54.6Q135.6,51.1,135.75,46.85L136.05,38.35Q136.2,34.1,136.25,30.6Q136.3,27.1,136.3,25.1Q136.4,22.3,134.55,21.3Q132.7,20.3,130.1,21.3Q128.3,22,127.45,23.4Q126.6,24.8,126.4,26.7Q126.4,27.8,126.3,30.45Q126.2,33.1,126.1,36.4Q126,39.7,125.85,43.05Q125.7,46.4,125.65,49Q125.6,51.6,125.6,52.7Q125.5,57.9,125.5,63Q125.5,68.1,125.4,73.3Q125.3,80.1,125.15,86.9Q125,93.7,124.9,100.5Q124.9,105.6,129.5,106.1Q131.6,106.3,132.75,105.25Q133.9,104.2,134.3,101.3Q134.8,96.8,135.25,92.25Q135.7,87.7,136.1,83.1Q136.2,81.4,136.15,79.6Q136.1,77.8,136.2,76.2Q136.3,74.7,137.9,73.2Q139.5,71.7,141,71.6Q143,71.5,143.2,72.85Q143.4,74.2,143.6,75.3Q144.5,80.4,145.3,85.45Q146.1,90.5,147.1,95.5Q147.6,97.7,148.15,99.9Q148.7,102.1,149.9,104.1Q151,106,152.4,106.25Q153.8,106.5,155,106.1Q156.6,105.6,157.5,104.3Q158.4,103,158.2,101.4Q158,99.1,157.65,96.75Q157.3,94.4,156.8,92.2Q155.7,86.3,154.5,80.55Q153.3,74.8,152,69Q151.5,66.4,152.5,64.25Q153.5,62.1,154.8,60.5Q156.1,59.1,158.55,56.8Q161,54.5,162.7,52.6Q164.5,50.5,164.45,49.05Q164.4,47.6,163.45,46.6Q162.5,45.6,161.5,45.1Q159.9,44.2,157.2,44.7Q154.5,45.2,153.1,46.9Q150,50.3,147.45,53.45Q144.9,56.6,141.8,60.1ZM155.2,94.2Q153.9,87.3,152.45,80.45Q151,73.6,149.7,66.7Q149.5,65.6,150,64Q150.5,62.4,152.3,60.3Q154.3,57.9,156.45,56.25Q158.6,54.6,160.4,52.1Q161.6,50.3,161.5,49.3Q161.4,48.3,160.65,47.8Q159.9,47.3,159.1,47.2Q158.1,47,157,47.45Q155.9,47.9,154.2,49.45Q152.5,51,149.5,54.3Q147.4,56.8,146,58.65Q144.6,60.5,143,62.3Q141.4,64.1,138.6,66.3Q138,66.8,136.2,66.85Q134.4,66.9,133.5,66.5Q132.8,66,132.7,65.4Q132.6,64.8,132.6,64.1L133,58.3Q133.2,55.4,133.4,52.6Q133.5,51.5,133.6,48.9Q133.7,46.3,133.85,43Q134,39.7,134.1,36.4Q134.2,33.1,134.3,30.5Q134.4,27.9,134.4,26.9Q134.4,26.1,134.1,24.95Q133.8,23.8,132.6,23.8Q131.1,23.8,130.45,24.3Q129.8,24.8,129.1,25.5Q128.7,26.1,128.6,26.95Q128.5,27.8,128.4,28.5Q128.4,29.4,128.35,31.8Q128.3,34.2,128.2,37.3Q128.1,40.4,128.05,43.5Q128,46.6,127.95,49Q127.9,51.4,127.9,52.3L127.7,65.5Q127.6,72.1,127.4,78.7Q127.3,84.2,127.15,89.7Q127,95.2,126.9,100.6Q126.9,101.9,127.4,102.95Q127.9,104,129.7,103.9Q131.2,103.8,131.8,102.9Q132.4,102,132.5,100.6Q132.7,95.4,132.95,90.05Q133.2,84.7,133,79.4Q132.8,75.8,134.15,73.65Q135.5,71.5,138.4,70Q141.1,68.5,143.3,69.4Q145.5,70.3,145.9,73.4Q146.4,76.6,146.9,79.85Q147.4,83.1,147.8,86.3Q148.5,90.2,149.15,93.95Q149.8,97.7,150.7,101.4Q150.9,102.9,151.75,103.95Q152.6,105,154.4,104.5Q156.2,104,156.55,102.7Q156.9,101.4,156.6,99.9Q156.4,98.5,155.95,97Q155.5,95.5,155.2,94.2ZM148.789,86.151L150.135,93.7762Q150.78,97.4961,151.672,101.164L151.684,101.215L151.691,101.268Q151.854,102.489,152.527,103.321Q152.964,103.861,154.132,103.536Q155.383,103.189,155.584,102.44Q155.873,101.366,155.619,100.0961L155.614,100.0689L155.61,100.0414Q155.421,98.7156,154.992,97.2874Q154.533,95.7564,154.226,94.4249L154.221,94.4051L154.217,94.3851Q152.919,87.4949,151.472,80.6571Q150.02,73.7974,148.717,66.8851Q148.472,65.5367,149.046,63.7017Q149.607,61.9054,151.541,59.6492Q153.603,57.1743,155.841,55.4567Q157.868,53.9011,159.578,51.5305Q160.569,50.04,160.505,49.3995Q160.452,48.8699,160.095,48.632Q159.542,48.263,158.976,48.1923L158.94,48.1878L158.904,48.1806Q158.2,48.0397,157.379,48.3755Q156.443,48.7584,154.874,50.189Q153.212,51.7041,150.253,54.9581Q148.178,57.4295,146.797,59.2534Q145.374,61.135,143.747,62.9644Q142.091,64.828,139.227,67.0789Q138.358,67.7904,136.228,67.8496Q134.201,67.9059,133.094,67.4138L133.001,67.3727L132.919,67.3137Q131.882,66.573,131.714,65.5644Q131.6,64.8828,131.6,64.1L131.6,64.0656L132.002,58.2312L132.402,52.53Q132.502,51.4355,132.601,48.8616L132.851,42.9577Q133.001,39.6613,133.1,36.3697L133.301,30.4661Q133.4,27.8806,133.4,26.9Q133.4,26.2283,133.132,25.2024Q133.027,24.8,132.6,24.8Q131.44,24.8,131.06,25.0926Q130.497,25.5257,129.885,26.13Q129.659,26.5113,129.593,27.0668Q129.497,27.8869,129.4,28.5712Q129.398,29.5014,129.35,31.8208Q129.3,34.2263,129.199,37.3322Q129.1,40.4256,129.05,43.5161L128.95,49.0182Q128.9,51.4111,128.9,52.3L128.7,65.5152Q128.6,72.1235,128.4,78.7303Q128.3,84.2215,128.15,89.7273L127.9,100.6109Q127.902,101.678,128.303,102.52Q128.514,102.964,129.645,102.902Q130.641,102.835,130.968,102.345Q131.419,101.669,131.502,100.5427L131.951,90.0074Q132.199,84.6956,132.001,79.4377Q131.784,75.5377,133.303,73.1182Q134.795,70.7421,137.927,69.1186Q141.04,67.3949,143.679,68.4745Q146.413,69.5929,146.89,73.2594L147.888,79.6968Q148.389,82.9488,148.789,86.151ZM312.68,23.7114Q310.51,26.3268,310.4,30.1714L310.4,30.1857L310.4,30.2Q310.4,33.9607,312.33,36.2883Q314.33,38.7,317.5,38.7L317.525,38.7L317.55,38.6988Q319.825,38.585,321.855,37.232Q323.832,35.914,325.145,33.834Q326.507,31.6778,326.4,29.3748Q326.392,27.2858,325.132,25.3953Q323.921,23.5788,322.105,22.3679Q320.211,21.1057,318.218,21.1Q314.938,20.9904,312.68,23.7114ZM318.2,22.1Q315.4,22,313.45,24.35Q311.5,26.7,311.4,30.2Q311.4,33.6,313.1,35.65Q314.8,37.7,317.5,37.7Q319.5,37.6,321.3,36.4Q323.1,35.2,324.3,33.3Q325.5,31.4,325.4,29.4Q325.4,27.6,324.3,25.95Q323.2,24.3,321.55,23.2Q319.9,22.1,318.2,22.1ZM35.7682,59Q33.9896,56.0247,32.0399,53.0073Q29.9698,49.8036,28.2872,46.4386Q25.6982,41.4597,23.3565,36.3778L18.5984,26.1608Q16.0653,20.9795,10.4322,22.0142Q4.92437,22.9517,4.80051,28.3661Q4.70186,30.5279,4.45612,32.739599999999996Q4.19759,35.0663,4.30061,37.4349L4.90061,54.6349L5.50109,71.8486L5.50195,71.8624Q5.59698,73.3829,5.45465,74.8537Q5.3,76.4517,5.30019,77.9808Q5.20027,83.1762,5.0504,88.4717Q4.9,93.7859,4.9,98.9Q4.9,102.042,6.87733,103.84Q8.782399999999999,105.572,11.8134,105.796Q14.4628,106.027,16.704700000000003,104.532Q19.0117,102.994,19.4823,100.2871Q19.8978,98.1062,19.9497,95.9238Q19.9995,93.8347,20.0986,91.6526Q20.2007,89.7128,20.1496,87.823Q20.0996,85.973,20,84.0737Q19.9995,81.3684,19.8993,78.663Q19.8,75.9815,19.8,73.4L19.8,60.0184Q19.9853,60.2811,20.1606,60.5436Q22.3464,64.02170000000001,24.4332,67.6487Q26.5598,71.3449,28.9954,74.6938Q32.4019,79.3091,35.7179,79.2498Q39.0043,79.1911,42.4036,74.6952Q44.4099,71.9866,46.3657,69.2284Q48.2976,66.5041,50.3779,63.9283L50.3995,63.9016L50.4192,63.8735Q51.7864,61.9203,53.2986,60.213Q54.4631,58.8982,55.6562,57.6117L55.9077,59.624Q56.1,61.1623,56.1001,62.6873Q56.0002,70.578,55.7504,78.3712L55.3,93.9856L55.3,97.05Q55.3,98.6664,55.5088,100.2322L55.5109,100.2483L55.5136,100.2644Q56.0881,103.712,58.5737,105.25Q61.0612,106.79,64.3964,105.755Q67.6575,104.743,69.2542,102.12Q70.8094,99.565,70.6994,96.2667L70.6985,96.2394L70.6961,96.2121Q70.3975,92.827,70.1983,89.3921Q70,85.9712,69.9999,82.6163L70.4498,55.0181Q70.6999,41.2138,70.8,27.4Q70.8,26.1167,70.185,24.4953Q69.4402,22.5319,68.2923,22.3185Q66.7325,21.9875,65.022,22.2082Q63.3652,22.422,61.8489,22.9637Q60.8012,23.3566,59.8818,24.4598Q59.094,25.4051,58.56,26.2572Q55.5593,30.7585,52.6594,35.2583Q49.7705,39.7411,46.6825,44.1241L46.6751,44.1346L46.6679,44.1453Q44.0812,48.0255,41.2949,51.8068Q38.6448,55.4035,36.0841,59L35.7682,59ZM36.6,60L35.2,60Q33.3,56.8,31.2,53.55Q29.1,50.3,27.4,46.9Q24.8,41.9,22.45,36.8Q20.1,31.7,17.7,26.6Q15.5,22.1,10.6,23Q5.9,23.8,5.8,28.4Q5.7,30.6,5.45,32.85Q5.2,35.1,5.3,37.4L5.9,54.6L6.5,71.8Q6.6,73.4,6.45,74.95Q6.3,76.5,6.3,78Q6.2,83.2,6.05,88.5Q5.9,93.8,5.9,98.9Q5.9,101.6,7.55,103.1Q9.2,104.6,11.9,104.8Q14.2,105,16.15,103.7Q18.1,102.4,18.5,100.1Q18.9,98,18.95,95.9Q19,93.8,19.1,91.6Q19.2,89.7,19.15,87.85Q19.1,86,19,84.1Q19,81.4,18.9,78.7Q18.8,76,18.8,73.4L18.8,57.8Q19.4,58.0667,19.8,58.4222Q20,58.6,20.15,58.8Q20.6,59.4,21,60Q23.2,63.5,25.3,67.15Q27.4,70.8,29.8,74.1Q32.9,78.3,35.7,78.25Q38.5,78.2,41.6,74.1Q43.6,71.4,45.55,68.65Q47.5,65.9,49.6,63.3Q51,61.3,52.55,59.55Q54.1,57.8,55.7,56.1Q56.3,56.3,56.5,56.3L56.9,59.5Q57.1,61.1,57.1,62.7Q57,70.6,56.75,78.4Q56.5,86.2,56.3,94L56.3,97.05Q56.3,98.6,56.5,100.1Q57,103.1,59.1,104.4Q61.2,105.7,64.1,104.8Q67,103.9,68.4,101.6Q69.8,99.3,69.7,96.3Q69.4,92.9,69.2,89.45Q69,86,69,82.6Q69.2,68.8,69.45,55Q69.7,41.2,69.8,27.4Q69.8,26.3,69.25,24.85Q68.7,23.4,68.1,23.3Q66.7,23,65.15,23.2Q63.6,23.4,62.2,23.9Q61.4,24.2,60.65,25.1Q59.9,26,59.4,26.8Q56.4,31.3,53.5,35.8Q50.6,40.3,47.5,44.7Q44.9,48.6,42.1,52.4Q39.3,56.2,36.6,60ZM15.6,28.4Q18.2,33.1,20.55,37.95Q22.9,42.8,25.4,47.5Q27.2,51,29.15,54.45Q31.1,57.9,33.1,61.4Q34.2223,63.303,35.4159,63.3489Q36.6686,63.397,38,61.4Q43.9,52.9,49.85,44.45Q55.8,36,61.9,27.6Q62.4,26.8,63.45,25.95Q64.5,25.1,65.5,25.4Q66.5,25.6,66.9,26.85Q67.3,28.1,67.3,29.1Q67.2,40.7,67,52.35Q66.8,64,66.3,75.6Q66.2,80.5,65.9,85.35Q65.6,90.2,67.1,95Q67.3,95.9,67.4,96.9Q67.5,97.9,67.1,98.6Q66.4,99.7,65.25,100.85Q64.1,102,63,102Q62,102,60.9,100.65Q59.8,99.3,59.5,98.2Q59,95.5,58.9,92.55Q58.8177,90.1234,58.6678,87.7982Q58.6355,87.2965,58.6,86.8L58.6013,86.7999Q58.7007,86.7857,58.8,84.65Q58.9,82.5,59,79Q59.1,75.5,59.2,71.4Q59.3,67.3,59.35,63.3Q59.4,59.3,59.4,56.3Q59.4,55.5,59.35,54.7Q59.3,53.9,59.1,53.2Q58.8,51.9,58,51.5Q57.2,51.1,56.1,52.1Q55.1,53,54,54.4Q50.3,59,46.75,63.6Q43.2,68.2,39.5,72.9Q37.4899,75.4004,35.5759,75.3289Q33.586,75.2545,31.7,72.4Q28.6,67.7,25.7,63.05Q22.8,58.4,19.7,53.8Q19.3,53,18.45,52.2Q17.6,51.4,16.7,51.7Q15.7,52,15.35,53.3Q15,54.6,15,55.5Q15.1,61,15.25,66.55Q15.4,72.1,15.7,77.7Q15.8,81.8,16.15,85.9Q16.5,90,16.7,94.1Q16.8,95.1,16.9,96.05Q17,97,16.8,98.1Q16.7,100.3,15.05,101.65Q13.4,103,11.4,102.9Q9.8,102.7,8.65,101.05Q7.5,99.4,7.6,97.2Q7.9,87.4,8.25,77.6Q8.6,67.8,8.6,58Q8.7,51.2,8.5,44.35Q8.3,37.5,8.1,30.7Q8,29.1,8.2,27.65Q8.4,26.2,10.4,25.5Q12.4,24.8,13.65,25.9Q14.9,27,15.6,28.4ZM11.4886,101.903Q10.35211,101.743,9.4704,100.4782Q8.51437,99.1065,8.599450000000001,97.2331L9.24936,77.6357Q9.6,67.8178,9.59989,58.0147Q9.70022,51.1928,9.49957,44.3207L9.09909,30.6542L9.09805,30.6376Q9.0043,29.1375,9.19062,27.7866Q9.30713,26.942,10.73035,26.4439Q12.1784,25.937,12.9894,26.6507Q14.0929,27.6218,14.7056,28.8472L14.7149,28.8658L14.725,28.8841Q17.3119,33.5604,19.6501,38.386Q22.0082,43.2528,24.5107,47.9573Q26.3197,51.4748,28.2806,54.9441L32.238600000000005,61.908Q33.6788,64.35,35.475,64.35Q37.2317,64.35,38.8257,61.9642L50.6676,45.0257Q56.6145,36.5802,62.7092,28.1876L62.7296,28.1595L62.748,28.13Q63.1593,27.4719,64.0792,26.7272Q64.71860000000001,26.2096,65.2127,26.3578L65.2577,26.3714L65.3039,26.3806Q65.7269,26.4652,65.9476,27.1548Q66.3,28.2561,66.3001,29.0871L66.0002,52.3328Q65.8004,63.9714,65.3009,75.5569L65.3004,75.5683L65.3002,75.5796Q65.2006,80.4591,64.9019,85.2883Q64.5918,90.3014,66.1326,95.257Q66.3131,96.0811,66.405,96.9995Q66.4717,97.6668,66.242,98.0856Q65.6033,99.0826,64.5429,100.1429Q63.6858,101,63,101Q62.4751,101,61.6752,100.0183Q60.7291,98.8571,60.4752,97.9742Q59.9961,95.3675,59.8994,92.5161Q59.8015,89.6261,59.6081,86.8784Q59.6686,86.646,59.6957,86.3551Q59.7478,85.7946,59.7989,84.6965Q59.8993,82.5375,59.9997,79.0263L60.1997,71.4244Q60.2998,67.3197,60.3499,63.3125Q60.4,59.3071,60.4,56.3Q60.4,55.4688,60.3481,54.6376Q60.2922,53.7434,60.0685,52.9499Q59.6597,51.2118,58.4472,50.6056Q57.0343,49.8991,55.431,51.3567Q54.367,52.3144,53.2208,53.7732Q49.5146,58.381,45.9583,62.989Q42.4109,67.5857,38.7206,72.2735Q36.9959,74.4188,35.564,74.3271Q34.1102,74.2339,32.534800000000004,71.8494Q29.4416,67.1597,26.5485,62.5208Q23.655,57.8813,20.5635,53.2919Q20.0838,52.3644,19.1354,51.4718Q17.8566,50.2683,16.398,50.7466Q14.8768,51.211,14.3844,53.04Q14,54.4677,14,55.5L14,55.5113L14.2504,66.577Q14.4005,72.133,14.7007,77.739Q14.8017,81.8621,15.1536,85.9851Q15.5021,90.0669,15.7012,94.1487L15.7025,94.1754L15.9055,96.1547Q15.9905,96.9621,15.8161,97.9211L15.8041,97.9874L15.801,98.0546Q15.7213,99.8087,14.4168,100.8761Q13.0812,101.969,11.4886,101.903ZM318.2,24.5Q316.3,24.4,315.2,25.95Q314.1,27.5,313.9,30.2Q313.8,35.2,317.3,35.3Q319.5,35.4,321.15,33.7Q322.8,32,322.9,29.7Q322.9,27.7,321.45,26.1Q320,24.5,318.2,24.5ZM321.9,29.6783Q321.892,28.0769,320.709,26.7715Q319.557,25.5,318.2,25.5L318.174,25.5L318.147,25.4986Q316.797,25.4275,316.016,26.5287Q315.082,27.8443,314.899,30.2471Q314.828,34.229,317.329,34.3004Q319.096,34.3806,320.432,33.0035Q321.81,31.5846,321.9,29.6783ZM299.353,39.6922Q297.276,37.9044,294.016,37.9Q290.535,37.793,287.995,39.9943Q285.406,42.2377,285.4,45.5831Q285.293,48.9861,287.669,51.5323Q290.065,54.1,293.3,54.1Q296.682,54.1,299.132,51.0229Q301.5,48.0495,301.5,44.4Q301.5,41.5414,299.353,39.6922ZM286.4,45.6Q286.3,48.6,288.4,50.85Q290.5,53.1,293.3,53.1Q296.2,53.1,298.35,50.4Q300.5,47.7,300.5,44.4Q300.5,42,298.7,40.45Q296.9,38.9,294,38.9Q290.9,38.8,288.65,40.75Q286.4,42.7,286.4,45.6ZM296.6,49Q295.4,50.6,293.2,50.7Q289.3,50.5,289,46.5Q288.9,44.2,290.15,42.7Q291.4,41.2,293.6,41.2Q295.6,41.2,296.75,42Q297.9,42.8,297.9,45Q297.8,47.4,296.6,49ZM296.9,44.9794Q296.809,47.0551,295.8,48.4Q294.896,49.6054,293.203,49.6986Q290.237,49.5217,289.998,46.4413Q289.92,44.5382,290.918,43.3402Q291.868,42.2,293.6,42.2Q295.286,42.2,296.179,42.8209Q296.896,43.3194,296.9,44.9794ZM114.306,86.8922Q116.01,81.3172,115.498,74.8366Q115.392,72.6479,114.722,69.8656L113.378,64.2895Q112.615,60.2918,109.992,57.778Q107.408,55.3013,103.458,54.2338Q101.95,53.8316,100.3425,53.4299Q98.6666,53.0109,96.9883,52.9036Q90.5421,52.1712,85.7975,55.3165Q81.0429,58.4684,79.3412,64.6152Q78.6329,66.8437,78.1269,69.0198L77.0228,73.6876Q75.9988,78.3979,76.0501,83.1608Q76.1009,87.8916,76.9136,92.5644Q77.8735,98.3239,82.2507,102.061Q86.577,105.754,93.0613,106.59Q98.3924,107.337,102.835,104.875Q107.24,102.433,109.983,97.3687Q112.628,92.384,114.306,86.8922ZM80.3,64.9Q79.6,67.1,79.1,69.25Q78.6,71.4,78,73.9Q77,78.5,77.05,83.15Q77.1,87.8,77.9,92.4Q78.8,97.8,82.9,101.3Q87,104.8,93.2,105.6Q98.2,106.3,102.35,104Q106.5,101.7,109.1,96.9Q111.7,92,113.35,86.6Q115,81.2,114.5,74.9Q114.4,72.8,113.75,70.1Q113.1,67.4,112.4,64.5Q111.7,60.8,109.3,58.5Q106.9,56.2,103.2,55.2Q101.7,54.8,100.1,54.4Q98.5,54,96.9,53.9Q90.8,53.2,86.35,56.15Q81.9,59.1,80.3,64.9ZM257.206,86.8922Q258.91,81.3169,258.398,74.8362Q258.292,72.6476,257.622,69.8656L256.278,64.2893Q255.515,60.2917,252.892,57.778Q250.308,55.3013,246.358,54.2338Q244.851,53.8318,243.243,53.4299Q241.567,53.0109,239.888,52.9036Q233.442,52.1712,228.697,55.3165Q223.943,58.4684,222.241,64.6152Q221.533,66.8434,221.027,69.0198L219.923,73.6876Q218.899,78.3982,218.95,83.1608Q219.001,87.8921,219.814,92.5644Q220.773,98.3238,225.151,102.061Q229.477,105.754,235.961,106.59Q241.292,107.337,245.735,104.875Q250.14,102.433,252.883,97.3687Q255.528,92.3837,257.206,86.8922ZM223.2,64.9Q222.5,67.1,222,69.25Q221.5,71.4,220.9,73.9Q219.9,78.5,219.95,83.15Q220,87.8,220.8,92.4Q221.7,97.8,225.8,101.3Q229.9,104.8,236.1,105.6Q241.1,106.3,245.25,104Q249.4,101.7,252,96.9Q254.6,92,256.25,86.6Q257.9,81.2,257.4,74.9Q257.3,72.8,256.65,70.1Q256,67.4,255.3,64.5Q254.6,60.8,252.2,58.5Q249.8,56.2,246.1,55.2Q244.6,54.8,243,54.4Q241.4,54,239.8,53.9Q233.7,53.2,229.25,56.15Q224.8,59.1,223.2,64.9ZM313.769,54.2239Q311.865,55.7709,311.31,59.6586L311.308,59.672L311.307,59.6854Q311.005,62.3006,310.703,65.917Q310.402,69.5366,310.251,73.0066Q310.101,76.4675,310.05,78.7278L310,80.9889L310,87.15Q310,90.2072,310.1,93.3159Q310.101,95.2472,310.253,97.1787Q310.409,99.1487,310.825,101.022Q311.367,103.409,312.576,105.167Q314,107.238,317.387,106.996Q320.057,106.764,322.117,104.647Q324.184,102.523,324.298,99.6579L324.698,92.7587Q324.899,89.3431,325,85.8167Q325.1,79.7966,324.95,73.7252Q324.8,67.6951,324.9,61.7Q324.9,58.0847,323.319,55.8265Q321.671,53.4714,318.429,53.0084Q315.703,52.6528,313.769,54.2239ZM311.1,93.3Q311.1,95.2,311.25,97.1Q311.4,99,311.8,100.8Q312.3,103,313.4,104.6Q314.5,106.2,317.3,106Q319.6,105.8,321.4,103.95Q323.2,102.1,323.3,99.6Q323.5,96.1,323.7,92.7Q323.9,89.3,324,85.8Q324.1,79.8,323.95,73.75Q323.8,67.7,323.9,61.7Q323.9,58.4,322.5,56.4Q321.1,54.4,318.3,54Q316,53.7,314.4,55Q312.8,56.3,312.3,59.8Q312,62.4,311.7,66Q311.4,69.6,311.25,73.05Q311.1,76.5,311.05,78.75L311,81L311,87.15Q311,90.2,311.1,93.3ZM318.7,58Q318.5,57.9,317.7,57.7Q316.9,57.5,316,57.7Q315.1,57.9,314.5,59.1Q313.9,60.3,313.9,63.2Q314,68.4,314.05,73.45Q314.1,78.5,313.9,83.8Q313.8,87.2,313.8,91.3Q313.8,95.4,314,98.7Q314.1,99.7,314.2,101Q314.3,102.3,314.9,103.2Q315.5,104.1,317.2,104Q318.7,103.9,319.3,103Q319.9,102.1,320.05,100.8Q320.2,99.5,320.2,98.5Q320.2,95.4,320.25,91.25Q320.3,87.1,320.4,82.85Q320.5,78.6,320.55,74.95Q320.6,71.3,320.65,69.05Q320.7,66.8,320.8,66.8Q320.8,65.1,320.85,63.4Q320.9,61.7,320.7,60.1Q320.6,59.5,319.95,58.8Q319.3,58.1,318.7,58ZM319.711,60.2494Q319.652,59.9487,319.217,59.4804Q318.799,59.0303,318.536,58.9864L318.387,58.9617L318.253,58.8944Q318.151,58.8435,317.457,58.6701Q316.886,58.5274,316.217,58.6762Q315.782,58.7729,315.394,59.5472Q314.9,60.5361,314.9,63.2Q315,68.3831,315.05,73.4401Q315.1,78.5117,314.899,83.8377Q314.8,87.2148,314.8,91.3Q314.8,95.358,314.997,98.6202Q315.097,99.6244,315.197,100.9233Q315.277,101.963,315.732,102.645Q316.014,103.068,317.141,103.002Q318.141,102.935,318.468,102.445Q318.934,101.746,319.057,100.6854Q319.2,99.4425,319.2,98.5Q319.2,95.3964,319.25,91.238Q319.3,87.0833,319.4,82.8265Q319.5,78.5773,319.55,74.9363L319.65,69.0331Q319.676,67.8806,319.715,67.296Q319.736,66.9705,319.8,66.7159Q319.801,65.0431,319.85,63.3706Q319.898,61.761,319.711,60.2494ZM82.3,68Q82,68.9,81.7,70.8Q81.4,72.7,81.25,74.55Q81.1,76.4,81,77.1Q80.7,79.8,80.6,82.6Q80.5,85.4,80.5,88.3Q80.4,94.4,84.8,99.3Q86.8,101.6,89.85,102.65Q92.9,103.7,96.15,103.5Q99.4,103.3,102.15,101.9Q104.9,100.5,106.3,97.8Q109.6,91.6,111.1,84.9Q112.6,78.2,111.3,71.1Q110.5,66.5,108.7,63Q106.9,59.5,103.55,57.6Q100.2,55.7,94.4,56.1Q90.7,56.3,88.15,58.15Q85.6,60,84,63.2Q83.5,64.3,83.1,65.5Q82.7,66.7,82.3,68ZM84.9026,63.6308Q86.3916,60.6612,88.7372,58.9594Q91.0485,57.2826,94.4688,57.0976Q99.9684,56.7183,103.057,58.4698Q106.147,60.2227,107.811,63.4574Q109.541,66.8217,110.316,71.2801Q111.58,78.1801,110.124,84.6815Q108.654,91.2496,105.412,97.3397Q104.16,99.7545,101.696,101.009Q99.1313,102.315,96.0886,102.502Q93.0373,102.69,90.1755,101.704Q87.3788,100.7417,85.5441,98.6319Q81.4063,94.024,81.5,88.3Q81.5,85.4179,81.5994,82.6357Q81.6977,79.881,81.9922,77.2255Q82.0959,76.4908,82.2467,74.6308Q82.3937,72.8186,82.6878,70.956Q82.9749,69.1377,83.2487,68.3162L83.2524,68.3052L83.2558,68.2941Q83.6523,67.0054,84.0487,65.8162Q84.429,64.6753,84.9026,63.6308ZM225.2,68Q224.9,68.9,224.6,70.8Q224.3,72.7,224.15,74.55Q224,76.4,223.9,77.1Q223.6,79.8,223.5,82.6Q223.4,85.4,223.4,88.3Q223.3,94.4,227.7,99.3Q229.7,101.6,232.75,102.65Q235.8,103.7,239.05,103.5Q242.3,103.3,245.05,101.9Q247.8,100.5,249.2,97.8Q252.5,91.6,254,84.9Q255.5,78.2,254.2,71.1Q253.4,66.5,251.6,63Q249.8,59.5,246.45,57.6Q243.1,55.7,237.3,56.1Q233.6,56.3,231.05,58.15Q228.5,60,226.9,63.2Q226.4,64.3,226,65.5Q225.6,66.7,225.2,68ZM227.803,63.631Q229.292,60.6611,231.637,58.9594Q233.949,57.2826,237.369,57.0976Q242.868,56.7183,245.957,58.4698Q249.047,60.2226,250.711,63.4573Q252.441,66.8217,253.216,71.2801Q254.48,78.1797,253.024,84.6815Q251.554,91.2493,248.312,97.3397Q247.06,99.7545,244.596,101.009Q242.031,102.315,238.989,102.502Q235.937,102.69,233.076,101.704Q230.279,100.7417,228.444,98.6319Q224.306,94.024,224.4,88.3Q224.4,85.4174,224.499,82.6357Q224.598,79.881,224.892,77.2259Q224.996,76.4917,225.147,74.6308Q225.294,72.8185,225.588,70.9559Q225.875,69.1377,226.149,68.3162L226.152,68.3052L226.156,68.2941Q226.552,67.0048,226.949,65.8162Q227.329,64.6753,227.803,63.631ZM108,75Q108.2,80.8,107.05,86.3Q105.9,91.8,102.7,96.7Q101.1,99.2,98.75,100.15Q96.4,101.1,92.8,100.4Q89.5,99.8,87.3,97.95Q85.1,96.1,84.6,93.4Q83.2,86,84.05,78.9Q84.9,71.8,87.6,64.8Q89.4,60.1,94.4,59.9L97.05,59.9Q98.3,59.9,99.6,60.1Q102.8,60.6,104.55,62.55Q106.3,64.5,107,67Q107.7,69.5,107.85,71.7Q108,73.9,108,75ZM109,74.9825Q109.202,80.8942,108.029,86.5047Q106.84,92.189,103.537,97.2468Q101.77,100.0076,99.1248,101.077Q96.5,102.138,92.6091,101.382Q89.0597,100.7364,86.6564,98.7154Q84.182,96.6346,83.6167,93.5821Q82.1888,86.0343,83.0571,78.7811Q83.922,71.5568,86.667,64.4401Q88.7017,59.1271,94.36,58.9008L94.38,58.9L97.05,58.9Q98.3765,58.9,99.7521,59.1116Q103.306,59.667,105.294,61.8821Q107.2,64.0058,107.963,66.7304Q108.691,69.3295,108.848,71.632Q108.999,73.8488,109,74.9825ZM105.9,74.9Q105.8,73.1,105.4,70.75Q105,68.4,104,66.25Q103,64.1,101,62.9Q98.8,61.5,96.15,62Q93.5,62.5,91.4,64.3Q89.3,66.1,88.6,68.7Q87,74.6,86.5,80.05Q86,85.5,86.7,91.7Q87,94.2,87.85,95.4Q88.7,96.6,90.9,97.7Q93.1,98.7,95.3,98.45Q97.5,98.2,99.1,96.7Q100.5,95.3,101.3,93.85Q102.1,92.4,102.7,90.5Q103.8,86.9,105.05,83.05Q106.3,79.2,105.9,74.9ZM98.4044,95.9813Q99.696,94.6871,100.4244,93.3669Q101.176,92.004,101.746,90.1989Q102.846,86.599,104.099,82.7412Q105.285,79.0874,104.904,74.9926L104.903,74.9741L104.902,74.9555Q104.805,73.2118,104.414,70.9178Q104.037,68.7,103.093,66.6717Q102.223,64.7997,100.4855,63.7575L100.4742,63.7507L100.4631,63.7437Q98.5968,62.556,96.3354,62.9827Q93.948,63.4331,92.0508,65.0593Q90.1853,66.6582,89.5656,68.96Q87.9879,74.778,87.4958,80.1414Q87.0052,85.4896,87.6937,91.5878Q87.9627,93.829,88.666,94.822Q89.3682,95.8133,91.3304,96.7971Q93.2702,97.6742,95.1871,97.4564Q97.0498,97.2447,98.4044,95.9813ZM250.929,86.5047Q252.102,80.8945,251.9,74.9825Q251.899,73.849,251.748,71.632Q251.591,69.3296,250.863,66.7304Q250.1,64.00569999999999,248.194,61.8821Q246.206,59.667,242.652,59.1116Q241.276,58.9,239.95,58.9L237.28,58.9L237.26,58.9008Q231.602,59.1271,229.567,64.4401Q226.822,71.557,225.957,78.7811Q225.089,86.0341,226.517,93.5821Q227.082,96.6346,229.556,98.7154Q231.96,100.7364,235.509,101.382Q239.4,102.138,242.025,101.077Q244.67,100.0076,246.437,97.2468Q249.74,92.1893,250.929,86.5047ZM249.95,86.3Q251.1,80.8,250.9,75Q250.9,73.9,250.75,71.7Q250.6,69.5,249.9,67Q249.2,64.5,247.45,62.55Q245.7,60.6,242.5,60.1Q241.2,59.9,239.95,59.9L237.3,59.9Q232.3,60.1,230.5,64.8Q227.8,71.8,226.95,78.9Q226.1,86,227.5,93.4Q228,96.1,230.2,97.95Q232.4,99.8,235.7,100.4Q239.3,101.1,241.65,100.15Q244,99.2,245.6,96.7Q248.8,91.8,249.95,86.3ZM243.9,62.9Q241.7,61.5,239.05,62Q236.4,62.5,234.3,64.3Q232.2,66.1,231.5,68.7Q229.9,74.6,229.4,80.05Q228.9,85.5,229.6,91.7Q229.9,94.2,230.75,95.4Q231.6,96.6,233.8,97.7Q236,98.7,238.2,98.45Q240.4,98.2,242,96.7Q243.4,95.3,244.2,93.85Q245,92.4,245.6,90.5Q246.7,86.9,247.95,83.05Q249.2,79.2,248.8,74.9Q248.7,73.1,248.3,70.75Q247.9,68.4,246.9,66.25Q245.9,64.1,243.9,62.9ZM241.305,95.9812Q242.596,94.687,243.324,93.3669Q244.076,92.0042,244.646,90.1989Q245.746,86.6009,246.999,82.7412Q248.185,79.0873,247.804,74.9926L247.803,74.9741L247.802,74.9555Q247.705,73.2121,247.314,70.9178Q246.937,68.7001,245.993,66.6717Q245.123,64.7997,243.385,63.7575L243.374,63.7507L243.363,63.7437Q241.497,62.556,239.235,62.9827Q236.848,63.4331,234.951,65.0592Q233.085,66.6583,232.466,68.96Q230.888,74.7781,230.396,80.1414Q229.905,85.4894,230.594,91.5878Q230.863,93.829,231.566,94.822Q232.268,95.8133,234.23,96.7971Q236.17,97.6742,238.087,97.4564Q239.95,97.2447,241.305,95.9812ZM288.95,77.3125Q289,81.3089,289,85.3L289,90.6Q289,92.8899,288.95,95.2287Q288.901,97.5619,288.801,99.3474Q288.701,101.263,288.65,103.629Q288.603,105.852,288.136,107.632Q287.575,109.537,285.457,110.311Q283.145,111.155,281.043,110.63L281.031,110.627L281.02,110.625Q278.281,110.006,276.752,107.953Q275.135,105.781,274.483,102.616Q274.186,101.032,273.939,99.4002Q273.67,97.6237,273.01,96.0862Q272.459,94.8727,271.381,93.5253Q270.081,91.9,268.7,91.9Q267.22,91.9,265.581,92.8952Q263.928,93.899,263.298,95.2688Q262.512,96.848,262.402,98.8445Q262.297,100.7309,262.507,102.517L262.509,102.534L262.511,102.55Q263.956,112.043,267.753,116.314Q271.592,120.634,278.938,121.587Q281.035,122.001,284.266,121.95Q287.434,121.9,289.353,121.799L289.376,121.797L289.4,121.795Q295.899,121.145,298.257,117.214Q300.491,113.493,300.699,107.334Q301,98.6281,301.2,89.9731Q301.4,81.3215,301.5,72.5Q301.5,71.3523,301.396,70.2552Q301.287,69.1156,300.963,68.0289Q300.346,65.7142,297.864,64.4142Q295.471,63.1609,292.847,63.6117Q290.01,64.00489999999999,289.436,66.0841Q289.002,67.6584,289,69.2869Q288.9,73.2974,288.95,77.3125ZM290,69.3Q289.9,73.3,289.95,77.3Q290,81.3,290,85.3L290,90.6Q290,92.9,289.95,95.25Q289.9,97.6,289.8,99.4Q289.7,101.3,289.65,103.65Q289.6,106,289.1,107.9Q288.4,110.3,285.8,111.25Q283.2,112.2,280.8,111.6Q277.7,110.9,275.95,108.55Q274.2,106.2,273.5,102.8Q273.2,101.2,272.95,99.55Q272.7,97.9,272.1,96.5Q271.6,95.4,270.6,94.15Q269.6,92.9,268.7,92.9Q267.5,92.9,266.1,93.75Q264.7,94.6,264.2,95.7Q263.5,97.1,263.4,98.9Q263.3,100.7,263.5,102.4Q264.9,111.6,268.5,115.65Q272.1,119.7,279.1,120.6Q281.1,121,284.25,120.95Q287.4,120.9,289.3,120.8Q295.3,120.2,297.4,116.7Q299.5,113.2,299.7,107.3Q300,98.6,300.2,89.95Q300.4,81.3,300.5,72.5Q300.5,71.4,300.4,70.35Q300.3,69.3,300,68.3Q299.5,66.4,297.4,65.3Q295.3,64.2,293,64.6Q290.8,64.9,290.4,66.35Q290,67.8,290,69.3ZM285.5,114Q292,112.7,292.1,104.5Q292.1,102.6,292.15,99.4Q292.2,96.2,292.25,92.5Q292.3,88.8,292.3,85.3L292.3,75.5Q292.3,73.8,292.15,72.05Q292,70.3,292.3,68.7Q292.5,68.2,293.25,67.55Q294,66.9,295.4,67.2Q296.5,67.4,297.4,68.7Q297.7,69.3,297.8,70.1Q297.9,70.9,297.9,71.7Q297.9,79.9,297.8,88.1Q297.7,96.3,297.6,104.6Q297.6,110.1,296.3,113.2Q295,116.3,291.8,117.55Q288.6,118.8,282.9,118.7Q277.3,118.6,273.25,116.15Q269.2,113.7,267.25,109.35Q265.3,105,265.9,99.4Q266.1,98.4,266.6,97Q267.1,95.6,268.1,95.6Q269.3,95.4,269.9,96.85Q270.5,98.3,270.8,99.4Q271.5,101.6,271.75,103.85Q272,106.1,272.8,108.1Q274.2,111.8,277.7,113.35Q281.2,114.9,285.5,114ZM266.889,99.5525Q267.077,98.6365,267.542,97.3363Q267.805,96.6,268.1,96.6L268.183,96.6L268.264,96.5864Q268.68,96.5171,268.976,97.2324Q269.552,98.624,269.835,99.6631L269.841,99.6833L269.847,99.7032Q270.517,101.809,270.756,103.96Q271.021,106.345,271.865,108.454Q273.413,112.545,277.295,114.264Q281.09,115.945,285.696,114.981Q292.99,113.522,293.1,104.512L293.1,104.5Q293.1,102.608,293.15,99.4145L293.25,92.5135Q293.3,88.8075,293.3,85.3L293.3,75.5Q293.3,73.7572,293.146,71.9646Q293.014,70.4152,293.261,69.0023Q293.406,68.7378,293.905,68.3057Q294.278,67.9823,295.19,68.1778L295.206,68.1811L295.221,68.1839Q295.891,68.3057,296.535,69.2084Q296.734,69.6366,296.808,70.224Q296.9,70.9622,296.9,71.7Q296.9,79.8897,296.8,88.0879L296.6,104.6Q296.6,109.899,295.378,112.813Q294.242,115.523,291.436,116.619Q288.42,117.797,282.918,117.7Q277.587,117.605,273.768,115.294Q269.985,113.006,268.163,108.941Q266.331,104.855,266.889,99.5525Z" fill-rule="evenodd" fill="#FFFFFF" fill-opacity="1"/><path d="M186.59,62.8784Q186.367,62.7528,186.394,62.5104L186.4,62.4554L186.4,62.4Q186.4,61.8765,186.488,61.3021Q186.597,60.5967,186.6,60.1268Q186.7,58.1188,186.799,54.6322L187.049,46.8853L187.349,38.3853Q187.5,34.1247,187.55,30.6143Q187.6,27.1228,187.6,25.1176Q187.715,21.712,185.326,20.4203Q183.071,19.2014,180.038,20.368Q177.921,21.191,176.895,22.881Q175.929,24.4726,175.705,26.5953L175.7,26.6475L175.7,26.7Q175.7,27.7806,175.601,30.4164L175.4,36.3697Q175.301,39.6597,175.151,43.0053Q175,46.3694,174.95,48.9808Q174.9,51.5909,174.9,52.6808Q174.8,57.8893,174.8,63Q174.8,68.0892,174.7,73.2816L174.45,86.8816L174.2,100.5Q174.2,106.497,179.705,107.095Q182.247,107.338,183.724,105.988Q185.141,104.695,185.591,101.437L185.592,101.424L185.594,101.41Q186.094,96.907,186.545,92.3484Q186.996,87.7895,187.396,83.1866L187.397,83.1727L187.398,83.1587Q187.501,81.4156,187.45,79.5722Q187.401,77.8171,187.498,76.2665Q187.572,75.1599,188.884,73.9295Q190.223,72.674,191.35,72.5988Q192.444,72.5441,192.511,72.9965Q192.713,74.3628,192.915,75.4738Q193.814,80.568,194.612,85.6065Q195.415,90.6766,196.419,95.6961L196.422,95.7089L196.425,95.7216Q196.927,97.9308,197.48,100.1425Q198.066,102.487,199.335,104.601Q200.667,106.903,202.524,107.234Q204.175,107.529,205.598,107.054Q207.526,106.452,208.622,104.869Q209.734,103.263,209.495,101.296Q209.292,98.9736,208.939,96.6027Q208.585,94.2254,208.079,91.9973Q206.979,86.0983,205.779,80.3457Q204.58,74.6001,203.279,68.7968Q202.846,66.5228,203.707,64.6717Q204.646,62.6515,205.855,61.1561Q207.131,59.7854,209.534,57.5291Q212.016,55.199,213.759,53.2508Q215.813,50.855,215.749,49.0155Q215.686,47.1864,214.475,45.9113Q213.414,44.7945,212.269,44.2163Q210.357,43.1539,207.318,43.7167Q204.275,44.2802,202.645,46.2443Q199.534,49.6568,196.973,52.8208Q194.441,55.9481,191.36,59.4273Q190.007,60.8763,189.404,61.3866Q188.863,61.8442,188.544,61.9862Q188.016,62.2207,187.045,62.8679L187.032,62.8769L187.019,62.8863Q186.836,63.0167,186.59,62.8784ZM192.1,60.1Q190.7,61.6,190.05,62.15Q189.4,62.7,188.95,62.9Q188.5,63.1,187.6,63.7Q186.9,64.2,186.1,63.75Q185.3,63.3,185.4,62.4Q185.4,61.8,185.5,61.15Q185.6,60.5,185.6,60.1Q185.7,58.1,185.8,54.6Q185.9,51.1,186.05,46.85L186.35,38.35Q186.5,34.1,186.55,30.6Q186.6,27.1,186.6,25.1Q186.7,22.3,184.85,21.3Q183,20.3,180.4,21.3Q178.6,22,177.75,23.4Q176.9,24.8,176.7,26.7Q176.7,27.8,176.6,30.45Q176.5,33.1,176.4,36.4Q176.3,39.7,176.15,43.05Q176,46.4,175.95,49Q175.9,51.6,175.9,52.7Q175.8,57.9,175.8,63Q175.8,68.1,175.7,73.3Q175.6,80.1,175.45,86.9Q175.3,93.7,175.2,100.5Q175.2,105.6,179.8,106.1Q181.9,106.3,183.05,105.25Q184.2,104.2,184.6,101.3Q185.1,96.8,185.55,92.25Q186,87.7,186.4,83.1Q186.5,81.4,186.45,79.6Q186.4,77.8,186.5,76.2Q186.6,74.7,188.2,73.2Q189.8,71.7,191.3,71.6Q193.3,71.5,193.5,72.85Q193.7,74.2,193.9,75.3Q194.8,80.4,195.6,85.45Q196.4,90.5,197.4,95.5Q197.9,97.7,198.45,99.9Q199,102.1,200.2,104.1Q201.3,106,202.7,106.25Q204.1,106.5,205.3,106.1Q206.9,105.6,207.8,104.3Q208.7,103,208.5,101.4Q208.3,99.1,207.95,96.75Q207.6,94.4,207.1,92.2Q206,86.3,204.8,80.55Q203.6,74.8,202.3,69Q201.8,66.4,202.8,64.25Q203.8,62.1,205.1,60.5Q206.4,59.1,208.85,56.8Q211.3,54.5,213,52.6Q214.8,50.5,214.75,49.05Q214.7,47.6,213.75,46.6Q212.8,45.6,211.8,45.1Q210.2,44.2,207.5,44.7Q204.8,45.2,203.4,46.9Q200.3,50.3,197.75,53.45Q195.2,56.6,192.1,60.1ZM205.5,94.2Q204.2,87.3,202.75,80.45Q201.3,73.6,200,66.7Q199.8,65.6,200.3,64Q200.8,62.4,202.6,60.3Q204.6,57.9,206.75,56.25Q208.9,54.6,210.7,52.1Q211.9,50.3,211.8,49.3Q211.7,48.3,210.95,47.8Q210.2,47.3,209.4,47.2Q208.4,47,207.3,47.45Q206.2,47.9,204.5,49.45Q202.8,51,199.8,54.3Q197.7,56.8,196.3,58.65Q194.9,60.5,193.3,62.3Q191.7,64.1,188.9,66.3Q188.3,66.8,186.5,66.85Q184.7,66.9,183.8,66.5Q183.1,66,183,65.4Q182.9,64.8,182.9,64.1L183.3,58.3Q183.5,55.4,183.7,52.6Q183.8,51.5,183.9,48.9Q184,46.3,184.15,43Q184.3,39.7,184.4,36.4Q184.5,33.1,184.6,30.5Q184.7,27.9,184.7,26.9Q184.7,26.1,184.4,24.95Q184.1,23.8,182.9,23.8Q181.4,23.8,180.75,24.3Q180.1,24.8,179.4,25.5Q179,26.1,178.9,26.95Q178.8,27.8,178.7,28.5Q178.7,29.4,178.65,31.8Q178.6,34.2,178.5,37.3Q178.4,40.4,178.35,43.5Q178.3,46.6,178.25,49Q178.2,51.4,178.2,52.3L178,65.5Q177.9,72.1,177.7,78.7Q177.6,84.2,177.45,89.7Q177.3,95.2,177.2,100.6Q177.2,101.9,177.7,102.95Q178.2,104,180,103.9Q181.5,103.8,182.1,102.9Q182.7,102,182.8,100.6Q183,95.4,183.25,90.05Q183.5,84.7,183.3,79.4Q183.1,75.8,184.45,73.65Q185.8,71.5,188.7,70Q191.4,68.5,193.6,69.4Q195.8,70.3,196.2,73.4Q196.7,76.6,197.2,79.85Q197.7,83.1,198.1,86.3Q198.8,90.2,199.45,93.95Q200.1,97.7,201,101.4Q201.2,102.9,202.05,103.95Q202.9,105,204.7,104.5Q206.5,104,206.85,102.7Q207.2,101.4,206.9,99.9Q206.7,98.5,206.25,97Q205.8,95.5,205.5,94.2ZM199.089,86.1508L200.435,93.7762Q201.08,97.4966,201.972,101.164L201.984,101.215L201.991,101.268Q202.154,102.489,202.827,103.321Q203.264,103.861,204.432,103.536Q205.683,103.189,205.884,102.44Q206.173,101.366,205.919,100.0961L205.914,100.0689L205.91,100.0414Q205.721,98.7156,205.292,97.2873Q204.833,95.7564,204.526,94.4249L204.521,94.4051L204.517,94.3851Q203.22,87.4975,201.772,80.6571Q200.319,73.7939,199.017,66.8851Q198.772,65.5366,199.346,63.7017Q199.907,61.9054,201.841,59.6492Q203.903,57.1744,206.141,55.4567Q208.168,53.9012,209.878,51.5306Q210.869,50.04,210.805,49.3995Q210.752,48.8699,210.395,48.632Q209.842,48.263,209.276,48.1923L209.24,48.1878L209.204,48.1806Q208.5,48.0397,207.679,48.3755Q206.743,48.7584,205.174,50.189Q203.512,51.704,200.553,54.9583Q198.477,57.4298,197.097,59.2534Q195.673,61.1351,194.047,62.9644Q192.391,64.828,189.527,67.0789Q188.658,67.7905,186.528,67.8496Q184.501,67.9059,183.394,67.4138L183.301,67.3727L183.219,67.3137Q182.182,66.573,182.014,65.5644Q181.9,64.8828,181.9,64.1L181.9,64.0656L182.302,58.2312L182.702,52.53Q182.802,51.4361,182.901,48.8616L183.151,42.9577Q183.301,39.6591,183.4,36.3697L183.601,30.4661Q183.7,27.8806,183.7,26.9Q183.7,26.2283,183.432,25.2024Q183.327,24.8,182.9,24.8Q181.74,24.8,181.36,25.0926Q180.797,25.5256,180.185,26.1301Q179.958,26.5113,179.893,27.0669Q179.797,27.8864,179.7,28.5712Q179.698,29.5022,179.65,31.8208Q179.6,34.2302,179.499,37.3322Q179.4,40.4249,179.35,43.5161L179.25,49.0182Q179.2,51.41,179.2,52.3L179,65.5152Q178.9,72.1272,178.7,78.7303Q178.6,84.2165,178.45,89.7273L178.2,100.6L178.2,100.6109Q178.202,101.678,178.603,102.52Q178.814,102.964,179.945,102.902Q180.941,102.835,181.268,102.345Q181.719,101.669,181.802,100.5423L182.251,90.0074Q182.499,84.6957,182.301,79.4377Q182.084,75.5378,183.603,73.1182Q185.095,70.742,188.228,69.1185Q191.34,67.3949,193.979,68.4745Q196.708,69.591,197.188,73.2467L197.19,73.2589L198.188,79.6968Q198.688,82.9477,199.089,86.1508ZM136.29,62.8784Q136.067,62.7528,136.094,62.5104L136.1,62.4554L136.1,62.4Q136.1,61.8765,136.188,61.3021Q136.297,60.5965,136.3,60.1266Q136.4,58.119,136.499,54.6322L136.749,46.8853L137.049,38.3853Q137.2,34.1231,137.25,30.6143Q137.3,27.1225,137.3,25.1173Q137.415,21.7119,135.026,20.4203Q132.771,19.2014,129.738,20.368Q127.621,21.191,126.595,22.881Q125.629,24.4725,125.405,26.5953L125.4,26.6475L125.4,26.7Q125.4,27.7813,125.301,30.4164L125.1,36.3697Q125.001,39.6627,124.851,43.0053Q124.7,46.3685,124.65,48.9808Q124.6,51.5903,124.6,52.6808Q124.5,57.8909,124.5,63Q124.5,68.0902,124.4,73.2816L124.15,86.8816L123.9,100.5Q123.9,106.497,129.405,107.095Q131.947,107.338,133.424,105.988Q134.841,104.695,135.291,101.437L135.292,101.424L135.294,101.41Q135.795,96.9032,136.245,92.3484Q136.696,87.7925,137.096,83.1866L137.097,83.1727L137.098,83.1587Q137.201,81.4155,137.15,79.5722Q137.101,77.8175,137.198,76.2665Q137.272,75.1599,138.584,73.9295Q139.923,72.674,141.05,72.5988Q142.144,72.5441,142.211,72.9966Q142.413,74.3623,142.615,75.4738Q143.514,80.5646,144.312,85.6065Q145.115,90.6761,146.119,95.6961L146.122,95.7089L146.125,95.7216Q146.627,97.9321,147.18,100.1425Q147.766,102.487,149.035,104.601Q150.367,106.903,152.224,107.234Q153.875,107.529,155.298,107.054Q157.226,106.452,158.322,104.869Q159.434,103.263,159.195,101.295Q158.992,98.9733,158.639,96.6027Q158.285,94.2254,157.78,91.9977Q156.679,86.0974,155.479,80.3457Q154.279,74.5968,152.979,68.7966Q152.546,66.5227,153.407,64.6717Q154.346,62.6514,155.556,61.156Q156.831,59.7855,159.234,57.5291Q161.716,55.1993,163.459,53.2508Q165.513,50.855,165.449,49.0155Q165.386,47.1863,164.175,45.9113Q163.114,44.7944,161.969,44.2163Q160.057,43.1539,157.018,43.7167Q153.975,44.2802,152.345,46.2442Q149.235,49.6561,146.673,52.8208Q144.14,55.9494,141.06,59.4271Q139.707,60.8762,139.104,61.3866Q138.563,61.8443,138.244,61.9862Q137.716,62.2207,136.745,62.8679L136.732,62.8769L136.719,62.8863Q136.536,63.0167,136.29,62.8784ZM141.8,60.1Q140.4,61.6,139.75,62.15Q139.1,62.7,138.65,62.9Q138.2,63.1,137.3,63.7Q136.6,64.2,135.8,63.75Q135,63.3,135.1,62.4Q135.1,61.8,135.2,61.15Q135.3,60.5,135.3,60.1Q135.4,58.1,135.5,54.6Q135.6,51.1,135.75,46.85L136.05,38.35Q136.2,34.1,136.25,30.6Q136.3,27.1,136.3,25.1Q136.4,22.3,134.55,21.3Q132.7,20.3,130.1,21.3Q128.3,22,127.45,23.4Q126.6,24.8,126.4,26.7Q126.4,27.8,126.3,30.45Q126.2,33.1,126.1,36.4Q126,39.7,125.85,43.05Q125.7,46.4,125.65,49Q125.6,51.6,125.6,52.7Q125.5,57.9,125.5,63Q125.5,68.1,125.4,73.3Q125.3,80.1,125.15,86.9Q125,93.7,124.9,100.5Q124.9,105.6,129.5,106.1Q131.6,106.3,132.75,105.25Q133.9,104.2,134.3,101.3Q134.8,96.8,135.25,92.25Q135.7,87.7,136.1,83.1Q136.2,81.4,136.15,79.6Q136.1,77.8,136.2,76.2Q136.3,74.7,137.9,73.2Q139.5,71.7,141,71.6Q143,71.5,143.2,72.85Q143.4,74.2,143.6,75.3Q144.5,80.4,145.3,85.45Q146.1,90.5,147.1,95.5Q147.6,97.7,148.15,99.9Q148.7,102.1,149.9,104.1Q151,106,152.4,106.25Q153.8,106.5,155,106.1Q156.6,105.6,157.5,104.3Q158.4,103,158.2,101.4Q158,99.1,157.65,96.75Q157.3,94.4,156.8,92.2Q155.7,86.3,154.5,80.55Q153.3,74.8,152,69Q151.5,66.4,152.5,64.25Q153.5,62.1,154.8,60.5Q156.1,59.1,158.55,56.8Q161,54.5,162.7,52.6Q164.5,50.5,164.45,49.05Q164.4,47.6,163.45,46.6Q162.5,45.6,161.5,45.1Q159.9,44.2,157.2,44.7Q154.5,45.2,153.1,46.9Q150,50.3,147.45,53.45Q144.9,56.6,141.8,60.1ZM155.2,94.2Q153.9,87.3,152.45,80.45Q151,73.6,149.7,66.7Q149.5,65.6,150,64Q150.5,62.4,152.3,60.3Q154.3,57.9,156.45,56.25Q158.6,54.6,160.4,52.1Q161.6,50.3,161.5,49.3Q161.4,48.3,160.65,47.8Q159.9,47.3,159.1,47.2Q158.1,47,157,47.45Q155.9,47.9,154.2,49.45Q152.5,51,149.5,54.3Q147.4,56.8,146,58.65Q144.6,60.5,143,62.3Q141.4,64.1,138.6,66.3Q138,66.8,136.2,66.85Q134.4,66.9,133.5,66.5Q132.8,66,132.7,65.4Q132.6,64.8,132.6,64.1L133,58.3Q133.2,55.4,133.4,52.6Q133.5,51.5,133.6,48.9Q133.7,46.3,133.85,43Q134,39.7,134.1,36.4Q134.2,33.1,134.3,30.5Q134.4,27.9,134.4,26.9Q134.4,26.1,134.1,24.95Q133.8,23.8,132.6,23.8Q131.1,23.8,130.45,24.3Q129.8,24.8,129.1,25.5Q128.7,26.1,128.6,26.95Q128.5,27.8,128.4,28.5Q128.4,29.4,128.35,31.8Q128.3,34.2,128.2,37.3Q128.1,40.4,128.05,43.5Q128,46.6,127.95,49Q127.9,51.4,127.9,52.3L127.7,65.5Q127.6,72.1,127.4,78.7Q127.3,84.2,127.15,89.7Q127,95.2,126.9,100.6Q126.9,101.9,127.4,102.95Q127.9,104,129.7,103.9Q131.2,103.8,131.8,102.9Q132.4,102,132.5,100.6Q132.7,95.4,132.95,90.05Q133.2,84.7,133,79.4Q132.8,75.8,134.15,73.65Q135.5,71.5,138.4,70Q141.1,68.5,143.3,69.4Q145.5,70.3,145.9,73.4Q146.4,76.6,146.9,79.85Q147.4,83.1,147.8,86.3Q148.5,90.2,149.15,93.95Q149.8,97.7,150.7,101.4Q150.9,102.9,151.75,103.95Q152.6,105,154.4,104.5Q156.2,104,156.55,102.7Q156.9,101.4,156.6,99.9Q156.4,98.5,155.95,97Q155.5,95.5,155.2,94.2ZM148.789,86.151L150.135,93.7762Q150.78,97.4961,151.672,101.164L151.684,101.215L151.691,101.268Q151.854,102.489,152.527,103.321Q152.964,103.861,154.132,103.536Q155.383,103.189,155.584,102.44Q155.873,101.366,155.619,100.0961L155.614,100.0689L155.61,100.0414Q155.421,98.7156,154.992,97.2874Q154.533,95.7564,154.226,94.4249L154.221,94.4051L154.217,94.3851Q152.919,87.4949,151.472,80.6571Q150.02,73.7974,148.717,66.8851Q148.472,65.5367,149.046,63.7017Q149.607,61.9054,151.541,59.6492Q153.603,57.1743,155.841,55.4567Q157.868,53.9011,159.578,51.5305Q160.569,50.04,160.505,49.3995Q160.452,48.8699,160.095,48.632Q159.542,48.263,158.976,48.1923L158.94,48.1878L158.904,48.1806Q158.2,48.0397,157.379,48.3755Q156.443,48.7584,154.874,50.189Q153.212,51.7041,150.253,54.9581Q148.178,57.4295,146.797,59.2534Q145.374,61.135,143.747,62.9644Q142.091,64.828,139.227,67.0789Q138.358,67.7904,136.228,67.8496Q134.201,67.9059,133.094,67.4138L133.001,67.3727L132.919,67.3137Q131.882,66.573,131.714,65.5644Q131.6,64.8828,131.6,64.1L131.6,64.0656L132.002,58.2312L132.402,52.53Q132.502,51.4355,132.601,48.8616L132.851,42.9577Q133.001,39.6613,133.1,36.3697L133.301,30.4661Q133.4,27.8806,133.4,26.9Q133.4,26.2283,133.132,25.2024Q133.027,24.8,132.6,24.8Q131.44,24.8,131.06,25.0926Q130.497,25.5257,129.885,26.13Q129.659,26.5113,129.593,27.0668Q129.497,27.8869,129.4,28.5712Q129.398,29.5014,129.35,31.8208Q129.3,34.2263,129.199,37.3322Q129.1,40.4256,129.05,43.5161L128.95,49.0182Q128.9,51.4111,128.9,52.3L128.7,65.5152Q128.6,72.1235,128.4,78.7303Q128.3,84.2215,128.15,89.7273L127.9,100.6109Q127.902,101.678,128.303,102.52Q128.514,102.964,129.645,102.902Q130.641,102.835,130.968,102.345Q131.419,101.669,131.502,100.5427L131.951,90.0074Q132.199,84.6956,132.001,79.4377Q131.784,75.5377,133.303,73.1182Q134.795,70.7421,137.927,69.1186Q141.04,67.3949,143.679,68.4745Q146.413,69.5929,146.89,73.2594L147.888,79.6968Q148.389,82.9488,148.789,86.151ZM312.68,23.7114Q310.51,26.3268,310.4,30.1714L310.4,30.1857L310.4,30.2Q310.4,33.9607,312.33,36.2883Q314.33,38.7,317.5,38.7L317.525,38.7L317.55,38.6988Q319.825,38.585,321.855,37.232Q323.832,35.914,325.145,33.834Q326.507,31.6778,326.4,29.3748Q326.392,27.2858,325.132,25.3953Q323.921,23.5788,322.105,22.3679Q320.211,21.1057,318.218,21.1Q314.938,20.9904,312.68,23.7114ZM318.2,22.1Q315.4,22,313.45,24.35Q311.5,26.7,311.4,30.2Q311.4,33.6,313.1,35.65Q314.8,37.7,317.5,37.7Q319.5,37.6,321.3,36.4Q323.1,35.2,324.3,33.3Q325.5,31.4,325.4,29.4Q325.4,27.6,324.3,25.95Q323.2,24.3,321.55,23.2Q319.9,22.1,318.2,22.1ZM35.7682,59Q33.9896,56.0247,32.0399,53.0073Q29.9698,49.8036,28.2872,46.4386Q25.6982,41.4597,23.3565,36.3778L18.5984,26.1608Q16.0653,20.9795,10.4322,22.0142Q4.92437,22.9517,4.80051,28.3661Q4.70186,30.5279,4.45612,32.739599999999996Q4.19759,35.0663,4.30061,37.4349L4.90061,54.6349L5.50109,71.8486L5.50195,71.8624Q5.59698,73.3829,5.45465,74.8537Q5.3,76.4517,5.30019,77.9808Q5.20027,83.1762,5.0504,88.4717Q4.9,93.7859,4.9,98.9Q4.9,102.042,6.87733,103.84Q8.782399999999999,105.572,11.8134,105.796Q14.4628,106.027,16.704700000000003,104.532Q19.0117,102.994,19.4823,100.2871Q19.8978,98.1062,19.9497,95.9238Q19.9995,93.8347,20.0986,91.6526Q20.2007,89.7128,20.1496,87.823Q20.0996,85.973,20,84.0737Q19.9995,81.3684,19.8993,78.663Q19.8,75.9815,19.8,73.4L19.8,60.0184Q19.9853,60.2811,20.1606,60.5436Q22.3464,64.02170000000001,24.4332,67.6487Q26.5598,71.3449,28.9954,74.6938Q32.4019,79.3091,35.7179,79.2498Q39.0043,79.1911,42.4036,74.6952Q44.4099,71.9866,46.3657,69.2284Q48.2976,66.5041,50.3779,63.9283L50.3995,63.9016L50.4192,63.8735Q51.7864,61.9203,53.2986,60.213Q54.4631,58.8982,55.6562,57.6117L55.9077,59.624Q56.1,61.1623,56.1001,62.6873Q56.0002,70.578,55.7504,78.3712L55.3,93.9856L55.3,97.05Q55.3,98.6664,55.5088,100.2322L55.5109,100.2483L55.5136,100.2644Q56.0881,103.712,58.5737,105.25Q61.0612,106.79,64.3964,105.755Q67.6575,104.743,69.2542,102.12Q70.8094,99.565,70.6994,96.2667L70.6985,96.2394L70.6961,96.2121Q70.3975,92.827,70.1983,89.3921Q70,85.9712,69.9999,82.6163L70.4498,55.0181Q70.6999,41.2138,70.8,27.4Q70.8,26.1167,70.185,24.4953Q69.4402,22.5319,68.2923,22.3185Q66.7325,21.9875,65.022,22.2082Q63.3652,22.422,61.8489,22.9637Q60.8012,23.3566,59.8818,24.4598Q59.094,25.4051,58.56,26.2572Q55.5593,30.7585,52.6594,35.2583Q49.7705,39.7411,46.6825,44.1241L46.6751,44.1346L46.6679,44.1453Q44.0812,48.0255,41.2949,51.8068Q38.6448,55.4035,36.0841,59L35.7682,59ZM36.6,60L35.2,60Q33.3,56.8,31.2,53.55Q29.1,50.3,27.4,46.9Q24.8,41.9,22.45,36.8Q20.1,31.7,17.7,26.6Q15.5,22.1,10.6,23Q5.9,23.8,5.8,28.4Q5.7,30.6,5.45,32.85Q5.2,35.1,5.3,37.4L5.9,54.6L6.5,71.8Q6.6,73.4,6.45,74.95Q6.3,76.5,6.3,78Q6.2,83.2,6.05,88.5Q5.9,93.8,5.9,98.9Q5.9,101.6,7.55,103.1Q9.2,104.6,11.9,104.8Q14.2,105,16.15,103.7Q18.1,102.4,18.5,100.1Q18.9,98,18.95,95.9Q19,93.8,19.1,91.6Q19.2,89.7,19.15,87.85Q19.1,86,19,84.1Q19,81.4,18.9,78.7Q18.8,76,18.8,73.4L18.8,57.8Q19.4,58.0667,19.8,58.4222Q20,58.6,20.15,58.8Q20.6,59.4,21,60Q23.2,63.5,25.3,67.15Q27.4,70.8,29.8,74.1Q32.9,78.3,35.7,78.25Q38.5,78.2,41.6,74.1Q43.6,71.4,45.55,68.65Q47.5,65.9,49.6,63.3Q51,61.3,52.55,59.55Q54.1,57.8,55.7,56.1Q56.3,56.3,56.5,56.3L56.9,59.5Q57.1,61.1,57.1,62.7Q57,70.6,56.75,78.4Q56.5,86.2,56.3,94L56.3,97.05Q56.3,98.6,56.5,100.1Q57,103.1,59.1,104.4Q61.2,105.7,64.1,104.8Q67,103.9,68.4,101.6Q69.8,99.3,69.7,96.3Q69.4,92.9,69.2,89.45Q69,86,69,82.6Q69.2,68.8,69.45,55Q69.7,41.2,69.8,27.4Q69.8,26.3,69.25,24.85Q68.7,23.4,68.1,23.3Q66.7,23,65.15,23.2Q63.6,23.4,62.2,23.9Q61.4,24.2,60.65,25.1Q59.9,26,59.4,26.8Q56.4,31.3,53.5,35.8Q50.6,40.3,47.5,44.7Q44.9,48.6,42.1,52.4Q39.3,56.2,36.6,60ZM15.6,28.4Q18.2,33.1,20.55,37.95Q22.9,42.8,25.4,47.5Q27.2,51,29.15,54.45Q31.1,57.9,33.1,61.4Q34.2223,63.303,35.4159,63.3489Q36.6686,63.397,38,61.4Q43.9,52.9,49.85,44.45Q55.8,36,61.9,27.6Q62.4,26.8,63.45,25.95Q64.5,25.1,65.5,25.4Q66.5,25.6,66.9,26.85Q67.3,28.1,67.3,29.1Q67.2,40.7,67,52.35Q66.8,64,66.3,75.6Q66.2,80.5,65.9,85.35Q65.6,90.2,67.1,95Q67.3,95.9,67.4,96.9Q67.5,97.9,67.1,98.6Q66.4,99.7,65.25,100.85Q64.1,102,63,102Q62,102,60.9,100.65Q59.8,99.3,59.5,98.2Q59,95.5,58.9,92.55Q58.8177,90.1234,58.6678,87.7982Q58.6355,87.2965,58.6,86.8L58.6013,86.7999Q58.7007,86.7857,58.8,84.65Q58.9,82.5,59,79Q59.1,75.5,59.2,71.4Q59.3,67.3,59.35,63.3Q59.4,59.3,59.4,56.3Q59.4,55.5,59.35,54.7Q59.3,53.9,59.1,53.2Q58.8,51.9,58,51.5Q57.2,51.1,56.1,52.1Q55.1,53,54,54.4Q50.3,59,46.75,63.6Q43.2,68.2,39.5,72.9Q37.4899,75.4004,35.5759,75.3289Q33.586,75.2545,31.7,72.4Q28.6,67.7,25.7,63.05Q22.8,58.4,19.7,53.8Q19.3,53,18.45,52.2Q17.6,51.4,16.7,51.7Q15.7,52,15.35,53.3Q15,54.6,15,55.5Q15.1,61,15.25,66.55Q15.4,72.1,15.7,77.7Q15.8,81.8,16.15,85.9Q16.5,90,16.7,94.1Q16.8,95.1,16.9,96.05Q17,97,16.8,98.1Q16.7,100.3,15.05,101.65Q13.4,103,11.4,102.9Q9.8,102.7,8.65,101.05Q7.5,99.4,7.6,97.2Q7.9,87.4,8.25,77.6Q8.6,67.8,8.6,58Q8.7,51.2,8.5,44.35Q8.3,37.5,8.1,30.7Q8,29.1,8.2,27.65Q8.4,26.2,10.4,25.5Q12.4,24.8,13.65,25.9Q14.9,27,15.6,28.4ZM11.4886,101.903Q10.35211,101.743,9.4704,100.4782Q8.51437,99.1065,8.599450000000001,97.2331L9.24936,77.6357Q9.6,67.8178,9.59989,58.0147Q9.70022,51.1928,9.49957,44.3207L9.09909,30.6542L9.09805,30.6376Q9.0043,29.1375,9.19062,27.7866Q9.30713,26.942,10.73035,26.4439Q12.1784,25.937,12.9894,26.6507Q14.0929,27.6218,14.7056,28.8472L14.7149,28.8658L14.725,28.8841Q17.3119,33.5604,19.6501,38.386Q22.0082,43.2528,24.5107,47.9573Q26.3197,51.4748,28.2806,54.9441L32.238600000000005,61.908Q33.6788,64.35,35.475,64.35Q37.2317,64.35,38.8257,61.9642L50.6676,45.0257Q56.6145,36.5802,62.7092,28.1876L62.7296,28.1595L62.748,28.13Q63.1593,27.4719,64.0792,26.7272Q64.71860000000001,26.2096,65.2127,26.3578L65.2577,26.3714L65.3039,26.3806Q65.7269,26.4652,65.9476,27.1548Q66.3,28.2561,66.3001,29.0871L66.0002,52.3328Q65.8004,63.9714,65.3009,75.5569L65.3004,75.5683L65.3002,75.5796Q65.2006,80.4591,64.9019,85.2883Q64.5918,90.3014,66.1326,95.257Q66.3131,96.0811,66.405,96.9995Q66.4717,97.6668,66.242,98.0856Q65.6033,99.0826,64.5429,100.1429Q63.6858,101,63,101Q62.4751,101,61.6752,100.0183Q60.7291,98.8571,60.4752,97.9742Q59.9961,95.3675,59.8994,92.5161Q59.8015,89.6261,59.6081,86.8784Q59.6686,86.646,59.6957,86.3551Q59.7478,85.7946,59.7989,84.6965Q59.8993,82.5375,59.9997,79.0263L60.1997,71.4244Q60.2998,67.3197,60.3499,63.3125Q60.4,59.3071,60.4,56.3Q60.4,55.4688,60.3481,54.6376Q60.2922,53.7434,60.0685,52.9499Q59.6597,51.2118,58.4472,50.6056Q57.0343,49.8991,55.431,51.3567Q54.367,52.3144,53.2208,53.7732Q49.5146,58.381,45.9583,62.989Q42.4109,67.5857,38.7206,72.2735Q36.9959,74.4188,35.564,74.3271Q34.1102,74.2339,32.534800000000004,71.8494Q29.4416,67.1597,26.5485,62.5208Q23.655,57.8813,20.5635,53.2919Q20.0838,52.3644,19.1354,51.4718Q17.8566,50.2683,16.398,50.7466Q14.8768,51.211,14.3844,53.04Q14,54.4677,14,55.5L14,55.5113L14.2504,66.577Q14.4005,72.133,14.7007,77.739Q14.8017,81.8621,15.1536,85.9851Q15.5021,90.0669,15.7012,94.1487L15.7025,94.1754L15.9055,96.1547Q15.9905,96.9621,15.8161,97.9211L15.8041,97.9874L15.801,98.0546Q15.7213,99.8087,14.4168,100.8761Q13.0812,101.969,11.4886,101.903ZM318.2,24.5Q316.3,24.4,315.2,25.95Q314.1,27.5,313.9,30.2Q313.8,35.2,317.3,35.3Q319.5,35.4,321.15,33.7Q322.8,32,322.9,29.7Q322.9,27.7,321.45,26.1Q320,24.5,318.2,24.5ZM321.9,29.6783Q321.892,28.0769,320.709,26.7715Q319.557,25.5,318.2,25.5L318.174,25.5L318.147,25.4986Q316.797,25.4275,316.016,26.5287Q315.082,27.8443,314.899,30.2471Q314.828,34.229,317.329,34.3004Q319.096,34.3806,320.432,33.0035Q321.81,31.5846,321.9,29.6783ZM299.353,39.6922Q297.276,37.9044,294.016,37.9Q290.535,37.793,287.995,39.9943Q285.406,42.2377,285.4,45.5831Q285.293,48.9861,287.669,51.5323Q290.065,54.1,293.3,54.1Q296.682,54.1,299.132,51.0229Q301.5,48.0495,301.5,44.4Q301.5,41.5414,299.353,39.6922ZM286.4,45.6Q286.3,48.6,288.4,50.85Q290.5,53.1,293.3,53.1Q296.2,53.1,298.35,50.4Q300.5,47.7,300.5,44.4Q300.5,42,298.7,40.45Q296.9,38.9,294,38.9Q290.9,38.8,288.65,40.75Q286.4,42.7,286.4,45.6ZM296.6,49Q295.4,50.6,293.2,50.7Q289.3,50.5,289,46.5Q288.9,44.2,290.15,42.7Q291.4,41.2,293.6,41.2Q295.6,41.2,296.75,42Q297.9,42.8,297.9,45Q297.8,47.4,296.6,49ZM296.9,44.9794Q296.809,47.0551,295.8,48.4Q294.896,49.6054,293.203,49.6986Q290.237,49.5217,289.998,46.4413Q289.92,44.5382,290.918,43.3402Q291.868,42.2,293.6,42.2Q295.286,42.2,296.179,42.8209Q296.896,43.3194,296.9,44.9794ZM114.306,86.8922Q116.01,81.3172,115.498,74.8366Q115.392,72.6479,114.722,69.8656L113.378,64.2895Q112.615,60.2918,109.992,57.778Q107.408,55.3013,103.458,54.2338Q101.95,53.8316,100.3425,53.4299Q98.6666,53.0109,96.9883,52.9036Q90.5421,52.1712,85.7975,55.3165Q81.0429,58.4684,79.3412,64.6152Q78.6329,66.8437,78.1269,69.0198L77.0228,73.6876Q75.9988,78.3979,76.0501,83.1608Q76.1009,87.8916,76.9136,92.5644Q77.8735,98.3239,82.2507,102.061Q86.577,105.754,93.0613,106.59Q98.3924,107.337,102.835,104.875Q107.24,102.433,109.983,97.3687Q112.628,92.384,114.306,86.8922ZM80.3,64.9Q79.6,67.1,79.1,69.25Q78.6,71.4,78,73.9Q77,78.5,77.05,83.15Q77.1,87.8,77.9,92.4Q78.8,97.8,82.9,101.3Q87,104.8,93.2,105.6Q98.2,106.3,102.35,104Q106.5,101.7,109.1,96.9Q111.7,92,113.35,86.6Q115,81.2,114.5,74.9Q114.4,72.8,113.75,70.1Q113.1,67.4,112.4,64.5Q111.7,60.8,109.3,58.5Q106.9,56.2,103.2,55.2Q101.7,54.8,100.1,54.4Q98.5,54,96.9,53.9Q90.8,53.2,86.35,56.15Q81.9,59.1,80.3,64.9ZM257.206,86.8922Q258.91,81.3169,258.398,74.8362Q258.292,72.6476,257.622,69.8656L256.278,64.2893Q255.515,60.2917,252.892,57.778Q250.308,55.3013,246.358,54.2338Q244.851,53.8318,243.243,53.4299Q241.567,53.0109,239.888,52.9036Q233.442,52.1712,228.697,55.3165Q223.943,58.4684,222.241,64.6152Q221.533,66.8434,221.027,69.0198L219.923,73.6876Q218.899,78.3982,218.95,83.1608Q219.001,87.8921,219.814,92.5644Q220.773,98.3238,225.151,102.061Q229.477,105.754,235.961,106.59Q241.292,107.337,245.735,104.875Q250.14,102.433,252.883,97.3687Q255.528,92.3837,257.206,86.8922ZM223.2,64.9Q222.5,67.1,222,69.25Q221.5,71.4,220.9,73.9Q219.9,78.5,219.95,83.15Q220,87.8,220.8,92.4Q221.7,97.8,225.8,101.3Q229.9,104.8,236.1,105.6Q241.1,106.3,245.25,104Q249.4,101.7,252,96.9Q254.6,92,256.25,86.6Q257.9,81.2,257.4,74.9Q257.3,72.8,256.65,70.1Q256,67.4,255.3,64.5Q254.6,60.8,252.2,58.5Q249.8,56.2,246.1,55.2Q244.6,54.8,243,54.4Q241.4,54,239.8,53.9Q233.7,53.2,229.25,56.15Q224.8,59.1,223.2,64.9ZM313.769,54.2239Q311.865,55.7709,311.31,59.6586L311.308,59.672L311.307,59.6854Q311.005,62.3006,310.703,65.917Q310.402,69.5366,310.251,73.0066Q310.101,76.4675,310.05,78.7278L310,80.9889L310,87.15Q310,90.2072,310.1,93.3159Q310.101,95.2472,310.253,97.1787Q310.409,99.1487,310.825,101.022Q311.367,103.409,312.576,105.167Q314,107.238,317.387,106.996Q320.057,106.764,322.117,104.647Q324.184,102.523,324.298,99.6579L324.698,92.7587Q324.899,89.3431,325,85.8167Q325.1,79.7966,324.95,73.7252Q324.8,67.6951,324.9,61.7Q324.9,58.0847,323.319,55.8265Q321.671,53.4714,318.429,53.0084Q315.703,52.6528,313.769,54.2239ZM311.1,93.3Q311.1,95.2,311.25,97.1Q311.4,99,311.8,100.8Q312.3,103,313.4,104.6Q314.5,106.2,317.3,106Q319.6,105.8,321.4,103.95Q323.2,102.1,323.3,99.6Q323.5,96.1,323.7,92.7Q323.9,89.3,324,85.8Q324.1,79.8,323.95,73.75Q323.8,67.7,323.9,61.7Q323.9,58.4,322.5,56.4Q321.1,54.4,318.3,54Q316,53.7,314.4,55Q312.8,56.3,312.3,59.8Q312,62.4,311.7,66Q311.4,69.6,311.25,73.05Q311.1,76.5,311.05,78.75L311,81L311,87.15Q311,90.2,311.1,93.3ZM318.7,58Q318.5,57.9,317.7,57.7Q316.9,57.5,316,57.7Q315.1,57.9,314.5,59.1Q313.9,60.3,313.9,63.2Q314,68.4,314.05,73.45Q314.1,78.5,313.9,83.8Q313.8,87.2,313.8,91.3Q313.8,95.4,314,98.7Q314.1,99.7,314.2,101Q314.3,102.3,314.9,103.2Q315.5,104.1,317.2,104Q318.7,103.9,319.3,103Q319.9,102.1,320.05,100.8Q320.2,99.5,320.2,98.5Q320.2,95.4,320.25,91.25Q320.3,87.1,320.4,82.85Q320.5,78.6,320.55,74.95Q320.6,71.3,320.65,69.05Q320.7,66.8,320.8,66.8Q320.8,65.1,320.85,63.4Q320.9,61.7,320.7,60.1Q320.6,59.5,319.95,58.8Q319.3,58.1,318.7,58ZM319.711,60.2494Q319.652,59.9487,319.217,59.4804Q318.799,59.0303,318.536,58.9864L318.387,58.9617L318.253,58.8944Q318.151,58.8435,317.457,58.6701Q316.886,58.5274,316.217,58.6762Q315.782,58.7729,315.394,59.5472Q314.9,60.5361,314.9,63.2Q315,68.3831,315.05,73.4401Q315.1,78.5117,314.899,83.8377Q314.8,87.2148,314.8,91.3Q314.8,95.358,314.997,98.6202Q315.097,99.6244,315.197,100.9233Q315.277,101.963,315.732,102.645Q316.014,103.068,317.141,103.002Q318.141,102.935,318.468,102.445Q318.934,101.746,319.057,100.6854Q319.2,99.4425,319.2,98.5Q319.2,95.3964,319.25,91.238Q319.3,87.0833,319.4,82.8265Q319.5,78.5773,319.55,74.9363L319.65,69.0331Q319.676,67.8806,319.715,67.296Q319.736,66.9705,319.8,66.7159Q319.801,65.0431,319.85,63.3706Q319.898,61.761,319.711,60.2494ZM82.3,68Q82,68.9,81.7,70.8Q81.4,72.7,81.25,74.55Q81.1,76.4,81,77.1Q80.7,79.8,80.6,82.6Q80.5,85.4,80.5,88.3Q80.4,94.4,84.8,99.3Q86.8,101.6,89.85,102.65Q92.9,103.7,96.15,103.5Q99.4,103.3,102.15,101.9Q104.9,100.5,106.3,97.8Q109.6,91.6,111.1,84.9Q112.6,78.2,111.3,71.1Q110.5,66.5,108.7,63Q106.9,59.5,103.55,57.6Q100.2,55.7,94.4,56.1Q90.7,56.3,88.15,58.15Q85.6,60,84,63.2Q83.5,64.3,83.1,65.5Q82.7,66.7,82.3,68ZM84.9026,63.6308Q86.3916,60.6612,88.7372,58.9594Q91.0485,57.2826,94.4688,57.0976Q99.9684,56.7183,103.057,58.4698Q106.147,60.2227,107.811,63.4574Q109.541,66.8217,110.316,71.2801Q111.58,78.1801,110.124,84.6815Q108.654,91.2496,105.412,97.3397Q104.16,99.7545,101.696,101.009Q99.1313,102.315,96.0886,102.502Q93.0373,102.69,90.1755,101.704Q87.3788,100.7417,85.5441,98.6319Q81.4063,94.024,81.5,88.3Q81.5,85.4179,81.5994,82.6357Q81.6977,79.881,81.9922,77.2255Q82.0959,76.4908,82.2467,74.6308Q82.3937,72.8186,82.6878,70.956Q82.9749,69.1377,83.2487,68.3162L83.2524,68.3052L83.2558,68.2941Q83.6523,67.0054,84.0487,65.8162Q84.429,64.6753,84.9026,63.6308ZM225.2,68Q224.9,68.9,224.6,70.8Q224.3,72.7,224.15,74.55Q224,76.4,223.9,77.1Q223.6,79.8,223.5,82.6Q223.4,85.4,223.4,88.3Q223.3,94.4,227.7,99.3Q229.7,101.6,232.75,102.65Q235.8,103.7,239.05,103.5Q242.3,103.3,245.05,101.9Q247.8,100.5,249.2,97.8Q252.5,91.6,254,84.9Q255.5,78.2,254.2,71.1Q253.4,66.5,251.6,63Q249.8,59.5,246.45,57.6Q243.1,55.7,237.3,56.1Q233.6,56.3,231.05,58.15Q228.5,60,226.9,63.2Q226.4,64.3,226,65.5Q225.6,66.7,225.2,68ZM227.803,63.631Q229.292,60.6611,231.637,58.9594Q233.949,57.2826,237.369,57.0976Q242.868,56.7183,245.957,58.4698Q249.047,60.2226,250.711,63.4573Q252.441,66.8217,253.216,71.2801Q254.48,78.1797,253.024,84.6815Q251.554,91.2493,248.312,97.3397Q247.06,99.7545,244.596,101.009Q242.031,102.315,238.989,102.502Q235.937,102.69,233.076,101.704Q230.279,100.7417,228.444,98.6319Q224.306,94.024,224.4,88.3Q224.4,85.4174,224.499,82.6357Q224.598,79.881,224.892,77.2259Q224.996,76.4917,225.147,74.6308Q225.294,72.8185,225.588,70.9559Q225.875,69.1377,226.149,68.3162L226.152,68.3052L226.156,68.2941Q226.552,67.0048,226.949,65.8162Q227.329,64.6753,227.803,63.631ZM108,75Q108.2,80.8,107.05,86.3Q105.9,91.8,102.7,96.7Q101.1,99.2,98.75,100.15Q96.4,101.1,92.8,100.4Q89.5,99.8,87.3,97.95Q85.1,96.1,84.6,93.4Q83.2,86,84.05,78.9Q84.9,71.8,87.6,64.8Q89.4,60.1,94.4,59.9L97.05,59.9Q98.3,59.9,99.6,60.1Q102.8,60.6,104.55,62.55Q106.3,64.5,107,67Q107.7,69.5,107.85,71.7Q108,73.9,108,75ZM109,74.9825Q109.202,80.8942,108.029,86.5047Q106.84,92.189,103.537,97.2468Q101.77,100.0076,99.1248,101.077Q96.5,102.138,92.6091,101.382Q89.0597,100.7364,86.6564,98.7154Q84.182,96.6346,83.6167,93.5821Q82.1888,86.0343,83.0571,78.7811Q83.922,71.5568,86.667,64.4401Q88.7017,59.1271,94.36,58.9008L94.38,58.9L97.05,58.9Q98.3765,58.9,99.7521,59.1116Q103.306,59.667,105.294,61.8821Q107.2,64.0058,107.963,66.7304Q108.691,69.3295,108.848,71.632Q108.999,73.8488,109,74.9825ZM105.9,74.9Q105.8,73.1,105.4,70.75Q105,68.4,104,66.25Q103,64.1,101,62.9Q98.8,61.5,96.15,62Q93.5,62.5,91.4,64.3Q89.3,66.1,88.6,68.7Q87,74.6,86.5,80.05Q86,85.5,86.7,91.7Q87,94.2,87.85,95.4Q88.7,96.6,90.9,97.7Q93.1,98.7,95.3,98.45Q97.5,98.2,99.1,96.7Q100.5,95.3,101.3,93.85Q102.1,92.4,102.7,90.5Q103.8,86.9,105.05,83.05Q106.3,79.2,105.9,74.9ZM98.4044,95.9813Q99.696,94.6871,100.4244,93.3669Q101.176,92.004,101.746,90.1989Q102.846,86.599,104.099,82.7412Q105.285,79.0874,104.904,74.9926L104.903,74.9741L104.902,74.9555Q104.805,73.2118,104.414,70.9178Q104.037,68.7,103.093,66.6717Q102.223,64.7997,100.4855,63.7575L100.4742,63.7507L100.4631,63.7437Q98.5968,62.556,96.3354,62.9827Q93.948,63.4331,92.0508,65.0593Q90.1853,66.6582,89.5656,68.96Q87.9879,74.778,87.4958,80.1414Q87.0052,85.4896,87.6937,91.5878Q87.9627,93.829,88.666,94.822Q89.3682,95.8133,91.3304,96.7971Q93.2702,97.6742,95.1871,97.4564Q97.0498,97.2447,98.4044,95.9813ZM250.929,86.5047Q252.102,80.8945,251.9,74.9825Q251.899,73.849,251.748,71.632Q251.591,69.3296,250.863,66.7304Q250.1,64.00569999999999,248.194,61.8821Q246.206,59.667,242.652,59.1116Q241.276,58.9,239.95,58.9L237.28,58.9L237.26,58.9008Q231.602,59.1271,229.567,64.4401Q226.822,71.557,225.957,78.7811Q225.089,86.0341,226.517,93.5821Q227.082,96.6346,229.556,98.7154Q231.96,100.7364,235.509,101.382Q239.4,102.138,242.025,101.077Q244.67,100.0076,246.437,97.2468Q249.74,92.1893,250.929,86.5047ZM249.95,86.3Q251.1,80.8,250.9,75Q250.9,73.9,250.75,71.7Q250.6,69.5,249.9,67Q249.2,64.5,247.45,62.55Q245.7,60.6,242.5,60.1Q241.2,59.9,239.95,59.9L237.3,59.9Q232.3,60.1,230.5,64.8Q227.8,71.8,226.95,78.9Q226.1,86,227.5,93.4Q228,96.1,230.2,97.95Q232.4,99.8,235.7,100.4Q239.3,101.1,241.65,100.15Q244,99.2,245.6,96.7Q248.8,91.8,249.95,86.3ZM243.9,62.9Q241.7,61.5,239.05,62Q236.4,62.5,234.3,64.3Q232.2,66.1,231.5,68.7Q229.9,74.6,229.4,80.05Q228.9,85.5,229.6,91.7Q229.9,94.2,230.75,95.4Q231.6,96.6,233.8,97.7Q236,98.7,238.2,98.45Q240.4,98.2,242,96.7Q243.4,95.3,244.2,93.85Q245,92.4,245.6,90.5Q246.7,86.9,247.95,83.05Q249.2,79.2,248.8,74.9Q248.7,73.1,248.3,70.75Q247.9,68.4,246.9,66.25Q245.9,64.1,243.9,62.9ZM241.305,95.9812Q242.596,94.687,243.324,93.3669Q244.076,92.0042,244.646,90.1989Q245.746,86.6009,246.999,82.7412Q248.185,79.0873,247.804,74.9926L247.803,74.9741L247.802,74.9555Q247.705,73.2121,247.314,70.9178Q246.937,68.7001,245.993,66.6717Q245.123,64.7997,243.385,63.7575L243.374,63.7507L243.363,63.7437Q241.497,62.556,239.235,62.9827Q236.848,63.4331,234.951,65.0592Q233.085,66.6583,232.466,68.96Q230.888,74.7781,230.396,80.1414Q229.905,85.4894,230.594,91.5878Q230.863,93.829,231.566,94.822Q232.268,95.8133,234.23,96.7971Q236.17,97.6742,238.087,97.4564Q239.95,97.2447,241.305,95.9812ZM288.95,77.3125Q289,81.3089,289,85.3L289,90.6Q289,92.8899,288.95,95.2287Q288.901,97.5619,288.801,99.3474Q288.701,101.263,288.65,103.629Q288.603,105.852,288.136,107.632Q287.575,109.537,285.457,110.311Q283.145,111.155,281.043,110.63L281.031,110.627L281.02,110.625Q278.281,110.006,276.752,107.953Q275.135,105.781,274.483,102.616Q274.186,101.032,273.939,99.4002Q273.67,97.6237,273.01,96.0862Q272.459,94.8727,271.381,93.5253Q270.081,91.9,268.7,91.9Q267.22,91.9,265.581,92.8952Q263.928,93.899,263.298,95.2688Q262.512,96.848,262.402,98.8445Q262.297,100.7309,262.507,102.517L262.509,102.534L262.511,102.55Q263.956,112.043,267.753,116.314Q271.592,120.634,278.938,121.587Q281.035,122.001,284.266,121.95Q287.434,121.9,289.353,121.799L289.376,121.797L289.4,121.795Q295.899,121.145,298.257,117.214Q300.491,113.493,300.699,107.334Q301,98.6281,301.2,89.9731Q301.4,81.3215,301.5,72.5Q301.5,71.3523,301.396,70.2552Q301.287,69.1156,300.963,68.0289Q300.346,65.7142,297.864,64.4142Q295.471,63.1609,292.847,63.6117Q290.01,64.00489999999999,289.436,66.0841Q289.002,67.6584,289,69.2869Q288.9,73.2974,288.95,77.3125ZM290,69.3Q289.9,73.3,289.95,77.3Q290,81.3,290,85.3L290,90.6Q290,92.9,289.95,95.25Q289.9,97.6,289.8,99.4Q289.7,101.3,289.65,103.65Q289.6,106,289.1,107.9Q288.4,110.3,285.8,111.25Q283.2,112.2,280.8,111.6Q277.7,110.9,275.95,108.55Q274.2,106.2,273.5,102.8Q273.2,101.2,272.95,99.55Q272.7,97.9,272.1,96.5Q271.6,95.4,270.6,94.15Q269.6,92.9,268.7,92.9Q267.5,92.9,266.1,93.75Q264.7,94.6,264.2,95.7Q263.5,97.1,263.4,98.9Q263.3,100.7,263.5,102.4Q264.9,111.6,268.5,115.65Q272.1,119.7,279.1,120.6Q281.1,121,284.25,120.95Q287.4,120.9,289.3,120.8Q295.3,120.2,297.4,116.7Q299.5,113.2,299.7,107.3Q300,98.6,300.2,89.95Q300.4,81.3,300.5,72.5Q300.5,71.4,300.4,70.35Q300.3,69.3,300,68.3Q299.5,66.4,297.4,65.3Q295.3,64.2,293,64.6Q290.8,64.9,290.4,66.35Q290,67.8,290,69.3ZM285.5,114Q292,112.7,292.1,104.5Q292.1,102.6,292.15,99.4Q292.2,96.2,292.25,92.5Q292.3,88.8,292.3,85.3L292.3,75.5Q292.3,73.8,292.15,72.05Q292,70.3,292.3,68.7Q292.5,68.2,293.25,67.55Q294,66.9,295.4,67.2Q296.5,67.4,297.4,68.7Q297.7,69.3,297.8,70.1Q297.9,70.9,297.9,71.7Q297.9,79.9,297.8,88.1Q297.7,96.3,297.6,104.6Q297.6,110.1,296.3,113.2Q295,116.3,291.8,117.55Q288.6,118.8,282.9,118.7Q277.3,118.6,273.25,116.15Q269.2,113.7,267.25,109.35Q265.3,105,265.9,99.4Q266.1,98.4,266.6,97Q267.1,95.6,268.1,95.6Q269.3,95.4,269.9,96.85Q270.5,98.3,270.8,99.4Q271.5,101.6,271.75,103.85Q272,106.1,272.8,108.1Q274.2,111.8,277.7,113.35Q281.2,114.9,285.5,114ZM266.889,99.5525Q267.077,98.6365,267.542,97.3363Q267.805,96.6,268.1,96.6L268.183,96.6L268.264,96.5864Q268.68,96.5171,268.976,97.2324Q269.552,98.624,269.835,99.6631L269.841,99.6833L269.847,99.7032Q270.517,101.809,270.756,103.96Q271.021,106.345,271.865,108.454Q273.413,112.545,277.295,114.264Q281.09,115.945,285.696,114.981Q292.99,113.522,293.1,104.512L293.1,104.5Q293.1,102.608,293.15,99.4145L293.25,92.5135Q293.3,88.8075,293.3,85.3L293.3,75.5Q293.3,73.7572,293.146,71.9646Q293.014,70.4152,293.261,69.0023Q293.406,68.7378,293.905,68.3057Q294.278,67.9823,295.19,68.1778L295.206,68.1811L295.221,68.1839Q295.891,68.3057,296.535,69.2084Q296.734,69.6366,296.808,70.224Q296.9,70.9622,296.9,71.7Q296.9,79.8897,296.8,88.0879L296.6,104.6Q296.6,109.899,295.378,112.813Q294.242,115.523,291.436,116.619Q288.42,117.797,282.918,117.7Q277.587,117.605,273.768,115.294Q269.985,113.006,268.163,108.941Q266.331,104.855,266.889,99.5525Z" fill-rule="evenodd" fill="#FFFFFF" fill-opacity="1"/></g></svg>