<svg xmlns="http://www.w3.org/2000/svg" xmlns:xlink="http://www.w3.org/1999/xlink" fill="none" version="1.1" width="83" height="31" viewBox="0 0 83 31"><defs><filter id="master_svg0_93_0341" filterUnits="objectBoundingBox" color-interpolation-filters="sRGB" x="0" y="0" width="1" height="1"><feFlood flood-opacity="0" result="BackgroundImageFix"/><feBlend mode="normal" in="SourceGraphic" in2="BackgroundImageFix" result="shape"/><feColorMatrix in="SourceAlpha" type="matrix" result="hardAlpha" values="0 0 0 0 0 0 0 0 0 0 0 0 0 0 0 0 0 0 127 0"/><feOffset dy="4" dx="0"/><feGaussianBlur stdDeviation="5"/><feComposite in2="hardAlpha" operator="arithmetic" k2="-1" k3="1"/><feColorMatrix type="matrix" values="0 0 0 0 0 0 0 0 0 0 0 0 0 0 0 0 0 0 0.30000001192092896 0"/><feBlend mode="normal" in2="shape" result="effect1_innerShadow"/></filter></defs><g filter="url(#master_svg0_93_0341)"><path d="M9.9,13.25Q10.575,12.3,11.275,11.35Q11.975,10.4,12.625,9.425Q13.4,8.325,14.125,7.2Q14.85,6.075,15.6,4.95Q15.725,4.75,15.9125,4.525Q16.1,4.3,16.3,4.225Q16.65,4.1,17.0375,4.05Q17.425,4,17.775,4.075Q17.925,4.1,18.0625,4.4625Q18.2,4.825,18.2,5.1Q18.175,8.55,18.1125,12Q18.05,15.45,18,18.9Q18,19.75,18.05,20.6125Q18.1,21.475,18.175,22.325Q18.2,23.075,17.85,23.65Q17.5,24.225,16.775,24.45Q16.05,24.675,15.525,24.35Q15,24.025,14.875,23.275Q14.825,22.9,14.825,22.5125Q14.825,22.125,14.825,21.75Q14.875,19.8,14.9375,17.85Q15,15.9,15.025,13.925Q15.025,13.525,14.975,13.125Q14.925,12.725,14.875,12.325Q14.825,12.325,14.675,12.275Q14.275,12.7,13.8875,13.1375Q13.5,13.575,13.15,14.075Q12.625,14.725,12.1375,15.4125Q11.65,16.1,11.15,16.775Q10.375,17.8,9.675,17.8125Q8.975,17.825,8.2,16.775Q7.6,15.95,7.075,15.0375Q6.55,14.125,6,13.25Q5.9,13.1,5.7875,12.95Q5.675,12.8,5.45,12.7L5.45,16.6Q5.45,17.25,5.475,17.925Q5.5,18.6,5.5,19.275Q5.525,19.75,5.5375,20.2125Q5.55,20.675,5.525,21.15Q5.5,21.7,5.4875,22.225Q5.475,22.75,5.375,23.275Q5.275,23.85,4.7875,24.175Q4.3,24.5,3.725,24.45Q3.05,24.4,2.6375,24.025Q2.225,23.65,2.225,22.975Q2.225,21.7,2.2625,20.375Q2.3,19.05,2.325,17.75Q2.325,17.375,2.3625,16.9875Q2.4,16.6,2.375,16.2Q2.3,14.05,2.225,11.9Q2.15,9.75,2.075,7.6Q2.05,7.025,2.1125,6.4625Q2.175,5.9,2.2,5.35Q2.225,4.2,3.4,4Q4.625,3.775,5.175,4.9Q5.775,6.175,6.3625,7.45Q6.95,8.725,7.6,9.975Q8.025,10.825,8.55,11.6375Q9.075,12.45,9.55,13.25L9.9,13.25ZM15.4,19.95Q15.45,20.65,15.475,21.3875Q15.5,22.125,15.625,22.8Q15.7,23.075,15.975,23.4125Q16.25,23.75,16.5,23.75Q16.775,23.75,17.0625,23.4625Q17.35,23.175,17.525,22.9Q17.625,22.725,17.6,22.475Q17.575,22.225,17.525,22Q17.15,20.8,17.225,19.5875Q17.3,18.375,17.325,17.15Q17.45,14.25,17.5,11.3375Q17.55,8.425,17.575,5.525Q17.575,5.275,17.475,4.9625Q17.375,4.65,17.125,4.6Q16.875,4.525,16.6125,4.7375Q16.35,4.95,16.225,5.15Q14.7,7.25,13.2125,9.3625Q11.725,11.475,10.25,13.6Q9.6,14.575,9.025,13.6Q8.525,12.725,8.0375,11.8625Q7.55,11,7.1,10.125Q6.475,8.95,5.8875,7.7375Q5.3,6.525,4.65,5.35Q4.475,5,4.1625,4.725Q3.85,4.45,3.35,4.625Q2.85,4.8,2.8,5.1625Q2.75,5.525,2.775,5.925Q2.825,7.625,2.875,9.3375Q2.925,11.05,2.9,12.75Q2.9,15.2,2.8125,17.65Q2.725,20.1,2.65,22.55Q2.625,23.1,2.9125,23.5125Q3.2,23.925,3.6,23.975Q4.1,24,4.5125,23.6625Q4.925,23.325,4.95,22.775Q5,22.5,4.975,22.2625Q4.95,22.025,4.925,21.775Q4.875,20.75,4.7875,19.725Q4.7,18.7,4.675,17.675Q4.6,16.275,4.5625,14.8875Q4.525,13.5,4.5,12.125Q4.5,11.9,4.5875,11.575Q4.675,11.25,4.925,11.175Q5.15,11.1,5.3625,11.3Q5.575,11.5,5.675,11.7Q6.45,12.85,7.175,14.0125Q7.9,15.175,8.675,16.35Q9.6,17.75,10.625,16.475Q11.55,15.3,12.4375,14.15Q13.325,13,14.25,11.85Q14.525,11.5,14.775,11.275Q15.05,11.025,15.25,11.125Q15.45,11.225,15.525,11.55Q15.575,11.725,15.5875,11.925Q15.6,12.125,15.6,12.325Q15.6,13.075,15.5875,14.075Q15.575,15.075,15.55,16.1Q15.525,17.125,15.5,18Q15.475,18.875,15.45,19.4125Q15.425,19.95,15.4,19.95ZM28.875,16.975Q29,18.55,28.5875,19.9Q28.175,21.25,27.525,22.475Q26.875,23.675,25.8375,24.25Q24.8,24.825,23.55,24.65Q22,24.45,20.975,23.575Q19.95,22.7,19.725,21.35Q19.525,20.2,19.5125,19.0375Q19.5,17.875,19.75,16.725Q19.9,16.1,20.025,15.5625Q20.15,15.025,20.325,14.475Q20.725,13.025,21.8375,12.2875Q22.95,11.55,24.475,11.725Q24.875,11.75,25.275,11.85Q25.675,11.95,26.05,12.05Q26.975,12.3,27.575,12.875Q28.175,13.45,28.35,14.375Q28.525,15.1,28.6875,15.775Q28.85,16.45,28.875,16.975ZM20.5,17.525Q20.425,18.2,20.4,18.9Q20.375,19.6,20.375,20.325Q20.35,21.85,21.45,23.075Q21.95,23.65,22.7125,23.9125Q23.475,24.175,24.2875,24.125Q25.1,24.075,25.7875,23.725Q26.475,23.375,26.825,22.7Q27.65,21.15,28.025,19.475Q28.4,17.8,28.075,16.025Q27.875,14.875,27.425,14Q26.975,13.125,26.1375,12.65Q25.3,12.175,23.85,12.275Q22.925,12.325,22.2875,12.7875Q21.65,13.25,21.25,14.05Q21.125,14.325,21.025,14.625Q20.925,14.925,20.825,15.25Q20.75,15.475,20.675,15.95Q20.6,16.425,20.5625,16.8875Q20.525,17.35,20.5,17.525ZM27.25,17Q27.3,18.45,27.0125,19.825Q26.725,21.2,25.925,22.425Q25.525,23.05,24.9375,23.2875Q24.35,23.525,23.45,23.35Q22.625,23.2,22.075,22.7375Q21.525,22.275,21.4,21.6Q21.05,19.75,21.2625,17.975Q21.475,16.2,22.15,14.45Q22.6,13.275,23.85,13.225Q24.2,13.225,24.5125,13.225Q24.825,13.225,25.15,13.275Q25.95,13.4,26.3875,13.8875Q26.825,14.375,27,15Q27.175,15.625,27.2125,16.175Q27.25,16.725,27.25,17ZM26.725,16.975Q26.7,16.525,26.6,15.9375Q26.5,15.35,26.25,14.8125Q26,14.275,25.5,13.975Q24.95,13.625,24.2875,13.75Q23.625,13.875,23.1,14.325Q22.575,14.775,22.4,15.425Q22,16.9,21.875,18.2625Q21.75,19.625,21.925,21.175Q22,21.8,22.2125,22.1Q22.425,22.4,22.975,22.675Q23.525,22.925,24.075,22.8625Q24.625,22.8,25.025,22.425Q25.375,22.075,25.575,21.7125Q25.775,21.35,25.925,20.875Q26.2,19.975,26.5125,19.0125Q26.825,18.05,26.725,16.975ZM33.525,13.85Q33.5,14.075,33.7,14.1875Q33.9,14.3,34.075,14.175Q34.3,14.025,34.4125,13.975Q34.525,13.925,34.6875,13.7875Q34.85,13.65,35.2,13.275Q35.975,12.4,36.6125,11.6125Q37.25,10.825,38.025,9.975Q38.375,9.55,39.05,9.425Q39.725,9.3,40.125,9.525Q40.375,9.65,40.6125,9.9Q40.85,10.15,40.8625,10.5125Q40.875,10.875,40.425,11.4Q40,11.875,39.3875,12.45Q38.775,13.025,38.45,13.375Q38.125,13.775,37.875,14.3125Q37.625,14.85,37.75,15.5Q38.075,16.95,38.375,18.3875Q38.675,19.825,38.95,21.3Q39.075,21.85,39.1625,22.4375Q39.25,23.025,39.3,23.6Q39.35,24,39.125,24.325Q38.9,24.65,38.5,24.775Q38.2,24.875,37.85,24.8125Q37.5,24.75,37.225,24.275Q36.925,23.775,36.7875,23.225Q36.65,22.675,36.525,22.125Q36.275,20.875,36.075,19.6125Q35.875,18.35,35.65,17.075Q35.6,16.8,35.55,16.4625Q35.5,16.125,35,16.15Q34.625,16.175,34.225,16.55Q33.825,16.925,33.8,17.3Q33.775,17.7,33.7875,18.15Q33.8,18.6,33.775,19.025Q33.675,20.175,33.5625,21.3125Q33.45,22.45,33.325,23.575Q33.225,24.3,32.9375,24.5625Q32.65,24.825,32.125,24.775Q30.975,24.65,30.975,23.375Q31,21.675,31.0375,19.975Q31.075,18.275,31.1,16.575Q31.125,15.275,31.125,14Q31.125,12.725,31.15,11.425Q31.15,11.15,31.1625,10.5Q31.175,9.85,31.2125,9.0125Q31.25,8.175,31.275,7.35Q31.3,6.525,31.325,5.8625Q31.35,5.2,31.35,4.925Q31.4,4.45,31.6125,4.1Q31.825,3.75,32.275,3.575Q32.925,3.325,33.3875,3.575Q33.85,3.825,33.825,4.525Q33.825,5.025,33.8125,5.9Q33.8,6.775,33.7625,7.8375Q33.725,8.9,33.6875,9.9625Q33.65,11.025,33.625,11.9Q33.6,12.775,33.575,13.275Q33.575,13.375,33.55,13.5375Q33.525,13.7,33.525,13.85ZM39.85,11.275Q40.15,10.825,40.125,10.575Q40.1,10.325,39.9125,10.2Q39.725,10.075,39.525,10.05Q39.275,10,39,10.1125Q38.725,10.225,38.3,10.6125Q37.875,11,37.125,11.825Q36.6,12.45,36.25,12.9125Q35.9,13.375,35.5,13.825Q35.1,14.275,34.4,14.825Q34.25,14.95,33.8,14.9625Q33.35,14.975,33.125,14.875Q32.95,14.75,32.925,14.6Q32.9,14.45,32.9,14.275Q32.95,13.55,33,12.825Q33.05,12.1,33.1,11.4Q33.125,11.125,33.15,10.475Q33.175,9.825,33.2125,9Q33.25,8.175,33.275,7.35Q33.3,6.525,33.325,5.875Q33.35,5.225,33.35,4.975Q33.35,4.775,33.275,4.4875Q33.2,4.2,32.9,4.2Q32.525,4.2,32.3625,4.325Q32.2,4.45,32.025,4.625Q31.925,4.775,31.9,4.9875Q31.875,5.2,31.85,5.375Q31.85,5.6,31.8375,6.2Q31.825,6.8,31.8,7.575Q31.775,8.35,31.7625,9.125Q31.75,9.9,31.7375,10.5Q31.725,11.1,31.725,11.325Q31.7,12.975,31.675,14.625Q31.65,16.275,31.6,17.925Q31.575,19.3,31.5375,20.675Q31.5,22.05,31.475,23.4Q31.475,23.725,31.6,23.9875Q31.725,24.25,32.175,24.225Q32.55,24.2,32.7,23.975Q32.85,23.75,32.875,23.4Q32.925,22.1,32.9875,20.7625Q33.05,19.425,33,18.1Q32.95,17.2,33.2875,16.6625Q33.625,16.125,34.35,15.75Q35.025,15.375,35.575,15.6Q36.125,15.825,36.225,16.6Q36.35,17.4,36.475,18.2125Q36.6,19.025,36.7,19.825Q36.875,20.8,37.0375,21.7375Q37.2,22.675,37.425,23.6Q37.475,23.975,37.6875,24.2375Q37.9,24.5,38.35,24.375Q38.8,24.25,38.8875,23.925Q38.975,23.6,38.9,23.225Q38.85,22.875,38.7375,22.5Q38.625,22.125,38.55,21.8Q38.225,20.075,37.8625,18.3625Q37.5,16.65,37.175,14.925Q37.125,14.65,37.25,14.25Q37.375,13.85,37.825,13.325Q38.325,12.725,38.8625,12.3125Q39.4,11.9,39.85,11.275ZM45.6,13.85Q45.575,14.075,45.775,14.1875Q45.975,14.3,46.15,14.175Q46.375,14.025,46.4875,13.975Q46.6,13.925,46.7625,13.7875Q46.925,13.65,47.275,13.275Q48.05,12.4,48.6875,11.6125Q49.325,10.825,50.1,9.975Q50.45,9.55,51.125,9.425Q51.8,9.3,52.2,9.525Q52.45,9.65,52.6875,9.9Q52.925,10.15,52.9375,10.5125Q52.95,10.875,52.5,11.4Q52.075,11.875,51.4625,12.45Q50.85,13.025,50.525,13.375Q50.2,13.775,49.95,14.3125Q49.7,14.85,49.825,15.5Q50.15,16.95,50.45,18.3875Q50.75,19.825,51.025,21.3Q51.15,21.85,51.2375,22.4375Q51.325,23.025,51.375,23.6Q51.425,24,51.2,24.325Q50.975,24.65,50.575,24.775Q50.275,24.875,49.925,24.8125Q49.575,24.75,49.3,24.275Q49,23.775,48.8625,23.225Q48.725,22.675,48.6,22.125Q48.35,20.875,48.15,19.6125Q47.95,18.35,47.725,17.075Q47.675,16.8,47.625,16.4625Q47.575,16.125,47.075,16.15Q46.7,16.175,46.3,16.55Q45.9,16.925,45.875,17.3Q45.85,17.7,45.8625,18.15Q45.875,18.6,45.85,19.025Q45.75,20.175,45.6375,21.3125Q45.525,22.45,45.4,23.575Q45.3,24.3,45.0125,24.5625Q44.725,24.825,44.2,24.775Q43.05,24.65,43.05,23.375Q43.075,21.675,43.1125,19.975Q43.15,18.275,43.175,16.575Q43.2,15.275,43.2,14Q43.2,12.725,43.225,11.425Q43.225,11.15,43.2375,10.5Q43.25,9.85,43.2875,9.0125Q43.325,8.175,43.35,7.35Q43.375,6.525,43.4,5.8625Q43.425,5.2,43.425,4.925Q43.475,4.45,43.6875,4.1Q43.9,3.75,44.35,3.575Q45,3.325,45.4625,3.575Q45.925,3.825,45.9,4.525Q45.9,5.025,45.8875,5.9Q45.875,6.775,45.8375,7.8375Q45.8,8.9,45.7625,9.9625Q45.725,11.025,45.7,11.9Q45.675,12.775,45.65,13.275Q45.65,13.375,45.625,13.5375Q45.6,13.7,45.6,13.85ZM51.925,11.275Q52.225,10.825,52.2,10.575Q52.175,10.325,51.9875,10.2Q51.8,10.075,51.6,10.05Q51.35,10,51.075,10.1125Q50.8,10.225,50.375,10.6125Q49.95,11,49.2,11.825Q48.675,12.45,48.325,12.9125Q47.975,13.375,47.575,13.825Q47.175,14.275,46.475,14.825Q46.325,14.95,45.875,14.9625Q45.425,14.975,45.2,14.875Q45.025,14.75,45,14.6Q44.975,14.45,44.975,14.275Q45.025,13.55,45.075,12.825Q45.125,12.1,45.175,11.4Q45.2,11.125,45.225,10.475Q45.25,9.825,45.2875,9Q45.325,8.175,45.35,7.35Q45.375,6.525,45.4,5.875Q45.425,5.225,45.425,4.975Q45.425,4.775,45.35,4.4875Q45.275,4.2,44.975,4.2Q44.6,4.2,44.4375,4.325Q44.275,4.45,44.1,4.625Q44,4.775,43.975,4.9875Q43.95,5.2,43.925,5.375Q43.925,5.6,43.9125,6.2Q43.9,6.8,43.875,7.575Q43.85,8.35,43.8375,9.125Q43.825,9.9,43.8125,10.5Q43.8,11.1,43.8,11.325Q43.775,12.975,43.75,14.625Q43.725,16.275,43.675,17.925Q43.65,19.3,43.6125,20.675Q43.575,22.05,43.55,23.4Q43.55,23.725,43.675,23.9875Q43.8,24.25,44.25,24.225Q44.625,24.2,44.775,23.975Q44.925,23.75,44.95,23.4Q45,22.1,45.0625,20.7625Q45.125,19.425,45.075,18.1Q45.025,17.2,45.3625,16.6625Q45.7,16.125,46.425,15.75Q47.1,15.375,47.65,15.6Q48.2,15.825,48.3,16.6Q48.425,17.4,48.55,18.2125Q48.675,19.025,48.775,19.825Q48.95,20.8,49.1125,21.7375Q49.275,22.675,49.5,23.6Q49.55,23.975,49.7625,24.2375Q49.975,24.5,50.425,24.375Q50.875,24.25,50.9625,23.925Q51.05,23.6,50.975,23.225Q50.925,22.875,50.8125,22.5Q50.7,22.125,50.625,21.8Q50.3,20.075,49.9375,18.3625Q49.575,16.65,49.25,14.925Q49.2,14.65,49.325,14.25Q49.45,13.85,49.9,13.325Q50.4,12.725,50.9375,12.3125Q51.475,11.9,51.925,11.275ZM63.1,16.975Q63.225,18.55,62.8125,19.9Q62.4,21.25,61.75,22.475Q61.1,23.675,60.0625,24.25Q59.025,24.825,57.775,24.65Q56.225,24.45,55.2,23.575Q54.175,22.7,53.95,21.35Q53.75,20.2,53.7375,19.0375Q53.725,17.875,53.975,16.725Q54.125,16.1,54.25,15.5625Q54.375,15.025,54.55,14.475Q54.95,13.025,56.0625,12.2875Q57.175,11.55,58.7,11.725Q59.1,11.75,59.5,11.85Q59.9,11.95,60.275,12.05Q61.2,12.3,61.8,12.875Q62.4,13.45,62.575,14.375Q62.75,15.1,62.9125,15.775Q63.075,16.45,63.1,16.975ZM54.725,17.525Q54.65,18.2,54.625,18.9Q54.6,19.6,54.6,20.325Q54.575,21.85,55.675,23.075Q56.175,23.65,56.9375,23.9125Q57.7,24.175,58.5125,24.125Q59.325,24.075,60.0125,23.725Q60.7,23.375,61.05,22.7Q61.875,21.15,62.25,19.475Q62.625,17.8,62.3,16.025Q62.1,14.875,61.65,14Q61.2,13.125,60.3625,12.65Q59.525,12.175,58.075,12.275Q57.15,12.325,56.5125,12.7875Q55.875,13.25,55.475,14.05Q55.35,14.325,55.25,14.625Q55.15,14.925,55.05,15.25Q54.975,15.475,54.9,15.95Q54.825,16.425,54.7875,16.8875Q54.75,17.35,54.725,17.525ZM61.475,17Q61.525,18.45,61.2375,19.825Q60.95,21.2,60.15,22.425Q59.75,23.05,59.1625,23.2875Q58.575,23.525,57.675,23.35Q56.85,23.2,56.3,22.7375Q55.75,22.275,55.625,21.6Q55.275,19.75,55.4875,17.975Q55.7,16.2,56.375,14.45Q56.825,13.275,58.075,13.225Q58.425,13.225,58.7375,13.225Q59.05,13.225,59.375,13.275Q60.175,13.4,60.6125,13.8875Q61.05,14.375,61.225,15Q61.4,15.625,61.4375,16.175Q61.475,16.725,61.475,17ZM60.95,16.975Q60.925,16.525,60.825,15.9375Q60.725,15.35,60.475,14.8125Q60.225,14.275,59.725,13.975Q59.175,13.625,58.5125,13.75Q57.85,13.875,57.325,14.325Q56.8,14.775,56.625,15.425Q56.225,16.9,56.1,18.2625Q55.975,19.625,56.15,21.175Q56.225,21.8,56.4375,22.1Q56.65,22.4,57.2,22.675Q57.75,22.925,58.3,22.8625Q58.85,22.8,59.25,22.425Q59.6,22.075,59.8,21.7125Q60,21.35,60.15,20.875Q60.425,19.975,60.7375,19.0125Q61.05,18.05,60.95,16.975ZM71.75,7.975Q72.475,7.975,72.925,8.3625Q73.375,8.75,73.375,9.35Q73.375,10.175,72.8375,10.85Q72.3,11.525,71.575,11.525Q70.875,11.525,70.35,10.9625Q69.825,10.4,69.85,9.65Q69.85,8.925,70.4125,8.4375Q70.975,7.95,71.75,7.975ZM71.55,10.925Q72.1,10.9,72.4,10.5Q72.7,10.1,72.725,9.5Q72.725,8.95,72.4375,8.75Q72.15,8.55,71.65,8.55Q71.1,8.55,70.7875,8.925Q70.475,9.3,70.5,9.875Q70.575,10.875,71.55,10.925ZM70.75,19.575Q70.75,18.575,70.7375,17.575Q70.725,16.575,70.75,15.575Q70.75,15.2,70.85,14.8375Q70.95,14.475,71.5,14.4Q72.075,14.3,72.6,14.575Q73.125,14.85,73.25,15.325Q73.325,15.575,73.35,15.8375Q73.375,16.1,73.375,16.375Q73.35,18.575,73.3,20.7375Q73.25,22.9,73.175,25.075Q73.125,26.55,72.6,27.425Q72.075,28.3,70.575,28.45Q70.1,28.475,69.3125,28.4875Q68.525,28.5,68.025,28.4Q66.275,28.175,65.375,27.1625Q64.475,26.15,64.125,23.85Q64.075,23.425,64.1,22.975Q64.125,22.525,64.3,22.175Q64.425,21.9,64.775,21.6875Q65.125,21.475,65.425,21.475Q65.65,21.475,65.9,21.7875Q66.15,22.1,66.275,22.375Q66.425,22.725,66.4875,23.1375Q66.55,23.55,66.625,23.95Q66.8,24.8,67.2375,25.3875Q67.675,25.975,68.45,26.15Q69.05,26.3,69.7,26.0625Q70.35,25.825,70.525,25.225Q70.65,24.75,70.6625,24.1625Q70.675,23.575,70.7,23.1Q70.725,22.65,70.7375,22.0625Q70.75,21.475,70.75,20.9Q70.75,20.325,70.75,19.95Q70.75,19.575,70.75,19.575ZM71.275,24.375Q71.25,26.425,69.625,26.75Q68.55,26.975,67.675,26.5875Q66.8,26.2,66.45,25.275Q66.25,24.775,66.1875,24.2125Q66.125,23.65,65.95,23.1Q65.875,22.825,65.725,22.4625Q65.575,22.1,65.275,22.15Q65.025,22.15,64.9,22.5Q64.775,22.85,64.725,23.1Q64.575,24.5,65.0625,25.5875Q65.55,26.675,66.5625,27.2875Q67.575,27.9,68.975,27.925Q70.4,27.95,71.2,27.6375Q72,27.325,72.325,26.55Q72.65,25.775,72.65,24.4Q72.675,22.325,72.7,20.275Q72.725,18.225,72.725,16.175Q72.725,15.975,72.7,15.775Q72.675,15.575,72.6,15.425Q72.375,15.1,72.1,15.05Q71.75,14.975,71.5625,15.1375Q71.375,15.3,71.325,15.425Q71.25,15.825,71.2875,16.2625Q71.325,16.7,71.325,17.125Q71.325,17.375,71.325,18.0375Q71.325,18.7,71.325,19.575Q71.325,20.45,71.3125,21.375Q71.3,22.3,71.2875,23.1Q71.275,23.9,71.275,24.375ZM75.6,5.8Q75.625,4.925,76.1125,4.3375Q76.6,3.75,77.3,3.775Q77.725,3.775,78.1375,4.05Q78.55,4.325,78.825,4.7375Q79.1,5.15,79.1,5.6Q79.125,6.1,78.825,6.575Q78.525,7.05,78.075,7.35Q77.625,7.65,77.125,7.675Q76.45,7.675,76.025,7.1625Q75.6,6.65,75.6,5.8ZM76.225,5.8Q76.2,7.05,77.075,7.075Q77.625,7.1,78.0375,6.675Q78.45,6.25,78.475,5.675Q78.475,5.175,78.1125,4.775Q77.75,4.375,77.3,4.375Q76.825,4.35,76.55,4.7375Q76.275,5.125,76.225,5.8ZM75.825,13.2Q75.95,12.325,76.35,12Q76.75,11.675,77.325,11.75Q78.025,11.85,78.375,12.35Q78.725,12.85,78.725,13.675Q78.7,15.175,78.7375,16.6875Q78.775,18.2,78.75,19.7Q78.725,20.575,78.675,21.425Q78.625,22.275,78.575,23.15Q78.55,23.775,78.1,24.2375Q77.65,24.7,77.075,24.75Q76.375,24.8,76.1,24.4Q75.825,24,75.7,23.45Q75.6,23,75.5625,22.525Q75.525,22.05,75.525,21.575Q75.5,20.8,75.5,20.0375Q75.5,19.275,75.5,18.5Q75.5,18.5,75.5125,17.9375Q75.525,17.375,75.5625,16.5125Q75.6,15.65,75.675,14.75Q75.75,13.85,75.825,13.2ZM77.95,14.95Q77.95,14.525,77.9625,14.1Q77.975,13.675,77.925,13.275Q77.9,13.125,77.7375,12.95Q77.575,12.775,77.425,12.75Q77.375,12.725,77.175,12.675Q76.975,12.625,76.75,12.675Q76.525,12.725,76.375,13.025Q76.225,13.325,76.225,14.05Q76.25,15.35,76.2625,16.6125Q76.275,17.875,76.225,19.2Q76.2,20.05,76.2,21.075Q76.2,22.1,76.25,22.925Q76.275,23.175,76.3,23.5Q76.325,23.825,76.475,24.05Q76.625,24.275,77.05,24.25Q77.425,24.225,77.575,24Q77.725,23.775,77.7625,23.45Q77.8,23.125,77.8,22.875Q77.8,22.1,77.8125,21.0625Q77.825,20.025,77.85,18.9625Q77.875,17.9,77.8875,16.9875Q77.9,16.075,77.9125,15.5125Q77.925,14.95,77.95,14.95Z" fill="#FFFFFF" fill-opacity="1"/><path d="M46.5993,13.912Q46.6734,13.8629,46.7625,13.7875Q46.925,13.65,47.275,13.275Q48.05,12.4,48.6875,11.6125Q49.325,10.825,50.1,9.975Q50.45,9.55,51.125,9.425Q51.4327,9.36802,51.6833,9.38377Q51.7082,9.38533,51.7325,9.38762Q52.0005,9.41276,52.2,9.525Q52.45,9.65,52.6875,9.9Q52.925,10.15,52.9375,10.5125Q52.95,10.875,52.5,11.4Q52.075,11.875,51.4625,12.45Q50.85,13.025,50.525,13.375Q50.2,13.775,49.95,14.3125Q49.7,14.85,49.825,15.5Q50.15,16.95,50.45,18.3875Q50.75,19.825,51.025,21.3Q51.0686,21.492,51.1077,21.6886Q51.1099,21.6998,51.1116,21.7083Q51.1821,22.0654,51.2375,22.4375Q51.2912,22.798,51.3308,23.1538Q51.3321,23.1658,51.333,23.1739Q51.3565,23.3877,51.375,23.6Q51.425,24,51.2,24.325Q50.975,24.65,50.575,24.775Q50.275,24.875,49.925,24.8125Q49.575,24.75,49.3,24.275Q49.1368,24.003,49.0217,23.7163Q49.0118,23.6917,49.0021,23.6664Q48.9187,23.4499,48.8625,23.225Q48.725,22.675,48.6,22.125Q48.35,20.875,48.15,19.6125Q47.95,18.35,47.725,17.075Q47.675,16.8,47.625,16.4625Q47.575,16.125,47.075,16.15Q46.7,16.175,46.3,16.55Q45.9,16.925,45.875,17.3Q45.85,17.7,45.8625,18.15Q45.875,18.6,45.85,19.025Q45.75,20.175,45.6375,21.3125Q45.525,22.45,45.4,23.575Q45.3,24.3,45.0125,24.5625Q44.725,24.825,44.2,24.775Q43.05,24.65,43.05,23.375Q43.075,21.675,43.1125,19.975Q43.15,18.275,43.175,16.575Q43.2,15.275,43.2,14Q43.2,12.725,43.225,11.425Q43.225,11.15,43.2375,10.5Q43.25,9.85,43.2875,9.0125Q43.325,8.175,43.35,7.35Q43.375,6.525,43.4,5.8625Q43.425,5.2,43.425,4.925Q43.475,4.45,43.6875,4.1Q43.9,3.75,44.35,3.575Q45,3.325,45.4625,3.575Q45.925,3.825,45.9,4.525Q45.9,5.025,45.8875,5.9Q45.875,6.775,45.8375,7.8375L45.7625,9.9625Q45.725,11.025,45.7,11.9Q45.675,12.775,45.65,13.275Q45.65,13.2904,45.6494,13.3072Q45.6494,13.3086,45.6493,13.31Q45.6458,13.402,45.625,13.5375Q45.6,13.7,45.6,13.85Q45.593,13.9129,45.6036,13.9669Q45.625,14.0762,45.7181,14.1497Q45.7438,14.17,45.775,14.1875Q45.8529,14.2313,45.9271,14.2391Q45.9537,14.2419,45.9798,14.2401Q46.0677,14.2338,46.15,14.175Q46.375,14.025,46.4875,13.975Q46.5377,13.9527,46.5979,13.9129Q46.5986,13.9125,46.5993,13.912ZM49.3462,9.31753Q49.9257,8.63009,50.9429,8.44172Q51.9585,8.25364,52.6682,8.64122Q53.0634,8.843779999999999,53.4125,9.21125Q53.9113,9.73633,53.9369,10.47803Q53.9628,11.23,53.2593,12.0508Q52.7912,12.5743,52.1469,13.1791Q51.582,13.7094,51.2814,14.0301Q51.0465,14.3263,50.8567,14.7342Q50.7453,14.9738,50.8046,15.2981Q51.1291,16.746499999999997,51.4289,18.1832Q51.7291,19.6217,52.0045,21.0977Q52.135,21.6755,52.2266,22.2902Q52.3174,22.8996,52.3698,23.4969Q52.4587,24.2637,52.0222,24.8942Q51.6015,25.5019,50.8733,25.7295Q50.3498,25.9042,49.7492,25.7969Q48.9422,25.6528,48.4346,24.776Q48.0659,24.1619,47.8924,23.4675Q47.7523,22.9072,47.6249,22.3466L47.622,22.3339L47.6194,22.3211Q47.3655,21.0514,47.1623,19.769Q47.0171,18.8521,46.8586,17.9289Q46.8594,18.0241,46.8621,18.1222Q46.8758,18.6155,46.8483,19.0837L46.8475,19.0977L46.8462,19.1116Q46.7458,20.2671,46.6326,21.4109Q46.5195,22.5546,46.3939,23.6854L46.3924,23.6986L46.3906,23.7116Q46.2412,24.7947,45.6868,25.301Q45.0717,25.8625,44.1052,25.7705Q42.05,25.5472,42.05,23.375L42.1127,19.9566L42.1752,16.5566Q42.2,15.2655,42.2,14Q42.2,12.7155,42.2252,11.4058Q42.225,11.1404,42.2377,10.48077Q42.2504,9.81804,42.2885,8.96777Q42.3257,8.13758,42.3505,7.31972L42.4006,5.8289Q42.425,5.18116,42.425,4.925L42.425,4.87251L42.4305,4.82031Q42.5039,4.12251,42.8327,3.58102Q43.2213,2.9409799999999997,43.9875,2.643Q45.0706,2.22642,45.938,2.69529Q46.9391,3.23644,46.9,4.54144Q46.8998,5.04657,46.8874,5.91428Q46.8747,6.79989,46.8369,7.87277L46.7619,9.99777L46.6995,11.9322Q46.6918,12.1999,46.6842,12.4331Q47.352,11.6729,47.9103,10.9833Q48.5602,10.18048,49.3462,9.31753ZM45.7781,14.9639Q45.4001,14.9639,45.2,14.875Q45.025,14.75,45,14.6Q44.975,14.45,44.975,14.275L45.0043,13.85L45.0088,13.7843L45.075,12.825Q45.125,12.1,45.175,11.4Q45.2,11.125,45.225,10.475Q45.25,9.825,45.2875,9Q45.325,8.175,45.35,7.35Q45.375,6.525,45.4,5.875Q45.425,5.225,45.425,4.975Q45.425,4.775,45.35,4.4875Q45.275,4.2,44.975,4.2Q44.6,4.2,44.4375,4.325Q44.275,4.45,44.1,4.625Q44.015,4.75244,43.9842,4.925Q43.9791,4.95337,43.9755,4.982950000000001Q43.9753,4.9851399999999995,43.975,4.9875Q43.95,5.2,43.925,5.375Q43.925,5.6,43.9125,6.2Q43.9,6.8,43.875,7.575Q43.85,8.35,43.8375,9.125Q43.825,9.9,43.8125,10.5Q43.8,11.1,43.8,11.325L43.75,14.625Q43.725,16.275,43.675,17.925Q43.65,19.3,43.6125,20.675Q43.575,22.05,43.55,23.4Q43.55,23.725,43.675,23.9875Q43.8,24.25,44.25,24.225Q44.625,24.2,44.775,23.975Q44.8976,23.791,44.9367,23.5235Q44.9376,23.5177,44.9385,23.5113Q44.9459,23.4573,44.95,23.4Q45,22.1,45.0625,20.7625Q45.1043,19.8688,45.0958,18.9806Q45.0957,18.9685,45.0956,18.9594Q45.0912,18.5291,45.075,18.1Q45.025,17.2,45.3625,16.6625Q45.6135,16.2628,46.0788,15.9529Q46.2392,15.8461,46.425,15.75Q46.7408,15.5745,47.0293,15.5304Q47.0443,15.5281,47.0593,15.5262Q47.1373,15.5161,47.2133,15.5156Q47.4407,15.5144,47.65,15.6Q48.2,15.825,48.3,16.6Q48.425,17.4,48.55,18.2125Q48.675,19.025,48.775,19.825Q48.95,20.8,49.1125,21.7375Q49.1351,21.8676,49.1589,21.998Q49.1615,22.0121,49.1616,22.0127Q49.308,22.8109,49.5,23.6Q49.55,23.975,49.7625,24.2375Q49.975,24.5,50.425,24.375Q50.875,24.25,50.9625,23.925Q51.05,23.6,50.975,23.225Q50.925,22.875,50.8125,22.5Q50.7,22.125,50.625,21.8Q50.3,20.075,49.9375,18.3625Q49.575,16.65,49.25,14.925Q49.2,14.65,49.325,14.25Q49.45,13.85,49.9,13.325Q50.4,12.725,50.9375,12.3125Q51.475,11.9,51.925,11.275Q52.225,10.825,52.2,10.575Q52.175,10.325,51.9875,10.2Q51.8,10.075,51.6,10.05Q51.35,10,51.075,10.1125Q50.8,10.225,50.375,10.6125Q49.95,11,49.2,11.825Q48.675,12.45,48.325,12.9125Q47.975,13.375,47.575,13.825Q47.2779,14.1592,46.8153,14.5486Q46.6952,14.6497,46.5639,14.7545Q46.5544,14.7621,46.5459,14.7689Q46.5108,14.7969,46.475,14.825Q46.3495,14.9296,46.014,14.9554Q45.9996,14.9565,45.9847,14.9575Q45.9323,14.9609,45.875,14.9625Q45.8251,14.9639,45.7781,14.9639ZM44.7286,15.8334Q44.7506,15.8063,44.7732,15.7796L44.73,15.7604Q44.7293,15.7993,44.7286,15.8334ZM48.1145,14.7116Q48.1819,14.6429,48.2441,14.5757Q48.2359,14.6756,48.2365,14.7722Q48.1771,14.7403,48.1145,14.7116ZM34.5243,13.912Q34.5984,13.8629,34.6875,13.7875Q34.85,13.65,35.2,13.275Q35.975,12.4,36.6125,11.6125Q37.25,10.825,38.025,9.975Q38.375,9.55,39.05,9.425Q39.3577,9.36802,39.6083,9.38377Q39.6332,9.38533,39.6575,9.38762Q39.9255,9.41276,40.125,9.525Q40.375,9.65,40.6125,9.9Q40.85,10.15,40.8625,10.5125Q40.875,10.875,40.425,11.4Q40,11.875,39.3875,12.45Q38.775,13.025,38.45,13.375Q38.125,13.775,37.875,14.3125Q37.625,14.85,37.75,15.5Q38.075,16.95,38.375,18.3875Q38.675,19.825,38.95,21.3Q38.9936,21.4921,39.0327,21.6886Q39.0345,21.6977,39.0366,21.7083Q39.1071,22.0654,39.1625,22.4375Q39.2162,22.798,39.2558,23.1538Q39.2569,23.164,39.258,23.1739Q39.2815,23.3878,39.3,23.6Q39.35,24,39.125,24.325Q38.9,24.65,38.5,24.775Q38.2,24.875,37.85,24.8125Q37.5,24.75,37.225,24.275Q37.0618,24.0031,36.9467,23.7163Q36.9368,23.6915,36.9271,23.6664Q36.8437,23.4499,36.7875,23.225Q36.65,22.675,36.525,22.125Q36.275,20.875,36.075,19.6125Q35.875,18.35,35.65,17.075Q35.6,16.8,35.55,16.4625Q35.5,16.125,35,16.15Q34.625,16.175,34.225,16.55Q33.825,16.925,33.8,17.3Q33.775,17.7,33.7875,18.15Q33.8,18.6,33.775,19.025Q33.675,20.175,33.5625,21.3125Q33.45,22.45,33.325,23.575Q33.225,24.3,32.9375,24.5625Q32.65,24.825,32.125,24.775Q30.975,24.65,30.975,23.375Q31,21.675,31.0375,19.975Q31.075,18.275,31.1,16.575Q31.125,15.275,31.125,14Q31.125,12.725,31.15,11.425Q31.15,11.15,31.1625,10.5Q31.175,9.85,31.2125,9.0125Q31.25,8.175,31.275,7.35Q31.3,6.525,31.325,5.8625Q31.35,5.2,31.35,4.925Q31.4,4.45,31.6125,4.1Q31.825,3.75,32.275,3.575Q32.925,3.325,33.3875,3.575Q33.85,3.825,33.825,4.525Q33.825,5.025,33.8125,5.9Q33.8,6.775,33.7625,7.8375L33.6875,9.9625Q33.65,11.025,33.625,11.9Q33.6,12.775,33.575,13.275Q33.575,13.2903,33.5744,13.3072Q33.5744,13.3086,33.5743,13.31Q33.5708,13.402,33.55,13.5375Q33.525,13.7,33.525,13.85Q33.518,13.9129,33.5286,13.9669Q33.55,14.0762,33.6431,14.1497Q33.6688,14.17,33.7,14.1875Q33.7779,14.2313,33.8521,14.2391Q33.8787,14.2419,33.9048,14.24Q33.9927,14.2338,34.075,14.175Q34.3,14.025,34.4125,13.975Q34.4627,13.9527,34.5229,13.9129Q34.5236,13.9125,34.5243,13.912ZM37.2712,9.31758Q37.8506,8.630099999999999,38.8679,8.44172Q39.8835,8.25365,40.5932,8.641200000000001Q40.9884,8.84379,41.3375,9.21125Q41.8363,9.73633,41.8619,10.47804Q41.8878,11.23,41.1843,12.0508Q40.7162,12.5742,40.0719,13.1791Q39.507,13.7094,39.2064,14.0302Q38.9714,14.3263,38.7817,14.7342Q38.6703,14.9738,38.7296,15.2982Q39.0542,16.7471,39.3539,18.1832Q39.6542,19.6221,39.9295,21.0978Q40.06,21.6756,40.1516,22.2902Q40.2423,22.8996,40.2948,23.497Q40.3837,24.2637,39.9472,24.8942Q39.5265,25.5019,38.7983,25.7295Q38.2748,25.9042,37.6742,25.7969Q36.8672,25.6528,36.3596,24.776Q35.9909,24.1619,35.8174,23.4675Q35.6772,22.9071,35.5499,22.3466L35.547,22.3339L35.5444,22.3211Q35.2905,21.0514,35.0873,19.769Q34.9421,18.8523,34.7836,17.929Q34.7844,18.024,34.7871,18.1222Q34.8008,18.6155,34.7733,19.0837L34.7725,19.0977L34.7712,19.1116Q34.6707,20.2674,34.5576,21.4109Q34.4446,22.5544,34.3189,23.6854L34.3174,23.6986L34.3156,23.7116Q34.1662,24.7947,33.6118,25.301Q32.996700000000004,25.8626,32.0302,25.7705Q29.975,25.5472,29.975,23.375L30.0377,19.9566L30.1002,16.5566Q30.125,15.2654,30.125,14Q30.125,12.7154,30.1502,11.4058Q30.15,11.1404,30.1627,10.48077Q30.1754,9.81799,30.2135,8.96777Q30.2507,8.137609999999999,30.2755,7.31971L30.3256,5.8289Q30.35,5.18116,30.35,4.925L30.35,4.87251L30.3555,4.82031Q30.4289,4.12252,30.7577,3.58102Q31.1463,2.9409799999999997,31.9125,2.643Q32.995599999999996,2.22642,33.863,2.69529Q34.8641,3.23643,34.825,4.54136Q34.8248,5.04619,34.8124,5.91428Q34.7997,6.79977,34.7619,7.87277L34.6869,9.99777L34.6245,11.9322Q34.6168,12.1999,34.6092,12.4331Q35.277,11.6729,35.8353,10.9833Q36.4851,10.18057,37.2712,9.31758ZM33.7031,14.9639Q33.3251,14.9639,33.125,14.875Q32.95,14.75,32.925,14.6Q32.9,14.45,32.9,14.275L32.9293,13.85L32.933800000000005,13.7843L33,12.825Q33.05,12.1,33.1,11.4Q33.125,11.125,33.15,10.475Q33.175,9.825,33.2125,9Q33.25,8.175,33.275,7.35Q33.3,6.525,33.325,5.875Q33.35,5.225,33.35,4.975Q33.35,4.775,33.275,4.4875Q33.2,4.2,32.9,4.2Q32.525,4.2,32.3625,4.325Q32.2,4.45,32.025,4.625Q31.94,4.75244,31.9092,4.925Q31.9041,4.953390000000001,31.9005,4.982950000000001Q31.9003,4.98517,31.9,4.9875Q31.875,5.2,31.85,5.375Q31.85,5.6,31.8375,6.2Q31.825,6.8,31.8,7.575Q31.775,8.35,31.7625,9.125Q31.75,9.9,31.7375,10.5Q31.725,11.1,31.725,11.325L31.675,14.625Q31.65,16.275,31.6,17.925Q31.575,19.3,31.5375,20.675Q31.5,22.05,31.475,23.4Q31.475,23.725,31.6,23.9875Q31.725,24.25,32.175,24.225Q32.55,24.2,32.7,23.975Q32.8226,23.791,32.8617,23.5235Q32.8626,23.5173,32.8634,23.5113Q32.8709,23.4573,32.875,23.4Q32.925,22.1,32.9875,20.7625Q33.0293,19.8688,33.0208,18.9806Q33.0207,18.9721,33.0206,18.9594Q33.0162,18.529,33,18.1Q32.95,17.2,33.2875,16.6625Q33.5385,16.2628,34.0038,15.9529Q34.1642,15.8461,34.35,15.75Q34.6658,15.5745,34.9543,15.5304Q34.9694,15.5281,34.9843,15.5262Q35.0623,15.5161,35.1383,15.5156Q35.3657,15.5144,35.575,15.6Q36.125,15.825,36.225,16.6Q36.35,17.4,36.475,18.2125Q36.6,19.025,36.7,19.825Q36.875,20.8,37.0375,21.7375Q37.0601,21.8679,37.0839,21.998Q37.0855,22.0069,37.0866,22.0127Q37.233,22.8109,37.425,23.6Q37.475,23.975,37.6875,24.2375Q37.9,24.5,38.35,24.375Q38.8,24.25,38.8875,23.925Q38.975,23.6,38.9,23.225Q38.85,22.875,38.7375,22.5Q38.625,22.125,38.55,21.8Q38.225,20.075,37.8625,18.3625Q37.5,16.65,37.175,14.925Q37.125,14.65,37.25,14.25Q37.375,13.85,37.825,13.325Q38.325,12.725,38.8625,12.3125Q39.4,11.9,39.85,11.275Q40.15,10.825,40.125,10.575Q40.1,10.325,39.9125,10.2Q39.725,10.075,39.525,10.05Q39.275,10,39,10.1125Q38.725,10.225,38.3,10.6125Q37.875,11,37.125,11.825Q36.6,12.45,36.25,12.9125Q35.9,13.375,35.5,13.825Q35.2029,14.1592,34.7403,14.5486Q34.6202,14.6497,34.489,14.7545Q34.4801,14.7616,34.4709,14.7689Q34.4359,14.7968,34.4,14.825Q34.2745,14.9296,33.939,14.9554Q33.9245,14.9565,33.9097,14.9575Q33.8573,14.9609,33.8,14.9625Q33.7501,14.9639,33.7031,14.9639ZM32.6535,15.8334Q32.6755,15.8063,32.6982,15.7796L32.655,15.7604Q32.654399999999995,15.7916,32.6535,15.8334ZM36.1615,14.7722Q36.1609,14.6756,36.1691,14.5757Q36.1068,14.6429,36.0395,14.7116Q36.1021,14.7403,36.1615,14.7722ZM75.3429,3.69893Q74.6353,4.55178,74.6004,5.77143L74.6,5.78571L74.6,5.8Q74.6,7.01069,75.2552,7.80084Q75.9802,8.675,77.125,8.675L77.15,8.675L77.1749,8.67375Q77.9503,8.634979999999999,78.6297,8.18205Q79.2568,7.76398,79.6705,7.109Q80.1325,6.37756,80.0999,5.57481Q80.0926,4.83611,79.6571,4.1828Q79.2711,3.60389,78.6922,3.21795Q78.0361,2.78059,77.3183,2.77507Q76.1385,2.7401299999999997,75.3429,3.69893ZM77.3,3.775Q76.6,3.75,76.1125,4.3375Q75.625,4.925,75.6,5.8Q75.6,6.65,76.025,7.1625Q76.45,7.675,77.125,7.675Q77.625,7.65,78.075,7.35Q78.525,7.05,78.825,6.575Q79.125,6.1,79.1,5.6Q79.1,5.15,78.825,4.7375Q78.55,4.325,78.1375,4.05Q77.7403,3.78522,77.3316,3.77538Q77.3158,3.775,77.3,3.775ZM77.095,7.07576Q77.1101,7.07622,77.125,7.07634Q77.6439,7.08057,78.0375,6.675Q78.45,6.25,78.475,5.675Q78.475,5.175,78.1125,4.775Q77.75,4.375,77.3,4.375Q76.825,4.35,76.55,4.7375Q76.275,5.125,76.225,5.8Q76.2248,5.8086,76.2247,5.81785Q76.2063,7.05018,77.075,7.075Q77.085,7.07546,77.095,7.07576ZM77.2243,5.84757Q77.2226,5.9684,77.2282,6.0481Q77.2759,6.02392,77.3199,5.97853Q77.4581,5.83619,77.4743,5.65624Q77.4665,5.55133,77.3715,5.44652Q77.3396,5.41125,77.3217,5.39338Q77.2488,5.5524,77.2243,5.84757ZM9.2892,12.816Q9.3566,12.9268,9.42311,13.0376Q9.44346,13.0714,9.46375,13.1053Q9.50712,13.1778,9.55,13.25L9.9,13.25Q9.92264,13.2181,9.94472,13.1871Q9.94515,13.1865,9.94559,13.1859Q10.05093,13.0378,10.15696,12.8896Q10.25024,12.7592,10.344,12.6289Q10.80384,11.9894,11.275,11.35Q11.975,10.4,12.625,9.425Q13.4,8.325,14.125,7.2Q14.85,6.075,15.6,4.95Q15.6413,4.88398,15.6893,4.81522Q15.7018,4.79741,15.7147,4.77943Q15.8029,4.65648,15.9125,4.525Q16.1,4.3,16.3,4.225Q16.65,4.1,17.0375,4.05Q17.1393,4.03686,17.2385,4.032360000000001Q17.2673,4.0310500000000005,17.2959,4.03047Q17.5436,4.02542,17.775,4.075Q17.925,4.1,18.0625,4.4625Q18.2,4.825,18.2,5.1Q18.175,8.55,18.1125,12Q18.0657,14.5821,18.0259,17.1643Q18.0258,17.1723,18.0257,17.1802Q18.0125,18.0396,18,18.9Q18,19.75,18.05,20.6125Q18.1,21.475,18.175,22.325Q18.2,23.075,17.85,23.65Q17.5,24.225,16.775,24.45Q16.05,24.675,15.525,24.35Q15.4531,24.3055,15.3887,24.253Q15.2131,24.1099,15.0933,23.9076Q14.9362,23.6423,14.875,23.275Q14.825,22.9,14.825,22.5125L14.825,21.75Q14.8596,20.3993,14.9003,19.0486Q14.9018,18.996,14.9032,18.95Q14.9199,18.4002,14.9375,17.85Q15,15.9,15.025,13.925Q15.025,13.6587,15.0028,13.3925Q14.9917,13.2587,14.975,13.125L14.9122,12.6224L14.8946,12.4817L14.875,12.325Q14.825,12.325,14.675,12.275Q14.6374,12.315,14.6,12.3549Q14.5976,12.3574,14.5953,12.36Q14.2729,12.7045,13.9588,13.0573Q13.9231,13.0973,13.8875,13.1375Q13.5,13.575,13.15,14.075Q12.625,14.725,12.1375,15.4125Q11.65,16.1,11.15,16.775Q10.375,17.8,9.675,17.8125Q8.975,17.825,8.2,16.775Q7.6,15.95,7.075,15.0375Q6.76681,14.5018,6.45,13.9791Q6.22712,13.6113,6,13.25Q5.9,13.1,5.7875,12.95Q5.6916,12.8221,5.51396,12.7306Q5.4832,12.7148,5.45,12.7L5.45,16.6Q5.45,17.25,5.475,17.925Q5.5,18.6,5.5,19.275Q5.525,19.75,5.5375,20.2125Q5.55,20.675,5.525,21.15Q5.51199,21.4363,5.50236,21.7158Q5.50183,21.7313,5.5013,21.7469Q5.49313,21.9885,5.4875,22.225Q5.48068,22.5113,5.44784,22.7976Q5.44403,22.8308,5.43987,22.8641Q5.41414,23.0695,5.375,23.275Q5.275,23.85,4.7875,24.175Q4.3,24.5,3.725,24.45Q3.05,24.4,2.6375,24.025Q2.225,23.65,2.225,22.975Q2.225,21.7,2.2625,20.375Q2.3,19.05,2.325,17.75Q2.325,17.375,2.3625,16.9875Q2.4,16.6,2.375,16.2L2.225,11.9L2.075,7.6Q2.05,7.025,2.1125,6.4625Q2.14037,6.2117,2.16078,5.96339Q2.16162,5.95314,2.1624499999999998,5.94295Q2.18661,5.64468,2.2,5.35Q2.225,4.2,3.4,4Q4.625,3.775,5.175,4.9Q5.20459,4.962870000000001,5.23456,5.02663Q5.24164,5.04169,5.24639,5.0518Q5.80997,6.2509,6.3625,7.45Q6.95,8.725,7.6,9.975Q8.025,10.825,8.55,11.6375Q8.857,12.1126,9.14691,12.5835Q9.21861,12.6999,9.2892,12.816ZM14.7604,4.40662Q14.01,5.53242,13.2844,6.6583Q12.5706,7.76594,11.8075,8.84905L11.8001,8.859580000000001L11.7929,8.8703Q11.156,9.82574,10.46994,10.7568Q10.12088,11.2305,9.77795,11.7043Q9.58738,11.4004,9.38992,11.0948Q8.8948,10.32854,8.48722,9.51365Q7.84823,8.28482,7.26902,7.02784L6.07338,4.460789999999999Q5.19028,2.65444,3.2322,3.01418Q1.249681,3.35163,1.2005379999999999,5.31538Q1.1769,5.82752,1.118616,6.35207Q1.0475902,6.9913,1.0756079,7.63486L1.225608,11.9349L1.376088,16.2486L1.376947,16.2624Q1.396981,16.582900000000002,1.36715,16.891199999999998Q1.325,17.3267,1.325185,17.7308Q1.300272,19.0262,1.2629000000000001,20.3467Q1.225,21.6859,1.225,22.975Q1.225,24.0924,1.964827,24.7649Q2.63238,25.3718,3.63837,25.4462Q4.56284,25.5266,5.3422,25.007Q6.1867,24.4441,6.35734,23.4621Q6.47276,22.8562,6.48722,22.2488Q6.49946,21.7346,6.52362,21.2026Q6.55071,20.6878,6.53714,20.1855Q6.52464,19.723,6.49999,19.2487Q6.49951,18.5683,6.47431,17.888Q6.45,17.2315,6.45,16.6L6.45,15.9457Q6.89689,16.6834,7.39543,17.3689Q8.476880000000001,18.8341,9.69286,18.8123Q10.87926,18.7912,11.9536,17.3702Q12.4597,16.6869,12.9532,15.9909Q13.4226,15.329,13.9279,14.7033L13.9495,14.6766L13.9692,14.6485Q13.9923,14.6156,14.0155,14.5829Q13.9896,16.2095,13.9379,17.8212L13.825,21.7356L13.825,22.5125Q13.825,22.9664,13.8838,23.4072L13.8859,23.4233L13.8886,23.4394Q14.0881,24.6366,14.9986,25.2003Q15.9111,25.7651,17.0714,25.4051Q18.1576,25.068,18.7042,24.1699Q19.0738,23.5627,19.1543,22.8386Q19.5676,23.6884,20.3257,24.3356Q21.577,25.4037,23.4114,25.6403Q24.9924,25.8617,26.3222,25.1247Q27.6152,24.4081,28.4083,22.9437Q29.1033,21.634,29.5439,20.1922Q30.0099,18.6671,29.8731,16.9112Q29.842,16.2979,29.6597,15.5406L29.3276,14.1633Q29.0894,12.9412,28.2669,12.153Q27.4825,11.4013,26.3077,11.0838Q25.9251,10.98175,25.5175,10.87986Q25.0417,10.76091,24.5635,10.72865Q22.692,10.52127,21.285,11.454Q19.8681,12.3933,19.3664,14.1898Q19.1878,14.7533,19.0588,15.3026L19.1123,12.0181Q19.1749,8.562999999999999,19.2,5.1Q19.2,4.641719999999999,18.9975,4.10785Q18.6632,3.22639,17.9684,3.09379Q17.4583,2.9874099999999997,16.9095,3.05822Q16.415100000000002,3.12201,15.9489,3.28867Q15.5012,3.45656,15.1443,3.88482Q14.9191,4.154999999999999,14.7604,4.40662ZM24.475,11.725Q22.95,11.55,21.8375,12.2875Q20.725,13.025,20.325,14.475Q20.2364,14.7534,20.1607,15.0286Q20.1582,15.0374,20.1563,15.0443Q20.0849,15.3048,20.025,15.5625Q19.9,16.1,19.75,16.725Q19.5,17.875,19.5125,19.0375Q19.525,20.2,19.725,21.35Q19.95,22.7,20.975,23.575Q22,24.45,23.55,24.65Q24.8,24.825,25.8375,24.25Q26.875,23.675,27.525,22.475Q28.175,21.25,28.5875,19.9Q29,18.55,28.875,16.975Q28.85,16.45,28.6875,15.775Q28.525,15.1,28.35,14.375Q28.175,13.45,27.575,12.875Q26.975,12.3,26.05,12.05Q25.675,11.95,25.275,11.85Q24.875,11.75,24.475,11.725ZM20.825,15.25Q20.75,15.475,20.675,15.95Q20.6,16.425,20.5625,16.8875Q20.525,17.35,20.5,17.525Q20.425,18.2,20.4,18.9Q20.375,19.6,20.375,20.325Q20.35,21.85,21.45,23.075Q21.95,23.65,22.7125,23.9125Q23.475,24.175,24.2875,24.125Q25.1,24.075,25.7875,23.725Q26.475,23.375,26.825,22.7Q27.65,21.15,28.025,19.475Q28.2962,18.2637,28.2013,17Q28.2001,16.9836,28.1988,16.9673Q28.1619,16.4997,28.075,16.025Q27.875,14.875,27.425,14Q26.975,13.125,26.1375,12.65Q25.3,12.175,23.85,12.275Q22.925,12.325,22.2875,12.7875Q21.65,13.25,21.25,14.05Q21.125,14.325,21.025,14.625Q20.925,14.925,20.825,15.25ZM22.147,14.4577Q22.1485,14.4539,22.15,14.45Q22.6,13.275,23.85,13.225L24.5125,13.225Q24.825,13.225,25.15,13.275Q25.5159,13.3322,25.8059,13.4651Q25.8131,13.4684,25.8202,13.4718Q26.155,13.6285,26.3875,13.8875Q26.825,14.375,27,15Q27.175,15.625,27.2125,16.175Q27.2453,16.6556,27.2494,16.9262Q27.2496,16.9366,27.2497,16.9459Q27.25,16.9741,27.25,17Q27.3,18.45,27.0125,19.825Q26.725,21.2,25.925,22.425Q25.525,23.05,24.9375,23.2875Q24.35,23.525,23.45,23.35Q22.625,23.2,22.075,22.7375Q21.525,22.275,21.4,21.6Q21.05,19.75,21.2625,17.975Q21.2826,17.8075,21.3067,17.6402Q21.3085,17.6277,21.3104,17.615Q21.5404,16.0437,22.1339,14.4919Q22.1405,14.4747,22.147,14.4577ZM23.85,13.8737Q23.4453,14.0291,23.1,14.325Q22.575,14.775,22.4,15.425Q22,16.9,21.875,18.2625Q21.75,19.625,21.925,21.175Q22,21.8,22.2125,22.1Q22.425,22.4,22.975,22.675Q23.525,22.925,24.075,22.8625Q24.625,22.8,25.025,22.425Q25.375,22.075,25.575,21.7125Q25.775,21.35,25.925,20.875Q26.2,19.975,26.5125,19.0125Q26.825,18.05,26.725,16.975Q26.7,16.525,26.6,15.9375Q26.5,15.35,26.25,14.8125Q26,14.275,25.5,13.975Q24.95,13.625,24.2875,13.75Q24.0744,13.7902,23.8756,13.864Q23.8627,13.8688,23.85,13.8737ZM24.331,21.7047Q24.5713,21.4617,24.6994,21.2294Q24.8514,20.954,24.9714,20.5739Q25.2463,19.6743,25.5614,18.7037Q25.8102,17.9373,25.7293,17.0676L25.7276,17.0491L25.7265,17.0305Q25.7047,16.637,25.6142,16.1053Q25.5367,15.6501,25.3433,15.2342Q25.2226,14.9747,24.9855,14.8325L24.9742,14.8257L24.9631,14.8187Q24.7468,14.681,24.4729,14.7327Q24.0729,14.8081,23.7508,15.0843Q23.4603,15.3332,23.3656,15.685Q22.9879,17.0779,22.8708,18.3539Q22.7552,19.6145,22.9187,21.0628Q22.9627,21.429,23.0285,21.522Q23.0944,21.6149,23.4043,21.7716Q23.6941,21.8993,23.9621,21.8689Q24.1759,21.8446,24.331,21.7047ZM4.65,5.35Q5.3,6.525,5.8875,7.7375Q6.475,8.95,7.1,10.125Q7.55,11,8.0375,11.8625Q8.525,12.725,9.025,13.6Q9.30556,14.0757,9.60398,14.0872Q9.91716,14.0993,10.25,13.6Q11.6139,11.6351,12.9884,9.681Q12.9916,9.67631,12.9949,9.67163Q13.1032,9.51773,13.2125,9.3625Q14.7,7.25,16.225,5.15Q16.35,4.95,16.6125,4.7375Q16.875,4.525,17.125,4.6Q17.375,4.65,17.475,4.9625Q17.4869,4.9996,17.4973,5.03583Q17.4981,5.03831,17.4988,5.04093Q17.575,5.30677,17.575,5.525Q17.55,8.425,17.5,11.3375Q17.45,14.25,17.325,17.15Q17.3,18.375,17.225,19.5875Q17.15,20.8,17.525,22Q17.5618,22.1656,17.585,22.3447Q17.5871,22.3605,17.5891,22.3767Q17.595,22.4254,17.6,22.475Q17.625,22.725,17.525,22.9Q17.35,23.175,17.0625,23.4625Q16.775,23.75,16.5,23.75Q16.284399999999998,23.75,16.0503,23.4991Q16.012900000000002,23.459,15.975,23.4125Q15.9554,23.3884,15.9368,23.3647Q15.8514,23.2557,15.7875,23.1533Q15.7789,23.1395,15.7706,23.1257Q15.6668,22.9532,15.625,22.8Q15.5327,22.3017,15.4949,21.7693Q15.4942,21.7595,15.4936,21.75Q15.4812,21.5707,15.475,21.3875Q15.4675,21.1664,15.4578,20.9487Q15.435,20.4402,15.4,19.95L15.4003,19.95Q15.4252,19.9464,15.45,19.4125Q15.475,18.875,15.5,18Q15.525,17.125,15.55,16.1Q15.575,15.075,15.5875,14.075Q15.6,13.075,15.6,12.325Q15.6,12.125,15.5875,11.925Q15.575,11.725,15.525,11.55Q15.4948,11.4193,15.4445,11.325Q15.3696,11.1848,15.25,11.125Q15.0562,11.0281,14.7919,11.2599Q14.7835,11.2673,14.775,11.275Q14.525,11.5,14.25,11.85Q13.4859,12.7999,12.7474,13.7499Q12.7337,13.7675,12.7256,13.7779Q12.5812,13.9638,12.4375,14.15Q11.55,15.3,10.625,16.475Q10.12247,17.1001,9.64397,17.0822Q9.1465,17.0636,8.675,16.35Q7.9,15.175,7.175,14.0125Q6.81853,13.4409,6.45,12.8724Q6.39411,12.7862,6.33792,12.7Q6.01383,12.2029,5.68046,11.7081Q5.67773,11.7041,5.675,11.7Q5.575,11.5,5.3625,11.3Q5.15,11.1,4.925,11.175Q4.8154,11.2079,4.73704,11.2888Q4.63664,11.3925,4.5875,11.575Q4.5,11.9,4.5,12.125Q4.525,13.5,4.5625,14.8875Q4.6,16.275,4.675,17.675Q4.7,18.7,4.7875,19.725Q4.875,20.75,4.925,21.775Q4.95,22.025,4.975,22.2625Q5,22.5,4.95,22.775Q4.925,23.325,4.5125,23.6625Q4.1,24,3.6,23.975Q3.2,23.925,2.9125,23.5125Q2.625,23.1,2.65,22.55Q2.725,20.1,2.8125,17.65Q2.8386899999999997,16.916600000000003,2.85705,16.1832Q2.8572100000000002,16.1765,2.85738,16.1699Q2.9,14.4599,2.9,12.75Q2.925,11.05,2.875,9.3375Q2.825,7.625,2.775,5.925Q2.75,5.525,2.8,5.1625Q2.85,4.8,3.35,4.625Q3.85,4.45,4.1625,4.725Q4.475,5,4.65,5.35ZM11.0754,14.1646L14.0301,9.93823Q15.2836,8.15804,16.5638,6.38684L16.5001,11.3203Q16.5001,11.3225,16.5001,11.3246Q16.4968,11.3121,16.4934,11.2998Q16.3084,10.53616,15.6972,10.23057Q14.8843,9.82414,14.106,10.53171Q13.792,10.81438,13.4708,11.2232Q12.5394,12.3811,11.6458,13.539Q10.76134,14.6852,9.84562,15.8484Q9.75578,15.9602,9.68357,16.026Q9.60449,15.9428,9.50977,15.7994Q9.21672,15.3551,8.93097,14.9127Q9.24811,15.0875,9.61875,15.0875Q10.45569,15.0875,11.0754,14.1646ZM16.5567,22.2535Q16.5503,22.2329,16.5442,22.2125Q16.5631,22.3561,16.5868,22.4965Q16.5911,22.4909,16.595,22.4859Q16.579700000000003,22.3646,16.5567,22.2535ZM3.75612,19.3667L3.64945,22.5831Q3.63937,22.8065,3.7329,22.9407L3.72694,22.969Q3.80329,22.9507,3.87926,22.8885Q3.9463,22.8337,3.95103,22.7296L3.95409,22.6623L3.96613,22.5961Q3.99049,22.4621,3.98049,22.3672L3.92749,21.8504L3.92619,21.8237Q3.87707,20.8169,3.79112,19.8101Q3.7722,19.5884,3.75612,19.3667ZM3.90318,10.71548Q4.16958,10.36196,4.62313,10.2216Q5.40629,9.96797,6.04787,10.5718Q6.29666,10.80597,6.45949,11.0598Q6.33368,10.82144,6.21071,10.58235Q5.58328,9.40298,4.9875799999999995,8.173549999999999Q4.41187,6.98539,3.77497,5.83406L3.77101,5.82691Q3.77193,5.84471,3.77305,5.86262L3.77409,5.87915L3.87457,9.30821Q3.89515,10.01289,3.90318,10.71548ZM68.85,9.63321Q68.8565,8.46278,69.7576,7.68181Q70.6099,6.94308,71.766,6.97503Q72.8516,6.9796,73.5775,7.60473Q74.375,8.291450000000001,74.375,9.35Q74.375,10.52451,73.6198,11.4729Q72.782,12.525,71.575,12.525Q70.4405,12.525,69.6189,11.6448Q68.8175,10.78614,68.85,9.63321ZM71.75,7.975Q70.975,7.95,70.4125,8.4375Q69.85,8.925,69.85,9.65Q69.825,10.4,70.35,10.9625Q70.875,11.525,71.575,11.525Q72.3,11.525,72.8375,10.85Q73.375,10.175,73.375,9.35Q73.375,8.75,72.925,8.3625Q72.475,7.975,71.75,7.975ZM72.4,10.5Q72.1,10.9,71.55,10.925Q70.575,10.875,70.5,9.875Q70.475,9.3,70.7875,8.925Q71.1,8.55,71.65,8.55Q72.15,8.55,72.4375,8.75Q72.725,8.95,72.725,9.5Q72.7,10.1,72.4,10.5ZM71.564,9.9187Q71.5909,9.91208,71.6,9.89999Q71.6949,9.77349,71.719,9.55086Q71.6877,9.55,71.65,9.55Q71.5684,9.55,71.5557,9.56519Q71.4941,9.63909,71.4984,9.81281Q71.5084,9.8967,71.564,9.9187ZM63.5526,14.1633L63.8847,15.5406Q64.06700000000001,16.2979,64.0981,16.9112Q64.23490000000001,18.6671,63.7689,20.1922Q63.3283,21.634,62.6333,22.9437Q61.8402,24.4081,60.5473,25.1247Q59.2174,25.8617,57.6364,25.6403Q55.802,25.4037,54.5507,24.3356Q53.2485,23.2239,52.9636,21.5144Q52.7509,20.2916,52.7376,19.0483Q52.7238,17.7729,52.9978,16.5126L53.2769,15.3323Q53.408,14.7685,53.5913,14.1899Q54.0931,12.3933,55.51,11.454Q56.917,10.52127,58.7885,10.72865Q59.2667,10.76091,59.7425,10.87986Q60.1501,10.98175,60.5327,11.0838Q61.7075,11.4013,62.4919,12.153Q63.3144,12.9412,63.5526,14.1633ZM63.1,16.975Q63.225,18.55,62.8125,19.9Q62.4,21.25,61.75,22.475Q61.1,23.675,60.0625,24.25Q59.025,24.825,57.775,24.65Q56.225,24.45,55.2,23.575Q54.175,22.7,53.95,21.35Q53.75,20.2,53.7375,19.0375Q53.725,17.875,53.975,16.725Q54.125,16.1,54.25,15.5625Q54.3099,15.3048,54.3813,15.0442Q54.3836,15.0362,54.3857,15.0285Q54.4614,14.7534,54.55,14.475Q54.95,13.025,56.0625,12.2875Q57.175,11.55,58.7,11.725Q59.1,11.75,59.5,11.85Q59.9,11.95,60.275,12.05Q61.2,12.3,61.8,12.875Q62.4,13.45,62.575,14.375Q62.75,15.1,62.9125,15.775Q63.075,16.45,63.1,16.975ZM55.05,15.25Q54.975,15.475,54.9,15.95Q54.825,16.425,54.7875,16.8875Q54.75,17.35,54.725,17.525Q54.65,18.2,54.625,18.9Q54.6,19.6,54.6,20.325Q54.575,21.85,55.675,23.075Q56.175,23.65,56.9375,23.9125Q57.7,24.175,58.5125,24.125Q59.325,24.075,60.0125,23.725Q60.7,23.375,61.05,22.7Q61.875,21.15,62.25,19.475Q62.5212,18.2636,62.4263,17Q62.4252,16.9848,62.4238,16.9673Q62.3869,16.4997,62.3,16.025Q62.1,14.875,61.65,14Q61.2,13.125,60.3625,12.65Q59.525,12.175,58.075,12.275Q57.15,12.325,56.5125,12.7875Q55.875,13.25,55.475,14.05Q55.35,14.325,55.25,14.625Q55.15,14.925,55.05,15.25ZM55.5317,17.6403Q55.5075,17.8076,55.4875,17.975Q55.275,19.75,55.625,21.6Q55.75,22.275,56.3,22.7375Q56.85,23.2,57.675,23.35Q58.575,23.525,59.1625,23.2875Q59.75,23.05,60.15,22.425Q60.95,21.2,61.2375,19.825Q61.525,18.45,61.475,17Q61.475,16.9741,61.4747,16.9458Q61.4745,16.9359,61.4744,16.9262Q61.4703,16.6556,61.4375,16.175Q61.4,15.625,61.225,15Q61.05,14.375,60.6125,13.8875Q60.38,13.6285,60.0452,13.4718Q60.0381,13.4684,60.0309,13.4651Q59.7409,13.3322,59.375,13.275Q59.05,13.225,58.7375,13.225L58.075,13.225Q56.825,13.275,56.375,14.45Q56.3735,14.4539,56.372,14.4577Q56.3652,14.4756,56.3589,14.492Q55.7654,16.0437,55.5354,17.615Q55.5337,17.6263,55.5317,17.6403ZM58.075,13.8737Q57.6703,14.0291,57.325,14.325Q56.8,14.775,56.625,15.425Q56.225,16.9,56.1,18.2625Q55.975,19.625,56.15,21.175Q56.225,21.8,56.4375,22.1Q56.65,22.4,57.2,22.675Q57.75,22.925,58.3,22.8625Q58.85,22.8,59.25,22.425Q59.6,22.075,59.8,21.7125Q60,21.35,60.15,20.875Q60.425,19.975,60.7375,19.0125Q61.05,18.05,60.95,16.975Q60.925,16.525,60.825,15.9375Q60.725,15.35,60.475,14.8125Q60.225,14.275,59.725,13.975Q59.175,13.625,58.5125,13.75Q58.2994,13.7902,58.1006,13.864Q58.0878,13.8688,58.075,13.8737ZM58.556,21.7047Q58.7963,21.4617,58.9244,21.2294Q59.0764,20.954,59.1964,20.5739Q59.4712,19.6746,59.7864,18.7037Q60.0352,17.9373,59.9543,17.0676L59.9526,17.0491L59.9515,17.0305Q59.9297,16.637,59.8392,16.1053Q59.7617,15.6501,59.5683,15.2342Q59.4476,14.9747,59.2105,14.8325L59.1992,14.8257L59.1881,14.8187Q58.9718,14.681,58.6979,14.7327Q58.2979,14.8081,57.9758,15.0843Q57.6853,15.3332,57.5906,15.685Q57.2129,17.0779,57.0958,18.3539Q56.9802,19.6145,57.1437,21.0628Q57.1877,21.429,57.2535,21.522Q57.3194,21.6149,57.6294,21.7716Q57.9191,21.8993,58.1871,21.8689Q58.4009,21.8446,58.556,21.7047ZM75.7194,11.2239Q75.0154,11.7959,74.8351,13.0586L74.8331,13.072L74.8316,13.0854Q74.7548,13.7512,74.6785,14.667Q74.6018,15.5867,74.5634,16.469099999999997Q74.5255,17.3422,74.5127,17.9153L74.5,18.4889L74.5,20.0375Q74.5,20.8083,74.525,21.5914Q74.5256,22.0976,74.5656,22.6037Q74.6086,23.1485,74.7249,23.6716Q74.8924,24.4086,75.276,24.9665Q75.8753,25.8382,77.1616,25.7462Q78.1073,25.664,78.8167,24.9349Q79.5339,24.1978,79.5733,23.2079L79.6733,21.4837Q79.7242,20.6187,79.7499,19.7167Q79.7752,18.1959,79.7372,16.6627Q79.7002,15.1709,79.725,13.675Q79.725,12.5348,79.1942,11.7765Q78.5956,10.92136,77.4543,10.7584Q76.4531,10.6278,75.7194,11.2239ZM77.5827,11.8037Q77.4604,11.7693,77.325,11.75Q76.75,11.675,76.35,12Q75.95,12.325,75.825,13.2Q75.75,13.85,75.675,14.75Q75.6,15.65,75.5625,16.5125Q75.525,17.375,75.5125,17.9375L75.5,18.5L75.5,20.0375Q75.5,20.8,75.525,21.575Q75.525,22.05,75.5625,22.525Q75.6,23,75.7,23.45Q75.825,24,76.1,24.4Q76.375,24.8,77.075,24.75Q77.65,24.7,78.1,24.2375Q78.55,23.775,78.575,23.15Q78.625,22.275,78.675,21.425Q78.725,20.575,78.75,19.7Q78.775,18.2,78.7375,16.6875Q78.7283,16.3183,78.7229,15.95Q78.7207,15.7985,78.7191,15.6467Q78.7086,14.6582,78.725,13.675Q78.725,12.85,78.375,12.35Q78.1711,12.0587,77.8484,11.9032Q77.7244,11.8434,77.5827,11.8037ZM76.2472,18.5Q76.2471,18.5033,76.2467,18.5166Q76.238,18.8562,76.225,19.2Q76.2,20.05,76.2,21.075Q76.2,22.1,76.25,22.925Q76.275,23.175,76.3,23.5Q76.325,23.825,76.475,24.05Q76.625,24.275,77.05,24.25Q77.425,24.225,77.575,24Q77.725,23.775,77.7625,23.45Q77.8,23.125,77.8,22.875Q77.8,22.1,77.8125,21.0625Q77.825,20.025,77.85,18.9625Q77.875,17.9,77.8875,16.9875Q77.9,16.075,77.9125,15.5125Q77.925,14.95,77.95,14.95Q77.95,14.525,77.9625,14.1Q77.975,13.675,77.925,13.275Q77.9,13.125,77.7375,12.95Q77.575,12.775,77.425,12.75Q77.375,12.725,77.175,12.675Q76.975,12.625,76.75,12.675Q76.525,12.725,76.375,13.025Q76.3281,13.1189,76.2958,13.2543Q76.2943,13.2607,76.2929,13.2668Q76.225,13.5622,76.225,14.05Q76.25,15.35,76.2625,16.6125Q76.2717,17.5394,76.2472,18.5ZM76.9559,13.6448L76.9325,13.6451Q76.9475,13.6489,76.9563,13.6504Q76.9561,13.6476,76.9559,13.6448ZM69.7376,17.5875Q69.75,18.5813,69.75,19.575L69.75,20.9Q69.75,21.4642,69.7377,22.0412Q69.7256,22.6116,69.7014,23.0475Q69.6756,23.538,69.6627,24.1412Q69.653,24.5989,69.5625,24.9531Q69.5254,25.0616,69.3568,25.1232Q68.9949,25.2555,68.6925,25.1799L68.6814,25.1771L68.6703,25.1746Q68.2561,25.081,68.0396,24.7902Q67.7347,24.3808,67.6079,23.7657Q67.5361,23.3828,67.4762,22.9877Q67.3945,22.4487,67.1854,21.9612Q67.0088,21.5727,66.6809,21.1628Q66.1306,20.475,65.425,20.475Q64.8452,20.475,64.256,20.8327Q63.6524,21.1992,63.3981,21.7429Q63.1375,22.2722,63.1015,22.9195Q63.0717,23.4559,63.1319,23.9668L63.1338,23.9837L63.1364,24.0004Q63.5309,26.5931,64.6276,27.8269Q65.7673,29.109,67.8643,29.3875Q68.4598,29.5012,69.3284,29.4874Q70.1343,29.4746,70.6276,29.4486L70.6511,29.4474L70.6745,29.445Q72.6741,29.2451,73.4575,27.9395Q74.1157,26.8426,74.1744,25.1095Q74.2496,22.9287,74.2997,20.7606Q74.3499,18.5918,74.375,16.375Q74.375,16.052500000000002,74.3455,15.7427Q74.3119,15.3901,74.2124,15.053Q73.9709,14.1642,73.064,13.6892Q72.2464,13.2609,71.3468,13.4117Q70.1593,13.5808,69.886,14.5716Q69.7518,15.0581,69.75,15.5615Q69.7249,16.5746,69.7376,17.5875ZM71.5,14.4Q70.95,14.475,70.85,14.8375Q70.75,15.2,70.75,15.575Q70.725,16.575,70.7375,17.575Q70.75,18.575,70.75,19.575L70.75,20.9Q70.75,21.475,70.7375,22.0625Q70.725,22.65,70.7,23.1Q70.675,23.575,70.6625,24.1625Q70.65,24.75,70.525,25.225Q70.35,25.825,69.7,26.0625Q69.05,26.3,68.45,26.15Q67.675,25.975,67.2375,25.3875Q66.8,24.8,66.625,23.95Q66.55,23.55,66.4875,23.1375Q66.474,23.0482,66.4564,22.9619Q66.4543,22.9516,66.4519,22.9403Q66.3885,22.6398,66.275,22.375Q66.15,22.1,65.9,21.7875Q65.65,21.475,65.425,21.475Q65.3515,21.475,65.275,21.4878Q65.2225,21.4965,65.1686,21.5113Q64.9804,21.5628,64.775,21.6875Q64.425,21.9,64.3,22.175Q64.125,22.525,64.1,22.975Q64.075,23.425,64.125,23.85Q64.475,26.15,65.375,27.1625Q66.275,28.175,68.025,28.4Q68.525,28.5,69.3125,28.4875Q70.1,28.475,70.575,28.45Q72.075,28.3,72.6,27.425Q73.125,26.55,73.175,25.075Q73.25,22.9,73.3,20.7375Q73.35,18.575,73.375,16.375Q73.375,16.1,73.35,15.8375Q73.325,15.575,73.25,15.325Q73.125,14.85,72.6,14.575Q72.4194,14.4804,72.2328,14.4302Q72.2232,14.4276,72.2136,14.4251Q71.867,14.3362,71.5,14.4ZM72.1,15.05Q71.75,14.975,71.5625,15.1375Q71.375,15.3,71.325,15.425Q71.25,15.825,71.2875,16.2625Q71.325,16.7,71.325,17.125L71.325,19.575Q71.325,20.45,71.3125,21.375Q71.3,22.3,71.2875,23.1Q71.275,23.9,71.275,24.375Q71.25,26.425,69.625,26.75Q68.9235,26.8968,68.3071,26.7828Q68.2998,26.7815,68.2925,26.7801Q67.9722,26.7191,67.675,26.5875Q66.8,26.2,66.45,25.275Q66.25,24.775,66.1875,24.2125Q66.125,23.65,65.95,23.1Q65.875,22.825,65.725,22.4625Q65.575,22.1,65.275,22.15Q65.025,22.15,64.9,22.5Q64.775,22.85,64.725,23.1Q64.6884,23.4413,64.68979999999999,23.7641Q64.68979999999999,23.7731,64.6899,23.7836Q64.6974,24.7731,65.0625,25.5875Q65.55,26.675,66.5625,27.2875Q67.575,27.9,68.975,27.925Q69.8659,27.9406,70.5124,27.8244Q70.5271,27.8217,70.5418,27.819Q70.9115,27.7502,71.2,27.6375Q72,27.325,72.325,26.55Q72.65,25.775,72.65,24.4Q72.675,22.325,72.7,20.275Q72.725,18.225,72.725,16.175Q72.725,15.975,72.7,15.775Q72.675,15.575,72.6,15.425Q72.375,15.1,72.1,15.05Z" fill-rule="evenodd" fill="#FFFFFF" fill-opacity="1"/><path d="M46.5993,13.912Q46.6734,13.8629,46.7625,13.7875Q46.925,13.65,47.275,13.275Q48.05,12.4,48.6875,11.6125Q49.325,10.825,50.1,9.975Q50.45,9.55,51.125,9.425Q51.4327,9.36802,51.6833,9.38377Q51.7082,9.38533,51.7325,9.38762Q52.0005,9.41276,52.2,9.525Q52.45,9.65,52.6875,9.9Q52.925,10.15,52.9375,10.5125Q52.95,10.875,52.5,11.4Q52.075,11.875,51.4625,12.45Q50.85,13.025,50.525,13.375Q50.2,13.775,49.95,14.3125Q49.7,14.85,49.825,15.5Q50.15,16.95,50.45,18.3875Q50.75,19.825,51.025,21.3Q51.0686,21.492,51.1077,21.6886Q51.1099,21.6998,51.1116,21.7083Q51.1821,22.0654,51.2375,22.4375Q51.2912,22.798,51.3308,23.1538Q51.3321,23.1658,51.333,23.1739Q51.3565,23.3877,51.375,23.6Q51.425,24,51.2,24.325Q50.975,24.65,50.575,24.775Q50.275,24.875,49.925,24.8125Q49.575,24.75,49.3,24.275Q49.1368,24.003,49.0217,23.7163Q49.0118,23.6917,49.0021,23.6664Q48.9187,23.4499,48.8625,23.225Q48.725,22.675,48.6,22.125Q48.35,20.875,48.15,19.6125Q47.95,18.35,47.725,17.075Q47.675,16.8,47.625,16.4625Q47.575,16.125,47.075,16.15Q46.7,16.175,46.3,16.55Q45.9,16.925,45.875,17.3Q45.85,17.7,45.8625,18.15Q45.875,18.6,45.85,19.025Q45.75,20.175,45.6375,21.3125Q45.525,22.45,45.4,23.575Q45.3,24.3,45.0125,24.5625Q44.725,24.825,44.2,24.775Q43.05,24.65,43.05,23.375Q43.075,21.675,43.1125,19.975Q43.15,18.275,43.175,16.575Q43.2,15.275,43.2,14Q43.2,12.725,43.225,11.425Q43.225,11.15,43.2375,10.5Q43.25,9.85,43.2875,9.0125Q43.325,8.175,43.35,7.35Q43.375,6.525,43.4,5.8625Q43.425,5.2,43.425,4.925Q43.475,4.45,43.6875,4.1Q43.9,3.75,44.35,3.575Q45,3.325,45.4625,3.575Q45.925,3.825,45.9,4.525Q45.9,5.025,45.8875,5.9Q45.875,6.775,45.8375,7.8375L45.7625,9.9625Q45.725,11.025,45.7,11.9Q45.675,12.775,45.65,13.275Q45.65,13.2904,45.6494,13.3072Q45.6494,13.3086,45.6493,13.31Q45.6458,13.402,45.625,13.5375Q45.6,13.7,45.6,13.85Q45.593,13.9129,45.6036,13.9669Q45.625,14.0762,45.7181,14.1497Q45.7438,14.17,45.775,14.1875Q45.8529,14.2313,45.9271,14.2391Q45.9537,14.2419,45.9798,14.2401Q46.0677,14.2338,46.15,14.175Q46.375,14.025,46.4875,13.975Q46.5377,13.9527,46.5979,13.9129Q46.5986,13.9125,46.5993,13.912ZM49.3462,9.31753Q49.9257,8.63009,50.9429,8.44172Q51.9585,8.25364,52.6682,8.64122Q53.0634,8.843779999999999,53.4125,9.21125Q53.9113,9.73633,53.9369,10.47803Q53.9628,11.23,53.2593,12.0508Q52.7912,12.5743,52.1469,13.1791Q51.582,13.7094,51.2814,14.0301Q51.0465,14.3263,50.8567,14.7342Q50.7453,14.9738,50.8046,15.2981Q51.1291,16.746499999999997,51.4289,18.1832Q51.7291,19.6217,52.0045,21.0977Q52.135,21.6755,52.2266,22.2902Q52.3174,22.8996,52.3698,23.4969Q52.4587,24.2637,52.0222,24.8942Q51.6015,25.5019,50.8733,25.7295Q50.3498,25.9042,49.7492,25.7969Q48.9422,25.6528,48.4346,24.776Q48.0659,24.1619,47.8924,23.4675Q47.7523,22.9072,47.6249,22.3466L47.622,22.3339L47.6194,22.3211Q47.3655,21.0514,47.1623,19.769Q47.0171,18.8521,46.8586,17.9289Q46.8594,18.0241,46.8621,18.1222Q46.8758,18.6155,46.8483,19.0837L46.8475,19.0977L46.8462,19.1116Q46.7458,20.2671,46.6326,21.4109Q46.5195,22.5546,46.3939,23.6854L46.3924,23.6986L46.3906,23.7116Q46.2412,24.7947,45.6868,25.301Q45.0717,25.8625,44.1052,25.7705Q42.05,25.5472,42.05,23.375L42.1127,19.9566L42.1752,16.5566Q42.2,15.2655,42.2,14Q42.2,12.7155,42.2252,11.4058Q42.225,11.1404,42.2377,10.48077Q42.2504,9.81804,42.2885,8.96777Q42.3257,8.13758,42.3505,7.31972L42.4006,5.8289Q42.425,5.18116,42.425,4.925L42.425,4.87251L42.4305,4.82031Q42.5039,4.12251,42.8327,3.58102Q43.2213,2.9409799999999997,43.9875,2.643Q45.0706,2.22642,45.938,2.69529Q46.9391,3.23644,46.9,4.54144Q46.8998,5.04657,46.8874,5.91428Q46.8747,6.79989,46.8369,7.87277L46.7619,9.99777L46.6995,11.9322Q46.6918,12.1999,46.6842,12.4331Q47.352,11.6729,47.9103,10.9833Q48.5602,10.18048,49.3462,9.31753ZM45.7781,14.9639Q45.4001,14.9639,45.2,14.875Q45.025,14.75,45,14.6Q44.975,14.45,44.975,14.275L45.0043,13.85L45.0088,13.7843L45.075,12.825Q45.125,12.1,45.175,11.4Q45.2,11.125,45.225,10.475Q45.25,9.825,45.2875,9Q45.325,8.175,45.35,7.35Q45.375,6.525,45.4,5.875Q45.425,5.225,45.425,4.975Q45.425,4.775,45.35,4.4875Q45.275,4.2,44.975,4.2Q44.6,4.2,44.4375,4.325Q44.275,4.45,44.1,4.625Q44.015,4.75244,43.9842,4.925Q43.9791,4.95337,43.9755,4.982950000000001Q43.9753,4.9851399999999995,43.975,4.9875Q43.95,5.2,43.925,5.375Q43.925,5.6,43.9125,6.2Q43.9,6.8,43.875,7.575Q43.85,8.35,43.8375,9.125Q43.825,9.9,43.8125,10.5Q43.8,11.1,43.8,11.325L43.75,14.625Q43.725,16.275,43.675,17.925Q43.65,19.3,43.6125,20.675Q43.575,22.05,43.55,23.4Q43.55,23.725,43.675,23.9875Q43.8,24.25,44.25,24.225Q44.625,24.2,44.775,23.975Q44.8976,23.791,44.9367,23.5235Q44.9376,23.5177,44.9385,23.5113Q44.9459,23.4573,44.95,23.4Q45,22.1,45.0625,20.7625Q45.1043,19.8688,45.0958,18.9806Q45.0957,18.9685,45.0956,18.9594Q45.0912,18.5291,45.075,18.1Q45.025,17.2,45.3625,16.6625Q45.6135,16.2628,46.0788,15.9529Q46.2392,15.8461,46.425,15.75Q46.7408,15.5745,47.0293,15.5304Q47.0443,15.5281,47.0593,15.5262Q47.1373,15.5161,47.2133,15.5156Q47.4407,15.5144,47.65,15.6Q48.2,15.825,48.3,16.6Q48.425,17.4,48.55,18.2125Q48.675,19.025,48.775,19.825Q48.95,20.8,49.1125,21.7375Q49.1351,21.8676,49.1589,21.998Q49.1615,22.0121,49.1616,22.0127Q49.308,22.8109,49.5,23.6Q49.55,23.975,49.7625,24.2375Q49.975,24.5,50.425,24.375Q50.875,24.25,50.9625,23.925Q51.05,23.6,50.975,23.225Q50.925,22.875,50.8125,22.5Q50.7,22.125,50.625,21.8Q50.3,20.075,49.9375,18.3625Q49.575,16.65,49.25,14.925Q49.2,14.65,49.325,14.25Q49.45,13.85,49.9,13.325Q50.4,12.725,50.9375,12.3125Q51.475,11.9,51.925,11.275Q52.225,10.825,52.2,10.575Q52.175,10.325,51.9875,10.2Q51.8,10.075,51.6,10.05Q51.35,10,51.075,10.1125Q50.8,10.225,50.375,10.6125Q49.95,11,49.2,11.825Q48.675,12.45,48.325,12.9125Q47.975,13.375,47.575,13.825Q47.2779,14.1592,46.8153,14.5486Q46.6952,14.6497,46.5639,14.7545Q46.5544,14.7621,46.5459,14.7689Q46.5108,14.7969,46.475,14.825Q46.3495,14.9296,46.014,14.9554Q45.9996,14.9565,45.9847,14.9575Q45.9323,14.9609,45.875,14.9625Q45.8251,14.9639,45.7781,14.9639ZM44.7286,15.8334Q44.7506,15.8063,44.7732,15.7796L44.73,15.7604Q44.7293,15.7993,44.7286,15.8334ZM48.1145,14.7116Q48.1819,14.6429,48.2441,14.5757Q48.2359,14.6756,48.2365,14.7722Q48.1771,14.7403,48.1145,14.7116ZM34.5243,13.912Q34.5984,13.8629,34.6875,13.7875Q34.85,13.65,35.2,13.275Q35.975,12.4,36.6125,11.6125Q37.25,10.825,38.025,9.975Q38.375,9.55,39.05,9.425Q39.3577,9.36802,39.6083,9.38377Q39.6332,9.38533,39.6575,9.38762Q39.9255,9.41276,40.125,9.525Q40.375,9.65,40.6125,9.9Q40.85,10.15,40.8625,10.5125Q40.875,10.875,40.425,11.4Q40,11.875,39.3875,12.45Q38.775,13.025,38.45,13.375Q38.125,13.775,37.875,14.3125Q37.625,14.85,37.75,15.5Q38.075,16.95,38.375,18.3875Q38.675,19.825,38.95,21.3Q38.9936,21.4921,39.0327,21.6886Q39.0345,21.6977,39.0366,21.7083Q39.1071,22.0654,39.1625,22.4375Q39.2162,22.798,39.2558,23.1538Q39.2569,23.164,39.258,23.1739Q39.2815,23.3878,39.3,23.6Q39.35,24,39.125,24.325Q38.9,24.65,38.5,24.775Q38.2,24.875,37.85,24.8125Q37.5,24.75,37.225,24.275Q37.0618,24.0031,36.9467,23.7163Q36.9368,23.6915,36.9271,23.6664Q36.8437,23.4499,36.7875,23.225Q36.65,22.675,36.525,22.125Q36.275,20.875,36.075,19.6125Q35.875,18.35,35.65,17.075Q35.6,16.8,35.55,16.4625Q35.5,16.125,35,16.15Q34.625,16.175,34.225,16.55Q33.825,16.925,33.8,17.3Q33.775,17.7,33.7875,18.15Q33.8,18.6,33.775,19.025Q33.675,20.175,33.5625,21.3125Q33.45,22.45,33.325,23.575Q33.225,24.3,32.9375,24.5625Q32.65,24.825,32.125,24.775Q30.975,24.65,30.975,23.375Q31,21.675,31.0375,19.975Q31.075,18.275,31.1,16.575Q31.125,15.275,31.125,14Q31.125,12.725,31.15,11.425Q31.15,11.15,31.1625,10.5Q31.175,9.85,31.2125,9.0125Q31.25,8.175,31.275,7.35Q31.3,6.525,31.325,5.8625Q31.35,5.2,31.35,4.925Q31.4,4.45,31.6125,4.1Q31.825,3.75,32.275,3.575Q32.925,3.325,33.3875,3.575Q33.85,3.825,33.825,4.525Q33.825,5.025,33.8125,5.9Q33.8,6.775,33.7625,7.8375L33.6875,9.9625Q33.65,11.025,33.625,11.9Q33.6,12.775,33.575,13.275Q33.575,13.2903,33.5744,13.3072Q33.5744,13.3086,33.5743,13.31Q33.5708,13.402,33.55,13.5375Q33.525,13.7,33.525,13.85Q33.518,13.9129,33.5286,13.9669Q33.55,14.0762,33.6431,14.1497Q33.6688,14.17,33.7,14.1875Q33.7779,14.2313,33.8521,14.2391Q33.8787,14.2419,33.9048,14.24Q33.9927,14.2338,34.075,14.175Q34.3,14.025,34.4125,13.975Q34.4627,13.9527,34.5229,13.9129Q34.5236,13.9125,34.5243,13.912ZM37.2712,9.31758Q37.8506,8.630099999999999,38.8679,8.44172Q39.8835,8.25365,40.5932,8.641200000000001Q40.9884,8.84379,41.3375,9.21125Q41.8363,9.73633,41.8619,10.47804Q41.8878,11.23,41.1843,12.0508Q40.7162,12.5742,40.0719,13.1791Q39.507,13.7094,39.2064,14.0302Q38.9714,14.3263,38.7817,14.7342Q38.6703,14.9738,38.7296,15.2982Q39.0542,16.7471,39.3539,18.1832Q39.6542,19.6221,39.9295,21.0978Q40.06,21.6756,40.1516,22.2902Q40.2423,22.8996,40.2948,23.497Q40.3837,24.2637,39.9472,24.8942Q39.5265,25.5019,38.7983,25.7295Q38.2748,25.9042,37.6742,25.7969Q36.8672,25.6528,36.3596,24.776Q35.9909,24.1619,35.8174,23.4675Q35.6772,22.9071,35.5499,22.3466L35.547,22.3339L35.5444,22.3211Q35.2905,21.0514,35.0873,19.769Q34.9421,18.8523,34.7836,17.929Q34.7844,18.024,34.7871,18.1222Q34.8008,18.6155,34.7733,19.0837L34.7725,19.0977L34.7712,19.1116Q34.6707,20.2674,34.5576,21.4109Q34.4446,22.5544,34.3189,23.6854L34.3174,23.6986L34.3156,23.7116Q34.1662,24.7947,33.6118,25.301Q32.996700000000004,25.8626,32.0302,25.7705Q29.975,25.5472,29.975,23.375L30.0377,19.9566L30.1002,16.5566Q30.125,15.2654,30.125,14Q30.125,12.7154,30.1502,11.4058Q30.15,11.1404,30.1627,10.48077Q30.1754,9.81799,30.2135,8.96777Q30.2507,8.137609999999999,30.2755,7.31971L30.3256,5.8289Q30.35,5.18116,30.35,4.925L30.35,4.87251L30.3555,4.82031Q30.4289,4.12252,30.7577,3.58102Q31.1463,2.9409799999999997,31.9125,2.643Q32.995599999999996,2.22642,33.863,2.69529Q34.8641,3.23643,34.825,4.54136Q34.8248,5.04619,34.8124,5.91428Q34.7997,6.79977,34.7619,7.87277L34.6869,9.99777L34.6245,11.9322Q34.6168,12.1999,34.6092,12.4331Q35.277,11.6729,35.8353,10.9833Q36.4851,10.18057,37.2712,9.31758ZM33.7031,14.9639Q33.3251,14.9639,33.125,14.875Q32.95,14.75,32.925,14.6Q32.9,14.45,32.9,14.275L32.9293,13.85L32.933800000000005,13.7843L33,12.825Q33.05,12.1,33.1,11.4Q33.125,11.125,33.15,10.475Q33.175,9.825,33.2125,9Q33.25,8.175,33.275,7.35Q33.3,6.525,33.325,5.875Q33.35,5.225,33.35,4.975Q33.35,4.775,33.275,4.4875Q33.2,4.2,32.9,4.2Q32.525,4.2,32.3625,4.325Q32.2,4.45,32.025,4.625Q31.94,4.75244,31.9092,4.925Q31.9041,4.953390000000001,31.9005,4.982950000000001Q31.9003,4.98517,31.9,4.9875Q31.875,5.2,31.85,5.375Q31.85,5.6,31.8375,6.2Q31.825,6.8,31.8,7.575Q31.775,8.35,31.7625,9.125Q31.75,9.9,31.7375,10.5Q31.725,11.1,31.725,11.325L31.675,14.625Q31.65,16.275,31.6,17.925Q31.575,19.3,31.5375,20.675Q31.5,22.05,31.475,23.4Q31.475,23.725,31.6,23.9875Q31.725,24.25,32.175,24.225Q32.55,24.2,32.7,23.975Q32.8226,23.791,32.8617,23.5235Q32.8626,23.5173,32.8634,23.5113Q32.8709,23.4573,32.875,23.4Q32.925,22.1,32.9875,20.7625Q33.0293,19.8688,33.0208,18.9806Q33.0207,18.9721,33.0206,18.9594Q33.0162,18.529,33,18.1Q32.95,17.2,33.2875,16.6625Q33.5385,16.2628,34.0038,15.9529Q34.1642,15.8461,34.35,15.75Q34.6658,15.5745,34.9543,15.5304Q34.9694,15.5281,34.9843,15.5262Q35.0623,15.5161,35.1383,15.5156Q35.3657,15.5144,35.575,15.6Q36.125,15.825,36.225,16.6Q36.35,17.4,36.475,18.2125Q36.6,19.025,36.7,19.825Q36.875,20.8,37.0375,21.7375Q37.0601,21.8679,37.0839,21.998Q37.0855,22.0069,37.0866,22.0127Q37.233,22.8109,37.425,23.6Q37.475,23.975,37.6875,24.2375Q37.9,24.5,38.35,24.375Q38.8,24.25,38.8875,23.925Q38.975,23.6,38.9,23.225Q38.85,22.875,38.7375,22.5Q38.625,22.125,38.55,21.8Q38.225,20.075,37.8625,18.3625Q37.5,16.65,37.175,14.925Q37.125,14.65,37.25,14.25Q37.375,13.85,37.825,13.325Q38.325,12.725,38.8625,12.3125Q39.4,11.9,39.85,11.275Q40.15,10.825,40.125,10.575Q40.1,10.325,39.9125,10.2Q39.725,10.075,39.525,10.05Q39.275,10,39,10.1125Q38.725,10.225,38.3,10.6125Q37.875,11,37.125,11.825Q36.6,12.45,36.25,12.9125Q35.9,13.375,35.5,13.825Q35.2029,14.1592,34.7403,14.5486Q34.6202,14.6497,34.489,14.7545Q34.4801,14.7616,34.4709,14.7689Q34.4359,14.7968,34.4,14.825Q34.2745,14.9296,33.939,14.9554Q33.9245,14.9565,33.9097,14.9575Q33.8573,14.9609,33.8,14.9625Q33.7501,14.9639,33.7031,14.9639ZM32.6535,15.8334Q32.6755,15.8063,32.6982,15.7796L32.655,15.7604Q32.654399999999995,15.7916,32.6535,15.8334ZM36.1615,14.7722Q36.1609,14.6756,36.1691,14.5757Q36.1068,14.6429,36.0395,14.7116Q36.1021,14.7403,36.1615,14.7722ZM75.3429,3.69893Q74.6353,4.55178,74.6004,5.77143L74.6,5.78571L74.6,5.8Q74.6,7.01069,75.2552,7.80084Q75.9802,8.675,77.125,8.675L77.15,8.675L77.1749,8.67375Q77.9503,8.634979999999999,78.6297,8.18205Q79.2568,7.76398,79.6705,7.109Q80.1325,6.37756,80.0999,5.57481Q80.0926,4.83611,79.6571,4.1828Q79.2711,3.60389,78.6922,3.21795Q78.0361,2.78059,77.3183,2.77507Q76.1385,2.7401299999999997,75.3429,3.69893ZM77.3,3.775Q76.6,3.75,76.1125,4.3375Q75.625,4.925,75.6,5.8Q75.6,6.65,76.025,7.1625Q76.45,7.675,77.125,7.675Q77.625,7.65,78.075,7.35Q78.525,7.05,78.825,6.575Q79.125,6.1,79.1,5.6Q79.1,5.15,78.825,4.7375Q78.55,4.325,78.1375,4.05Q77.7403,3.78522,77.3316,3.77538Q77.3158,3.775,77.3,3.775ZM77.095,7.07576Q77.1101,7.07622,77.125,7.07634Q77.6439,7.08057,78.0375,6.675Q78.45,6.25,78.475,5.675Q78.475,5.175,78.1125,4.775Q77.75,4.375,77.3,4.375Q76.825,4.35,76.55,4.7375Q76.275,5.125,76.225,5.8Q76.2248,5.8086,76.2247,5.81785Q76.2063,7.05018,77.075,7.075Q77.085,7.07546,77.095,7.07576ZM77.2243,5.84757Q77.2226,5.9684,77.2282,6.0481Q77.2759,6.02392,77.3199,5.97853Q77.4581,5.83619,77.4743,5.65624Q77.4665,5.55133,77.3715,5.44652Q77.3396,5.41125,77.3217,5.39338Q77.2488,5.5524,77.2243,5.84757ZM9.2892,12.816Q9.3566,12.9268,9.42311,13.0376Q9.44346,13.0714,9.46375,13.1053Q9.50712,13.1778,9.55,13.25L9.9,13.25Q9.92264,13.2181,9.94472,13.1871Q9.94515,13.1865,9.94559,13.1859Q10.05093,13.0378,10.15696,12.8896Q10.25024,12.7592,10.344,12.6289Q10.80384,11.9894,11.275,11.35Q11.975,10.4,12.625,9.425Q13.4,8.325,14.125,7.2Q14.85,6.075,15.6,4.95Q15.6413,4.88398,15.6893,4.81522Q15.7018,4.79741,15.7147,4.77943Q15.8029,4.65648,15.9125,4.525Q16.1,4.3,16.3,4.225Q16.65,4.1,17.0375,4.05Q17.1393,4.03686,17.2385,4.032360000000001Q17.2673,4.0310500000000005,17.2959,4.03047Q17.5436,4.02542,17.775,4.075Q17.925,4.1,18.0625,4.4625Q18.2,4.825,18.2,5.1Q18.175,8.55,18.1125,12Q18.0657,14.5821,18.0259,17.1643Q18.0258,17.1723,18.0257,17.1802Q18.0125,18.0396,18,18.9Q18,19.75,18.05,20.6125Q18.1,21.475,18.175,22.325Q18.2,23.075,17.85,23.65Q17.5,24.225,16.775,24.45Q16.05,24.675,15.525,24.35Q15.4531,24.3055,15.3887,24.253Q15.2131,24.1099,15.0933,23.9076Q14.9362,23.6423,14.875,23.275Q14.825,22.9,14.825,22.5125L14.825,21.75Q14.8596,20.3993,14.9003,19.0486Q14.9018,18.996,14.9032,18.95Q14.9199,18.4002,14.9375,17.85Q15,15.9,15.025,13.925Q15.025,13.6587,15.0028,13.3925Q14.9917,13.2587,14.975,13.125L14.9122,12.6224L14.8946,12.4817L14.875,12.325Q14.825,12.325,14.675,12.275Q14.6374,12.315,14.6,12.3549Q14.5976,12.3574,14.5953,12.36Q14.2729,12.7045,13.9588,13.0573Q13.9231,13.0973,13.8875,13.1375Q13.5,13.575,13.15,14.075Q12.625,14.725,12.1375,15.4125Q11.65,16.1,11.15,16.775Q10.375,17.8,9.675,17.8125Q8.975,17.825,8.2,16.775Q7.6,15.95,7.075,15.0375Q6.76681,14.5018,6.45,13.9791Q6.22712,13.6113,6,13.25Q5.9,13.1,5.7875,12.95Q5.6916,12.8221,5.51396,12.7306Q5.4832,12.7148,5.45,12.7L5.45,16.6Q5.45,17.25,5.475,17.925Q5.5,18.6,5.5,19.275Q5.525,19.75,5.5375,20.2125Q5.55,20.675,5.525,21.15Q5.51199,21.4363,5.50236,21.7158Q5.50183,21.7313,5.5013,21.7469Q5.49313,21.9885,5.4875,22.225Q5.48068,22.5113,5.44784,22.7976Q5.44403,22.8308,5.43987,22.8641Q5.41414,23.0695,5.375,23.275Q5.275,23.85,4.7875,24.175Q4.3,24.5,3.725,24.45Q3.05,24.4,2.6375,24.025Q2.225,23.65,2.225,22.975Q2.225,21.7,2.2625,20.375Q2.3,19.05,2.325,17.75Q2.325,17.375,2.3625,16.9875Q2.4,16.6,2.375,16.2L2.225,11.9L2.075,7.6Q2.05,7.025,2.1125,6.4625Q2.14037,6.2117,2.16078,5.96339Q2.16162,5.95314,2.1624499999999998,5.94295Q2.18661,5.64468,2.2,5.35Q2.225,4.2,3.4,4Q4.625,3.775,5.175,4.9Q5.20459,4.962870000000001,5.23456,5.02663Q5.24164,5.04169,5.24639,5.0518Q5.80997,6.2509,6.3625,7.45Q6.95,8.725,7.6,9.975Q8.025,10.825,8.55,11.6375Q8.857,12.1126,9.14691,12.5835Q9.21861,12.6999,9.2892,12.816ZM14.7604,4.40662Q14.01,5.53242,13.2844,6.6583Q12.5706,7.76594,11.8075,8.84905L11.8001,8.859580000000001L11.7929,8.8703Q11.156,9.82574,10.46994,10.7568Q10.12088,11.2305,9.77795,11.7043Q9.58738,11.4004,9.38992,11.0948Q8.8948,10.32854,8.48722,9.51365Q7.84823,8.28482,7.26902,7.02784L6.07338,4.460789999999999Q5.19028,2.65444,3.2322,3.01418Q1.249681,3.35163,1.2005379999999999,5.31538Q1.1769,5.82752,1.118616,6.35207Q1.0475902,6.9913,1.0756079,7.63486L1.225608,11.9349L1.376088,16.2486L1.376947,16.2624Q1.396981,16.582900000000002,1.36715,16.891199999999998Q1.325,17.3267,1.325185,17.7308Q1.300272,19.0262,1.2629000000000001,20.3467Q1.225,21.6859,1.225,22.975Q1.225,24.0924,1.964827,24.7649Q2.63238,25.3718,3.63837,25.4462Q4.56284,25.5266,5.3422,25.007Q6.1867,24.4441,6.35734,23.4621Q6.47276,22.8562,6.48722,22.2488Q6.49946,21.7346,6.52362,21.2026Q6.55071,20.6878,6.53714,20.1855Q6.52464,19.723,6.49999,19.2487Q6.49951,18.5683,6.47431,17.888Q6.45,17.2315,6.45,16.6L6.45,15.9457Q6.89689,16.6834,7.39543,17.3689Q8.476880000000001,18.8341,9.69286,18.8123Q10.87926,18.7912,11.9536,17.3702Q12.4597,16.6869,12.9532,15.9909Q13.4226,15.329,13.9279,14.7033L13.9495,14.6766L13.9692,14.6485Q13.9923,14.6156,14.0155,14.5829Q13.9896,16.2095,13.9379,17.8212L13.825,21.7356L13.825,22.5125Q13.825,22.9664,13.8838,23.4072L13.8859,23.4233L13.8886,23.4394Q14.0881,24.6366,14.9986,25.2003Q15.9111,25.7651,17.0714,25.4051Q18.1576,25.068,18.7042,24.1699Q19.0738,23.5627,19.1543,22.8386Q19.5676,23.6884,20.3257,24.3356Q21.577,25.4037,23.4114,25.6403Q24.9924,25.8617,26.3222,25.1247Q27.6152,24.4081,28.4083,22.9437Q29.1033,21.634,29.5439,20.1922Q30.0099,18.6671,29.8731,16.9112Q29.842,16.2979,29.6597,15.5406L29.3276,14.1633Q29.0894,12.9412,28.2669,12.153Q27.4825,11.4013,26.3077,11.0838Q25.9251,10.98175,25.5175,10.87986Q25.0417,10.76091,24.5635,10.72865Q22.692,10.52127,21.285,11.454Q19.8681,12.3933,19.3664,14.1898Q19.1878,14.7533,19.0588,15.3026L19.1123,12.0181Q19.1749,8.562999999999999,19.2,5.1Q19.2,4.641719999999999,18.9975,4.10785Q18.6632,3.22639,17.9684,3.09379Q17.4583,2.9874099999999997,16.9095,3.05822Q16.415100000000002,3.12201,15.9489,3.28867Q15.5012,3.45656,15.1443,3.88482Q14.9191,4.154999999999999,14.7604,4.40662ZM24.475,11.725Q22.95,11.55,21.8375,12.2875Q20.725,13.025,20.325,14.475Q20.2364,14.7534,20.1607,15.0286Q20.1582,15.0374,20.1563,15.0443Q20.0849,15.3048,20.025,15.5625Q19.9,16.1,19.75,16.725Q19.5,17.875,19.5125,19.0375Q19.525,20.2,19.725,21.35Q19.95,22.7,20.975,23.575Q22,24.45,23.55,24.65Q24.8,24.825,25.8375,24.25Q26.875,23.675,27.525,22.475Q28.175,21.25,28.5875,19.9Q29,18.55,28.875,16.975Q28.85,16.45,28.6875,15.775Q28.525,15.1,28.35,14.375Q28.175,13.45,27.575,12.875Q26.975,12.3,26.05,12.05Q25.675,11.95,25.275,11.85Q24.875,11.75,24.475,11.725ZM20.825,15.25Q20.75,15.475,20.675,15.95Q20.6,16.425,20.5625,16.8875Q20.525,17.35,20.5,17.525Q20.425,18.2,20.4,18.9Q20.375,19.6,20.375,20.325Q20.35,21.85,21.45,23.075Q21.95,23.65,22.7125,23.9125Q23.475,24.175,24.2875,24.125Q25.1,24.075,25.7875,23.725Q26.475,23.375,26.825,22.7Q27.65,21.15,28.025,19.475Q28.2962,18.2637,28.2013,17Q28.2001,16.9836,28.1988,16.9673Q28.1619,16.4997,28.075,16.025Q27.875,14.875,27.425,14Q26.975,13.125,26.1375,12.65Q25.3,12.175,23.85,12.275Q22.925,12.325,22.2875,12.7875Q21.65,13.25,21.25,14.05Q21.125,14.325,21.025,14.625Q20.925,14.925,20.825,15.25ZM22.147,14.4577Q22.1485,14.4539,22.15,14.45Q22.6,13.275,23.85,13.225L24.5125,13.225Q24.825,13.225,25.15,13.275Q25.5159,13.3322,25.8059,13.4651Q25.8131,13.4684,25.8202,13.4718Q26.155,13.6285,26.3875,13.8875Q26.825,14.375,27,15Q27.175,15.625,27.2125,16.175Q27.2453,16.6556,27.2494,16.9262Q27.2496,16.9366,27.2497,16.9459Q27.25,16.9741,27.25,17Q27.3,18.45,27.0125,19.825Q26.725,21.2,25.925,22.425Q25.525,23.05,24.9375,23.2875Q24.35,23.525,23.45,23.35Q22.625,23.2,22.075,22.7375Q21.525,22.275,21.4,21.6Q21.05,19.75,21.2625,17.975Q21.2826,17.8075,21.3067,17.6402Q21.3085,17.6277,21.3104,17.615Q21.5404,16.0437,22.1339,14.4919Q22.1405,14.4747,22.147,14.4577ZM23.85,13.8737Q23.4453,14.0291,23.1,14.325Q22.575,14.775,22.4,15.425Q22,16.9,21.875,18.2625Q21.75,19.625,21.925,21.175Q22,21.8,22.2125,22.1Q22.425,22.4,22.975,22.675Q23.525,22.925,24.075,22.8625Q24.625,22.8,25.025,22.425Q25.375,22.075,25.575,21.7125Q25.775,21.35,25.925,20.875Q26.2,19.975,26.5125,19.0125Q26.825,18.05,26.725,16.975Q26.7,16.525,26.6,15.9375Q26.5,15.35,26.25,14.8125Q26,14.275,25.5,13.975Q24.95,13.625,24.2875,13.75Q24.0744,13.7902,23.8756,13.864Q23.8627,13.8688,23.85,13.8737ZM24.331,21.7047Q24.5713,21.4617,24.6994,21.2294Q24.8514,20.954,24.9714,20.5739Q25.2463,19.6743,25.5614,18.7037Q25.8102,17.9373,25.7293,17.0676L25.7276,17.0491L25.7265,17.0305Q25.7047,16.637,25.6142,16.1053Q25.5367,15.6501,25.3433,15.2342Q25.2226,14.9747,24.9855,14.8325L24.9742,14.8257L24.9631,14.8187Q24.7468,14.681,24.4729,14.7327Q24.0729,14.8081,23.7508,15.0843Q23.4603,15.3332,23.3656,15.685Q22.9879,17.0779,22.8708,18.3539Q22.7552,19.6145,22.9187,21.0628Q22.9627,21.429,23.0285,21.522Q23.0944,21.6149,23.4043,21.7716Q23.6941,21.8993,23.9621,21.8689Q24.1759,21.8446,24.331,21.7047ZM4.65,5.35Q5.3,6.525,5.8875,7.7375Q6.475,8.95,7.1,10.125Q7.55,11,8.0375,11.8625Q8.525,12.725,9.025,13.6Q9.30556,14.0757,9.60398,14.0872Q9.91716,14.0993,10.25,13.6Q11.6139,11.6351,12.9884,9.681Q12.9916,9.67631,12.9949,9.67163Q13.1032,9.51773,13.2125,9.3625Q14.7,7.25,16.225,5.15Q16.35,4.95,16.6125,4.7375Q16.875,4.525,17.125,4.6Q17.375,4.65,17.475,4.9625Q17.4869,4.9996,17.4973,5.03583Q17.4981,5.03831,17.4988,5.04093Q17.575,5.30677,17.575,5.525Q17.55,8.425,17.5,11.3375Q17.45,14.25,17.325,17.15Q17.3,18.375,17.225,19.5875Q17.15,20.8,17.525,22Q17.5618,22.1656,17.585,22.3447Q17.5871,22.3605,17.5891,22.3767Q17.595,22.4254,17.6,22.475Q17.625,22.725,17.525,22.9Q17.35,23.175,17.0625,23.4625Q16.775,23.75,16.5,23.75Q16.284399999999998,23.75,16.0503,23.4991Q16.012900000000002,23.459,15.975,23.4125Q15.9554,23.3884,15.9368,23.3647Q15.8514,23.2557,15.7875,23.1533Q15.7789,23.1395,15.7706,23.1257Q15.6668,22.9532,15.625,22.8Q15.5327,22.3017,15.4949,21.7693Q15.4942,21.7595,15.4936,21.75Q15.4812,21.5707,15.475,21.3875Q15.4675,21.1664,15.4578,20.9487Q15.435,20.4402,15.4,19.95L15.4003,19.95Q15.4252,19.9464,15.45,19.4125Q15.475,18.875,15.5,18Q15.525,17.125,15.55,16.1Q15.575,15.075,15.5875,14.075Q15.6,13.075,15.6,12.325Q15.6,12.125,15.5875,11.925Q15.575,11.725,15.525,11.55Q15.4948,11.4193,15.4445,11.325Q15.3696,11.1848,15.25,11.125Q15.0562,11.0281,14.7919,11.2599Q14.7835,11.2673,14.775,11.275Q14.525,11.5,14.25,11.85Q13.4859,12.7999,12.7474,13.7499Q12.7337,13.7675,12.7256,13.7779Q12.5812,13.9638,12.4375,14.15Q11.55,15.3,10.625,16.475Q10.12247,17.1001,9.64397,17.0822Q9.1465,17.0636,8.675,16.35Q7.9,15.175,7.175,14.0125Q6.81853,13.4409,6.45,12.8724Q6.39411,12.7862,6.33792,12.7Q6.01383,12.2029,5.68046,11.7081Q5.67773,11.7041,5.675,11.7Q5.575,11.5,5.3625,11.3Q5.15,11.1,4.925,11.175Q4.8154,11.2079,4.73704,11.2888Q4.63664,11.3925,4.5875,11.575Q4.5,11.9,4.5,12.125Q4.525,13.5,4.5625,14.8875Q4.6,16.275,4.675,17.675Q4.7,18.7,4.7875,19.725Q4.875,20.75,4.925,21.775Q4.95,22.025,4.975,22.2625Q5,22.5,4.95,22.775Q4.925,23.325,4.5125,23.6625Q4.1,24,3.6,23.975Q3.2,23.925,2.9125,23.5125Q2.625,23.1,2.65,22.55Q2.725,20.1,2.8125,17.65Q2.8386899999999997,16.916600000000003,2.85705,16.1832Q2.8572100000000002,16.1765,2.85738,16.1699Q2.9,14.4599,2.9,12.75Q2.925,11.05,2.875,9.3375Q2.825,7.625,2.775,5.925Q2.75,5.525,2.8,5.1625Q2.85,4.8,3.35,4.625Q3.85,4.45,4.1625,4.725Q4.475,5,4.65,5.35ZM11.0754,14.1646L14.0301,9.93823Q15.2836,8.15804,16.5638,6.38684L16.5001,11.3203Q16.5001,11.3225,16.5001,11.3246Q16.4968,11.3121,16.4934,11.2998Q16.3084,10.53616,15.6972,10.23057Q14.8843,9.82414,14.106,10.53171Q13.792,10.81438,13.4708,11.2232Q12.5394,12.3811,11.6458,13.539Q10.76134,14.6852,9.84562,15.8484Q9.75578,15.9602,9.68357,16.026Q9.60449,15.9428,9.50977,15.7994Q9.21672,15.3551,8.93097,14.9127Q9.24811,15.0875,9.61875,15.0875Q10.45569,15.0875,11.0754,14.1646ZM16.5567,22.2535Q16.5503,22.2329,16.5442,22.2125Q16.5631,22.3561,16.5868,22.4965Q16.5911,22.4909,16.595,22.4859Q16.579700000000003,22.3646,16.5567,22.2535ZM3.75612,19.3667L3.64945,22.5831Q3.63937,22.8065,3.7329,22.9407L3.72694,22.969Q3.80329,22.9507,3.87926,22.8885Q3.9463,22.8337,3.95103,22.7296L3.95409,22.6623L3.96613,22.5961Q3.99049,22.4621,3.98049,22.3672L3.92749,21.8504L3.92619,21.8237Q3.87707,20.8169,3.79112,19.8101Q3.7722,19.5884,3.75612,19.3667ZM3.90318,10.71548Q4.16958,10.36196,4.62313,10.2216Q5.40629,9.96797,6.04787,10.5718Q6.29666,10.80597,6.45949,11.0598Q6.33368,10.82144,6.21071,10.58235Q5.58328,9.40298,4.9875799999999995,8.173549999999999Q4.41187,6.98539,3.77497,5.83406L3.77101,5.82691Q3.77193,5.84471,3.77305,5.86262L3.77409,5.87915L3.87457,9.30821Q3.89515,10.01289,3.90318,10.71548ZM68.85,9.63321Q68.8565,8.46278,69.7576,7.68181Q70.6099,6.94308,71.766,6.97503Q72.8516,6.9796,73.5775,7.60473Q74.375,8.291450000000001,74.375,9.35Q74.375,10.52451,73.6198,11.4729Q72.782,12.525,71.575,12.525Q70.4405,12.525,69.6189,11.6448Q68.8175,10.78614,68.85,9.63321ZM71.75,7.975Q70.975,7.95,70.4125,8.4375Q69.85,8.925,69.85,9.65Q69.825,10.4,70.35,10.9625Q70.875,11.525,71.575,11.525Q72.3,11.525,72.8375,10.85Q73.375,10.175,73.375,9.35Q73.375,8.75,72.925,8.3625Q72.475,7.975,71.75,7.975ZM72.4,10.5Q72.1,10.9,71.55,10.925Q70.575,10.875,70.5,9.875Q70.475,9.3,70.7875,8.925Q71.1,8.55,71.65,8.55Q72.15,8.55,72.4375,8.75Q72.725,8.95,72.725,9.5Q72.7,10.1,72.4,10.5ZM71.564,9.9187Q71.5909,9.91208,71.6,9.89999Q71.6949,9.77349,71.719,9.55086Q71.6877,9.55,71.65,9.55Q71.5684,9.55,71.5557,9.56519Q71.4941,9.63909,71.4984,9.81281Q71.5084,9.8967,71.564,9.9187ZM63.5526,14.1633L63.8847,15.5406Q64.06700000000001,16.2979,64.0981,16.9112Q64.23490000000001,18.6671,63.7689,20.1922Q63.3283,21.634,62.6333,22.9437Q61.8402,24.4081,60.5473,25.1247Q59.2174,25.8617,57.6364,25.6403Q55.802,25.4037,54.5507,24.3356Q53.2485,23.2239,52.9636,21.5144Q52.7509,20.2916,52.7376,19.0483Q52.7238,17.7729,52.9978,16.5126L53.2769,15.3323Q53.408,14.7685,53.5913,14.1899Q54.0931,12.3933,55.51,11.454Q56.917,10.52127,58.7885,10.72865Q59.2667,10.76091,59.7425,10.87986Q60.1501,10.98175,60.5327,11.0838Q61.7075,11.4013,62.4919,12.153Q63.3144,12.9412,63.5526,14.1633ZM63.1,16.975Q63.225,18.55,62.8125,19.9Q62.4,21.25,61.75,22.475Q61.1,23.675,60.0625,24.25Q59.025,24.825,57.775,24.65Q56.225,24.45,55.2,23.575Q54.175,22.7,53.95,21.35Q53.75,20.2,53.7375,19.0375Q53.725,17.875,53.975,16.725Q54.125,16.1,54.25,15.5625Q54.3099,15.3048,54.3813,15.0442Q54.3836,15.0362,54.3857,15.0285Q54.4614,14.7534,54.55,14.475Q54.95,13.025,56.0625,12.2875Q57.175,11.55,58.7,11.725Q59.1,11.75,59.5,11.85Q59.9,11.95,60.275,12.05Q61.2,12.3,61.8,12.875Q62.4,13.45,62.575,14.375Q62.75,15.1,62.9125,15.775Q63.075,16.45,63.1,16.975ZM55.05,15.25Q54.975,15.475,54.9,15.95Q54.825,16.425,54.7875,16.8875Q54.75,17.35,54.725,17.525Q54.65,18.2,54.625,18.9Q54.6,19.6,54.6,20.325Q54.575,21.85,55.675,23.075Q56.175,23.65,56.9375,23.9125Q57.7,24.175,58.5125,24.125Q59.325,24.075,60.0125,23.725Q60.7,23.375,61.05,22.7Q61.875,21.15,62.25,19.475Q62.5212,18.2636,62.4263,17Q62.4252,16.9848,62.4238,16.9673Q62.3869,16.4997,62.3,16.025Q62.1,14.875,61.65,14Q61.2,13.125,60.3625,12.65Q59.525,12.175,58.075,12.275Q57.15,12.325,56.5125,12.7875Q55.875,13.25,55.475,14.05Q55.35,14.325,55.25,14.625Q55.15,14.925,55.05,15.25ZM55.5317,17.6403Q55.5075,17.8076,55.4875,17.975Q55.275,19.75,55.625,21.6Q55.75,22.275,56.3,22.7375Q56.85,23.2,57.675,23.35Q58.575,23.525,59.1625,23.2875Q59.75,23.05,60.15,22.425Q60.95,21.2,61.2375,19.825Q61.525,18.45,61.475,17Q61.475,16.9741,61.4747,16.9458Q61.4745,16.9359,61.4744,16.9262Q61.4703,16.6556,61.4375,16.175Q61.4,15.625,61.225,15Q61.05,14.375,60.6125,13.8875Q60.38,13.6285,60.0452,13.4718Q60.0381,13.4684,60.0309,13.4651Q59.7409,13.3322,59.375,13.275Q59.05,13.225,58.7375,13.225L58.075,13.225Q56.825,13.275,56.375,14.45Q56.3735,14.4539,56.372,14.4577Q56.3652,14.4756,56.3589,14.492Q55.7654,16.0437,55.5354,17.615Q55.5337,17.6263,55.5317,17.6403ZM58.075,13.8737Q57.6703,14.0291,57.325,14.325Q56.8,14.775,56.625,15.425Q56.225,16.9,56.1,18.2625Q55.975,19.625,56.15,21.175Q56.225,21.8,56.4375,22.1Q56.65,22.4,57.2,22.675Q57.75,22.925,58.3,22.8625Q58.85,22.8,59.25,22.425Q59.6,22.075,59.8,21.7125Q60,21.35,60.15,20.875Q60.425,19.975,60.7375,19.0125Q61.05,18.05,60.95,16.975Q60.925,16.525,60.825,15.9375Q60.725,15.35,60.475,14.8125Q60.225,14.275,59.725,13.975Q59.175,13.625,58.5125,13.75Q58.2994,13.7902,58.1006,13.864Q58.0878,13.8688,58.075,13.8737ZM58.556,21.7047Q58.7963,21.4617,58.9244,21.2294Q59.0764,20.954,59.1964,20.5739Q59.4712,19.6746,59.7864,18.7037Q60.0352,17.9373,59.9543,17.0676L59.9526,17.0491L59.9515,17.0305Q59.9297,16.637,59.8392,16.1053Q59.7617,15.6501,59.5683,15.2342Q59.4476,14.9747,59.2105,14.8325L59.1992,14.8257L59.1881,14.8187Q58.9718,14.681,58.6979,14.7327Q58.2979,14.8081,57.9758,15.0843Q57.6853,15.3332,57.5906,15.685Q57.2129,17.0779,57.0958,18.3539Q56.9802,19.6145,57.1437,21.0628Q57.1877,21.429,57.2535,21.522Q57.3194,21.6149,57.6294,21.7716Q57.9191,21.8993,58.1871,21.8689Q58.4009,21.8446,58.556,21.7047ZM75.7194,11.2239Q75.0154,11.7959,74.8351,13.0586L74.8331,13.072L74.8316,13.0854Q74.7548,13.7512,74.6785,14.667Q74.6018,15.5867,74.5634,16.469099999999997Q74.5255,17.3422,74.5127,17.9153L74.5,18.4889L74.5,20.0375Q74.5,20.8083,74.525,21.5914Q74.5256,22.0976,74.5656,22.6037Q74.6086,23.1485,74.7249,23.6716Q74.8924,24.4086,75.276,24.9665Q75.8753,25.8382,77.1616,25.7462Q78.1073,25.664,78.8167,24.9349Q79.5339,24.1978,79.5733,23.2079L79.6733,21.4837Q79.7242,20.6187,79.7499,19.7167Q79.7752,18.1959,79.7372,16.6627Q79.7002,15.1709,79.725,13.675Q79.725,12.5348,79.1942,11.7765Q78.5956,10.92136,77.4543,10.7584Q76.4531,10.6278,75.7194,11.2239ZM77.5827,11.8037Q77.4604,11.7693,77.325,11.75Q76.75,11.675,76.35,12Q75.95,12.325,75.825,13.2Q75.75,13.85,75.675,14.75Q75.6,15.65,75.5625,16.5125Q75.525,17.375,75.5125,17.9375L75.5,18.5L75.5,20.0375Q75.5,20.8,75.525,21.575Q75.525,22.05,75.5625,22.525Q75.6,23,75.7,23.45Q75.825,24,76.1,24.4Q76.375,24.8,77.075,24.75Q77.65,24.7,78.1,24.2375Q78.55,23.775,78.575,23.15Q78.625,22.275,78.675,21.425Q78.725,20.575,78.75,19.7Q78.775,18.2,78.7375,16.6875Q78.7283,16.3183,78.7229,15.95Q78.7207,15.7985,78.7191,15.6467Q78.7086,14.6582,78.725,13.675Q78.725,12.85,78.375,12.35Q78.1711,12.0587,77.8484,11.9032Q77.7244,11.8434,77.5827,11.8037ZM76.2472,18.5Q76.2471,18.5033,76.2467,18.5166Q76.238,18.8562,76.225,19.2Q76.2,20.05,76.2,21.075Q76.2,22.1,76.25,22.925Q76.275,23.175,76.3,23.5Q76.325,23.825,76.475,24.05Q76.625,24.275,77.05,24.25Q77.425,24.225,77.575,24Q77.725,23.775,77.7625,23.45Q77.8,23.125,77.8,22.875Q77.8,22.1,77.8125,21.0625Q77.825,20.025,77.85,18.9625Q77.875,17.9,77.8875,16.9875Q77.9,16.075,77.9125,15.5125Q77.925,14.95,77.95,14.95Q77.95,14.525,77.9625,14.1Q77.975,13.675,77.925,13.275Q77.9,13.125,77.7375,12.95Q77.575,12.775,77.425,12.75Q77.375,12.725,77.175,12.675Q76.975,12.625,76.75,12.675Q76.525,12.725,76.375,13.025Q76.3281,13.1189,76.2958,13.2543Q76.2943,13.2607,76.2929,13.2668Q76.225,13.5622,76.225,14.05Q76.25,15.35,76.2625,16.6125Q76.2717,17.5394,76.2472,18.5ZM76.9559,13.6448L76.9325,13.6451Q76.9475,13.6489,76.9563,13.6504Q76.9561,13.6476,76.9559,13.6448ZM69.7376,17.5875Q69.75,18.5813,69.75,19.575L69.75,20.9Q69.75,21.4642,69.7377,22.0412Q69.7256,22.6116,69.7014,23.0475Q69.6756,23.538,69.6627,24.1412Q69.653,24.5989,69.5625,24.9531Q69.5254,25.0616,69.3568,25.1232Q68.9949,25.2555,68.6925,25.1799L68.6814,25.1771L68.6703,25.1746Q68.2561,25.081,68.0396,24.7902Q67.7347,24.3808,67.6079,23.7657Q67.5361,23.3828,67.4762,22.9877Q67.3945,22.4487,67.1854,21.9612Q67.0088,21.5727,66.6809,21.1628Q66.1306,20.475,65.425,20.475Q64.8452,20.475,64.256,20.8327Q63.6524,21.1992,63.3981,21.7429Q63.1375,22.2722,63.1015,22.9195Q63.0717,23.4559,63.1319,23.9668L63.1338,23.9837L63.1364,24.0004Q63.5309,26.5931,64.6276,27.8269Q65.7673,29.109,67.8643,29.3875Q68.4598,29.5012,69.3284,29.4874Q70.1343,29.4746,70.6276,29.4486L70.6511,29.4474L70.6745,29.445Q72.6741,29.2451,73.4575,27.9395Q74.1157,26.8426,74.1744,25.1095Q74.2496,22.9287,74.2997,20.7606Q74.3499,18.5918,74.375,16.375Q74.375,16.052500000000002,74.3455,15.7427Q74.3119,15.3901,74.2124,15.053Q73.9709,14.1642,73.064,13.6892Q72.2464,13.2609,71.3468,13.4117Q70.1593,13.5808,69.886,14.5716Q69.7518,15.0581,69.75,15.5615Q69.7249,16.5746,69.7376,17.5875ZM71.5,14.4Q70.95,14.475,70.85,14.8375Q70.75,15.2,70.75,15.575Q70.725,16.575,70.7375,17.575Q70.75,18.575,70.75,19.575L70.75,20.9Q70.75,21.475,70.7375,22.0625Q70.725,22.65,70.7,23.1Q70.675,23.575,70.6625,24.1625Q70.65,24.75,70.525,25.225Q70.35,25.825,69.7,26.0625Q69.05,26.3,68.45,26.15Q67.675,25.975,67.2375,25.3875Q66.8,24.8,66.625,23.95Q66.55,23.55,66.4875,23.1375Q66.474,23.0482,66.4564,22.9619Q66.4543,22.9516,66.4519,22.9403Q66.3885,22.6398,66.275,22.375Q66.15,22.1,65.9,21.7875Q65.65,21.475,65.425,21.475Q65.3515,21.475,65.275,21.4878Q65.2225,21.4965,65.1686,21.5113Q64.9804,21.5628,64.775,21.6875Q64.425,21.9,64.3,22.175Q64.125,22.525,64.1,22.975Q64.075,23.425,64.125,23.85Q64.475,26.15,65.375,27.1625Q66.275,28.175,68.025,28.4Q68.525,28.5,69.3125,28.4875Q70.1,28.475,70.575,28.45Q72.075,28.3,72.6,27.425Q73.125,26.55,73.175,25.075Q73.25,22.9,73.3,20.7375Q73.35,18.575,73.375,16.375Q73.375,16.1,73.35,15.8375Q73.325,15.575,73.25,15.325Q73.125,14.85,72.6,14.575Q72.4194,14.4804,72.2328,14.4302Q72.2232,14.4276,72.2136,14.4251Q71.867,14.3362,71.5,14.4ZM72.1,15.05Q71.75,14.975,71.5625,15.1375Q71.375,15.3,71.325,15.425Q71.25,15.825,71.2875,16.2625Q71.325,16.7,71.325,17.125L71.325,19.575Q71.325,20.45,71.3125,21.375Q71.3,22.3,71.2875,23.1Q71.275,23.9,71.275,24.375Q71.25,26.425,69.625,26.75Q68.9235,26.8968,68.3071,26.7828Q68.2998,26.7815,68.2925,26.7801Q67.9722,26.7191,67.675,26.5875Q66.8,26.2,66.45,25.275Q66.25,24.775,66.1875,24.2125Q66.125,23.65,65.95,23.1Q65.875,22.825,65.725,22.4625Q65.575,22.1,65.275,22.15Q65.025,22.15,64.9,22.5Q64.775,22.85,64.725,23.1Q64.6884,23.4413,64.68979999999999,23.7641Q64.68979999999999,23.7731,64.6899,23.7836Q64.6974,24.7731,65.0625,25.5875Q65.55,26.675,66.5625,27.2875Q67.575,27.9,68.975,27.925Q69.8659,27.9406,70.5124,27.8244Q70.5271,27.8217,70.5418,27.819Q70.9115,27.7502,71.2,27.6375Q72,27.325,72.325,26.55Q72.65,25.775,72.65,24.4Q72.675,22.325,72.7,20.275Q72.725,18.225,72.725,16.175Q72.725,15.975,72.7,15.775Q72.675,15.575,72.6,15.425Q72.375,15.1,72.1,15.05Z" fill-rule="evenodd" fill="#FFFFFF" fill-opacity="1"/></g></svg>