<svg xmlns="http://www.w3.org/2000/svg" xmlns:xlink="http://www.w3.org/1999/xlink" fill="none" version="1.1" width="60" height="60" viewBox="0 0 60 60"><g transform="matrix(1,0,0,-1,0,120)"><g><path d="M48.75,95.625Q48.6328,87.4219,44.0625,81.2109L58.9453,66.44531Q60,65.27344,60,63.75Q60,62.22656,58.9453,61.05469Q57.7734,60,56.25,60Q54.7266,60,53.5547,61.05469L38.7891,75.9375Q32.5781,71.3672,24.375,71.25Q14.0625,71.4844,7.14844,78.3984Q0.234375,85.3125,0,95.625Q0.234375,105.9375,7.14844,112.85159999999999Q14.0625,119.7656,24.375,120Q34.6875,119.7656,41.6016,112.85159999999999Q48.5156,105.9375,48.75,95.625ZM24.375,78.75Q28.9453,78.75,32.8125,80.9766Q36.6797,83.2031,39.0234,87.1875Q41.25,91.1719,41.25,95.625Q41.25,100.0781,39.0234,104.0625Q36.6797,108.0469,32.8125,110.27340000000001Q28.9453,112.5,24.375,112.5Q19.8047,112.5,15.9375,110.27340000000001Q12.0703,108.0469,9.72656,104.0625Q7.5,100.0781,7.5,95.625Q7.5,91.1719,9.72656,87.1875Q12.0703,83.2031,15.9375,80.9766Q19.8047,78.75,24.375,78.75Z" fill="#000000" fill-opacity="1" style="mix-blend-mode:passthrough"/></g></g></svg>