<svg xmlns="http://www.w3.org/2000/svg" xmlns:xlink="http://www.w3.org/1999/xlink" fill="none" version="1.1" width="16.75" height="16" viewBox="0 0 16.75 16"><defs><clipPath id="master_svg0_86_2877"><rect x="0" y="0" width="16.75" height="16" rx="0"/></clipPath></defs><g clip-path="url(#master_svg0_86_2877)"><g transform="matrix(1,0,0,-1,0,32.69061279296875)"><g><path d="M9.281249904632569,31.784406396484375Q8.999999904632569,32.31560639648438,8.374999904632569,32.34690639648437Q7.781249904632569,32.31560639648438,7.468749904632569,31.784406396484375L5.468749904632569,27.659406396484375L0.9687499046325684,26.971906396484375Q0.3749999046325684,26.878106396484377,0.18749990463256835,26.315616396484373Q-9.536743164617612e-8,25.721866396484373,0.4374999046325684,25.284366396484373L3.6874999046325683,22.065616396484373L2.9062499046325683,17.503116396484376Q2.8437499046325683,16.909369396484376,3.3124999046325683,16.534369396484376Q3.8124999046325683,16.190619396484376,4.374999904632569,16.471869396484376L8.374999904632569,18.596866396484376L12.406249904632569,16.471869396484376Q12.937449904632569,16.190619396484376,13.437449904632569,16.534369396484376Q13.937449904632569,16.909369396484376,13.843749904632569,17.503116396484376L13.093749904632569,22.065616396484373L16.343749904632567,25.284366396484373Q16.74994990463257,25.721866396484373,16.593749904632567,26.315616396484373Q16.37494990463257,26.878106396484377,15.781249904632569,26.971906396484375L11.281249904632569,27.659406396484375L9.281249904632569,31.784406396484375Z" fill="#FACC15" fill-opacity="1" style="mix-blend-mode:passthrough"/></g></g></g></svg>