<svg xmlns="http://www.w3.org/2000/svg" xmlns:xlink="http://www.w3.org/1999/xlink" fill="none" version="1.1" width="18" height="16" viewBox="0 0 18 16"><defs><clipPath id="master_svg0_86_2552"><rect x="0.65625" y="0" width="16.6875" height="16" rx="0"/></clipPath></defs><g><rect x="0" y="0" width="18" height="16" rx="0" fill="#000000" fill-opacity="0" style="mix-blend-mode:passthrough"/><g clip-path="url(#master_svg0_86_2552)"><g transform="matrix(1,0,0,-1,0,32.51666259765625)"><g><path d="M8.999995850524902,32.26663129882812Q9.468745850524902,32.235431298828125,9.687495850524902,31.829131298828123L11.812535850524903,27.422931298828125L16.5937358505249,26.735431298828125Q17.062535850524903,26.641631298828123,17.2187358505249,26.204161298828126Q17.3437358505249,25.766661298828126,17.0312358505249,25.454161298828126L13.562535850524903,22.016661298828126L14.375035850524903,17.141664298828125Q14.437535850524903,16.704164298828125,14.062535850524903,16.391664298828125Q13.687535850524903,16.141664298828125,13.281235850524903,16.360414298828125L8.999995850524902,18.641661298828126L4.718745850524902,16.360414298828125Q4.312495850524902,16.141664298828125,3.9374958505249023,16.422914298828125Q3.5624958505249023,16.704164298828125,3.6249958505249023,17.141664298828125L4.437495850524902,22.016661298828126L0.9687498505249024,25.454161298828126Q0.6562501505249023,25.766661298828126,0.7812501505249023,26.204161298828126Q0.9374998505249024,26.641631298828123,1.4062498505249024,26.735431298828125L6.187495850524902,27.422931298828125L8.312495850524902,31.829131298828123Q8.531245850524902,32.235431298828125,8.999995850524902,32.26663129882812ZM8.999995850524902,29.797931298828125L7.343745850524902,26.422931298828125L8.999995850524902,29.797931298828125L7.343745850524902,26.422931298828125Q7.187495850524902,26.079161298828126,6.781245850524902,25.985411298828126L3.0937458505249023,25.454161298828126L5.781245850524902,22.797911298828126Q6.031245850524902,22.516661298828126,5.999995850524902,22.141661298828126L5.343745850524902,18.391661298828126L8.656245850524902,20.141661298828126Q8.999995850524902,20.329161298828126,9.343745850524902,20.141661298828126L12.625035850524903,18.391661298828126L12.000035850524903,22.141661298828126Q11.937535850524903,22.516661298828126,12.218735850524903,22.797911298828126L14.906235850524903,25.454161298828126L11.218735850524903,25.985411298828126Q10.812535850524903,26.079161298828126,10.656245850524902,26.422931298828125L8.999995850524902,29.797931298828125Z" fill="#000000" fill-opacity="1" style="mix-blend-mode:passthrough"/></g></g></g></g></svg>