<svg xmlns="http://www.w3.org/2000/svg" xmlns:xlink="http://www.w3.org/1999/xlink" fill="none" version="1.1" width="24" height="32" viewBox="0 0 24 32"><defs><clipPath id="master_svg0_103_8584"><rect x="0" y="4" width="24" height="24" rx="0"/></clipPath></defs><g><rect x="0" y="0" width="24" height="32" rx="0" fill="#000000" fill-opacity="0" style="mix-blend-mode:passthrough"/><g clip-path="url(#master_svg0_103_8584)"><g transform="matrix(1,0,0,-1,0,57.03125)"><g><path d="M18.7031,34.515625Q17.9062,35.875005,16.5469,36.671875Q15.1875,37.515625,13.5,37.515625L10.5,37.515625Q8.8125,37.515625,7.45312,36.671875Q6.09375,35.875005,5.29688,34.515625Q6.5625,33.109375,8.25,32.312505Q9.98438,31.515625,12,31.515625Q14.0156,31.515625,15.75,32.312505Q17.4375,33.109375,18.7031,34.515625ZM0,40.515625Q0.046875,43.796825,1.59375,46.515625Q3.1875,49.234425,6,50.921825Q8.85938,52.515625,12,52.515625Q15.1406,52.515625,18,50.921825Q20.8125,49.234425,22.4062,46.515625Q23.9531,43.796825,24,40.515625Q23.9531,37.234375,22.4062,34.515625Q20.8125,31.796875,18,30.109375Q15.1406,28.515625,12,28.515625Q8.85938,28.515625,6,30.109375Q3.1875,31.796875,1.59375,34.515625Q0.046875,37.234375,0,40.515625ZM12,39.765625Q13.9219,39.812525,14.9062,41.453125Q15.8438,43.140625,14.9062,44.828125Q13.9219,46.468725,12,46.515625Q10.0781,46.468725,9.09375,44.828125Q8.15625,43.140625,9.09375,41.453125Q10.0781,39.812525,12,39.765625Z" fill="#4B5563" fill-opacity="1" style="mix-blend-mode:passthrough"/></g></g></g></g></svg>